<svg xmlns="http://www.w3.org/2000/svg" xmlns:xlink="http://www.w3.org/1999/xlink" xmlns:lucid="lucid" width="2000" height="2941"><g transform="translate(960 741)" lucid:page-tab-id="saPJB94CmRhn"><path d="M-880-360c0 11.05-8.95 20-20 20s-20-8.95-20-20 8.95-20 20-20 20 8.95 20 20z" stroke="#5e5e5e" stroke-width="3"/><path d="M840 1820c0 11.05-8.95 20-20 20s-20-8.95-20-20 8.95-20 20-20 20 8.95 20 20z" stroke="#5e5e5e" stroke-width="3" fill="#fff"/><path d="M832 1820c0 6.63-5.37 12-12 12s-12-5.37-12-12 5.37-12 12-12 12 5.37 12 12z" stroke="#5e5e5e" stroke-width="3"/><path d="M-594.33-393.33c-14.18 0-25.67 11.5-25.67 25.66v77c0 14.18 11.5 25.67 25.67 25.67h248.66c14.18 0 25.67-11.5 25.67-25.67v-77c0-14.17-11.5-25.66-25.67-25.66z" stroke="#5e5e5e" stroke-width="3" fill="#fff"/><use xlink:href="#a" transform="matrix(1,0,0,1,-612,-385.3333333485981) translate(9.820987654320959 44.05555555555555)"/><use xlink:href="#b" transform="matrix(1,0,0,1,-612,-385.3333333485981) translate(146.27777777777777 44.05555555555555)"/><use xlink:href="#c" transform="matrix(1,0,0,1,-612,-385.3333333485981) translate(28.185185185185176 81.38888888888889)"/><use xlink:href="#d" transform="matrix(1,0,0,1,-612,-385.3333333485981) translate(138.62962962962962 81.38888888888889)"/><path d="M150-517.67V-564c0-3.3 2.7-6 6-6h728c3.3 0 6 2.7 6 6v46.33z" stroke="#5e5e5e" stroke-width="3" fill="#fff"/><path d="M890-517.67V2114c0 3.3-2.7 6-6 6H156c-3.3 0-6-2.7-6-6V-517.67z" stroke="#5e5e5e" stroke-width="3" fill="none"/><use xlink:href="#e" transform="matrix(1,0,0,1,150.00000000000045,-570) translate(331.1975308641975 32.72222222222222)"/><path d="M-840-517.67V-564c0-3.3 2.7-6 6-6h978c3.3 0 6 2.7 6 6v46.33z" stroke="#5e5e5e" stroke-width="3" fill="#fff"/><path d="M150-517.67V2114c0 3.3-2.7 6-6 6h-978c-3.3 0-6-2.7-6-6V-517.67z" stroke="#5e5e5e" stroke-width="3" fill="none"/><use xlink:href="#f" transform="matrix(1,0,0,1,-840,-570) translate(443.69135802469134 32.72222222222222)"/><path d="M-623.32-360H-877.5M-640.68-349.82l17.22-10.18-17.22-10.18" stroke="#5e5e5e" stroke-width="2" fill="none"/><path d="M-877.47-359h-1.14l.1-.93-.03-1.07h1.06z" fill="#5e5e5e"/><path d="M-423-165.76c2.35-2.34 6.15-2.34 8.5 0l21.5 21.52c2.35 2.34 2.35 6.14 0 8.48l-21.5 21.52c-2.35 2.34-6.15 2.34-8.5 0l-21.5-21.52c-2.35-2.34-2.35-6.14 0-8.48z" stroke="#5e5e5e" stroke-width="3" fill="#fff"/><path d="M-519.54-262.5V-146c0 3.3 2.7 6 6 6h63.98" stroke="#5e5e5e" stroke-width="2" fill="none"/><path d="M-518.54-262.47h-2v-1.03h2z" fill="#5e5e5e"/><path d="M-466.92-129.82L-449.7-140l-17.22-10.18" stroke="#5e5e5e" stroke-width="2" fill="none"/><path d="M275.67-208.33c-14.18 0-25.67 11.5-25.67 25.66v77C250-91.5 261.5-80 275.67-80h248.66C538.5-80 550-91.5 550-105.67v-77c0-14.17-11.5-25.66-25.67-25.66z" stroke="#5e5e5e" stroke-width="3" fill="#fff"/><use xlink:href="#g" transform="matrix(1,0,0,1,258.00000000000045,-200.33333333333323) translate(36.78395061728395 25.388888888888886)"/><use xlink:href="#h" transform="matrix(1,0,0,1,258.00000000000045,-200.33333333333323) translate(126.48765432098766 25.388888888888886)"/><use xlink:href="#i" transform="matrix(1,0,0,1,258.00000000000045,-200.33333333333323) translate(212.64814814814815 25.388888888888886)"/><use xlink:href="#j" transform="matrix(1,0,0,1,258.00000000000045,-200.33333333333323) translate(85.04938271604938 62.72222222222223)"/><use xlink:href="#k" transform="matrix(1,0,0,1,258.00000000000045,-200.33333333333323) translate(60.07407407407406 100.05555555555557)"/><path d="M-388.76-140h317.7c.24 0 .43.2.43.42 0 .23.18.4.42.4h316.88" stroke="#5e5e5e" stroke-width="2" fill="none"/><path d="M-388.74-139h-1.16l.18-1.33-.15-.67h1.13z" fill="#5e5e5e"/><path d="M229.32-129l17.22-10.17-17.22-10.18" stroke="#5e5e5e" stroke-width="2" fill="none"/><use xlink:href="#l" transform="matrix(1,0,0,1,-111.55565915145024,-181.32587798498952) translate(0 24.888888888888893)"/><path d="M817.55-240.08l2.53 2.53.92 3.42v2030.8h-2V-233.86l-.7-2.64-1.8-1.8-2.63-.7h-1226.5l-2.63.7-1.78 1.8-.7 2.63V-170h-2v-64.13l.9-3.42 2.54-2.53 3.42-.92h1227z" fill="#5e5e5e"/><path d="M-417.75-168.85l-1.33-.18-.67.15V-170h2zM831.04 1779.83L820 1798.5l-11.04-18.67 1.72-1.02 9.32 15.77 9.32-15.76z" fill="#5e5e5e"/><use xlink:href="#m" transform="matrix(1,0,0,1,-98.67159557992004,-281.33333333333337) translate(0 24.888888888888893)"/><path d="M-628.75-114c0-3.3 2.7-6 6-6h228c3.3 0 6 2.7 6 6V33.33c0 3.32-2.7 6-6 6h-228c-3.3 0-6-2.68-6-6z" stroke="#000" stroke-opacity="0" stroke-width="3" fill="#fff" fill-opacity="0"/><use xlink:href="#n" transform="matrix(1,0,0,1,-623.75,-115) translate(47.722222222222214 24.888888888888893)"/><use xlink:href="#o" transform="matrix(1,0,0,1,-623.75,-115) translate(109.85802469135803 24.888888888888893)"/><use xlink:href="#p" transform="matrix(1,0,0,1,-623.75,-115) translate(66.69135802469135 62.222222222222236)"/><use xlink:href="#q" transform="matrix(1,0,0,1,-623.75,-115) translate(36.487654320987644 99.55555555555557)"/><use xlink:href="#r" transform="matrix(1,0,0,1,-623.75,-115) translate(64.09876543209876 136.8888888888889)"/><path d="M-308-80c-17.67 0-32 14.33-32 32v96c0 17.67 14.33 32 32 32h236c17.67 0 32-14.33 32-32v-96c0-17.67-14.33-32-32-32z" stroke="#5e5e5e" stroke-width="3" fill="#fff"/><use xlink:href="#a" transform="matrix(1,0,0,1,-332,-71.99999999999991) translate(2.216049382716051 24.888888888888893)"/><use xlink:href="#s" transform="matrix(1,0,0,1,-332,-71.99999999999991) translate(138.67283950617286 24.888888888888893)"/><use xlink:href="#t" transform="matrix(1,0,0,1,-332,-71.99999999999991) translate(50.52469135802467 62.222222222222236)"/><use xlink:href="#u" transform="matrix(1,0,0,1,-332,-71.99999999999991) translate(76.4506172839506 62.222222222222236)"/><use xlink:href="#v" transform="matrix(1,0,0,1,-332,-71.99999999999991) translate(65.12962962962962 99.55555555555557)"/><use xlink:href="#i" transform="matrix(1,0,0,1,-332,-71.99999999999991) translate(184.30246913580248 99.55555555555557)"/><use xlink:href="#k" transform="matrix(1,0,0,1,-332,-71.99999999999991) translate(60.07407407407406 136.8888888888889)"/><path d="M400-77.5V-6c0 3.3-2.7 6-6 6H-36.68" stroke="#5e5e5e" stroke-width="2" fill="none"/><path d="M401-77.47h-2v-1.03h2z" fill="#5e5e5e"/><path d="M-19.32-10.18L-36.54 0l17.22 10.18" stroke="#5e5e5e" stroke-width="2" fill="none"/><path d="M-194.24 149.24c2.34-2.34 6.14-2.34 8.48 0l21.52 21.52c2.34 2.34 2.34 6.14 0 8.48l-21.52 21.52c-2.34 2.34-6.14 2.34-8.48 0l-21.52-21.52c-2.34-2.34-2.34-6.14 0-8.48z" stroke="#5e5e5e" stroke-width="3" fill="#fff"/><path d="M-440 206c0-3.3 2.7-6 6-6h228c3.3 0 6 2.7 6 6v147.33c0 3.32-2.7 6-6 6h-228c-3.3 0-6-2.68-6-6z" stroke="#000" stroke-opacity="0" stroke-width="3" fill="#fff" fill-opacity="0"/><use xlink:href="#n" transform="matrix(1,0,0,1,-435,205) translate(10.56172839506172 24.888888888888893)"/><use xlink:href="#w" transform="matrix(1,0,0,1,-435,205) translate(72.69753086419753 24.888888888888893)"/><use xlink:href="#x" transform="matrix(1,0,0,1,-435,205) translate(153.75925925925927 24.888888888888893)"/><use xlink:href="#y" transform="matrix(1,0,0,1,-435,205) translate(20.024691358024683 62.222222222222236)"/><use xlink:href="#z" transform="matrix(1,0,0,1,-435,205) translate(113.35802469135803 62.222222222222236)"/><use xlink:href="#h" transform="matrix(1,0,0,1,-435,205) translate(54.6358024691358 99.55555555555557)"/><use xlink:href="#i" transform="matrix(1,0,0,1,-435,205) translate(140.7962962962963 99.55555555555557)"/><use xlink:href="#A" transform="matrix(1,0,0,1,-435,205) translate(24.432098765432087 136.8888888888889)"/><path d="M-190 82.5v61.7" stroke="#5e5e5e" stroke-width="2" fill="none"/><path d="M-189 82.53h-2V81.5h2z" fill="#5e5e5e"/><path d="M-200.18 126.83l10.18 17.22 10.18-17.22" stroke="#5e5e5e" stroke-width="2" fill="none"/><path d="M285.67 120.83c-14.18 0-25.67 11.5-25.67 25.67v77c0 14.18 11.5 25.67 25.67 25.67h248.66c14.18 0 25.67-11.5 25.67-25.67v-77c0-14.18-11.5-25.67-25.67-25.67z" stroke="#5e5e5e" stroke-width="3" fill="#fff"/><use xlink:href="#B" transform="matrix(1,0,0,1,268.00000000000045,128.83333333333334) translate(39.419753086419746 44.05555555555555)"/><use xlink:href="#C" transform="matrix(1,0,0,1,268.00000000000045,128.83333333333334) translate(161.61728395061726 44.05555555555555)"/><use xlink:href="#D" transform="matrix(1,0,0,1,268.00000000000045,128.83333333333334) translate(60.07407407407406 81.38888888888889)"/><path d="M-220 175h-435.2c-3.33 0-6-2.7-6-6v-450.66c0-3.3 2.67-6 6-6h32.17" stroke="#5e5e5e" stroke-width="2" fill="none"/><path d="M-219.03 175.33l.15.67H-220v-2h1.15z" fill="#5e5e5e"/><path d="M-640.4-277.48l17.22-10.18-17.2-10.18" stroke="#5e5e5e" stroke-width="2" fill="none"/><use xlink:href="#l" transform="matrix(1,0,0,1,-751.140546429111,126.11699666397813) translate(0 24.888888888888893)"/><path d="M-160 175H43.73c2.76 0 5 2.24 5 5s2.24 5 5 5h202.94" stroke="#5e5e5e" stroke-width="2" fill="none"/><path d="M-160 176h-1.15l.18-1.33-.15-.67h1.13z" fill="#5e5e5e"/><path d="M239.32 195.18L256.54 185l-17.22-10.18" stroke="#5e5e5e" stroke-width="2" fill="none"/><use xlink:href="#m" transform="matrix(1,0,0,1,-29.596969425822536,179) translate(0 24.888888888888893)"/><path d="M-174.33 331.67c-14.18 0-25.67 11.5-25.67 25.66v77c0 14.18 11.5 25.67 25.67 25.67H74.33C88.5 460 100 448.5 100 434.33v-77c0-14.17-11.5-25.66-25.67-25.66z" stroke="#5e5e5e" stroke-width="3" fill="#fff"/><use xlink:href="#a" transform="matrix(1,0,0,1,-192,339.66666666666686) translate(27.234567901234556 25.388888888888886)"/><use xlink:href="#E" transform="matrix(1,0,0,1,-192,339.66666666666686) translate(163.69135802469137 25.388888888888886)"/><use xlink:href="#F" transform="matrix(1,0,0,1,-192,339.66666666666686) translate(27.23456790123457 62.72222222222223)"/><use xlink:href="#G" transform="matrix(1,0,0,1,-192,339.66666666666686) translate(101.38271604938272 62.72222222222223)"/><use xlink:href="#H" transform="matrix(1,0,0,1,-192,339.66666666666686) translate(125.58024691358025 62.72222222222223)"/><use xlink:href="#I" transform="matrix(1,0,0,1,-192,339.66666666666686) translate(173.8888888888889 62.72222222222223)"/><use xlink:href="#J" transform="matrix(1,0,0,1,-192,339.66666666666686) translate(249.93827160493828 62.72222222222223)"/><use xlink:href="#K" transform="matrix(1,0,0,1,-192,339.66666666666686) translate(98.91975308641975 100.05555555555557)"/><path d="M410 251.67v138.16c0 3.32-2.7 6-6 6H103.32" stroke="#5e5e5e" stroke-width="2" fill="none"/><path d="M411 251.7h-2v-1.03h2z" fill="#5e5e5e"/><path d="M120.68 385.65l-17.22 10.18L120.68 406" stroke="#5e5e5e" stroke-width="2" fill="none"/><path d="M325.67 618.33c-14.18 0-25.67 11.5-25.67 25.67v77c0 14.18 11.5 25.67 25.67 25.67h248.66c14.18 0 25.67-11.5 25.67-25.67v-77c0-14.18-11.5-25.67-25.67-25.67z" stroke="#5e5e5e" stroke-width="3" fill="#fff"/><use xlink:href="#L" transform="matrix(1,0,0,1,308,626.3333333333334) translate(65.21604938271605 25.388888888888886)"/><use xlink:href="#M" transform="matrix(1,0,0,1,308,626.3333333333334) translate(4.895061728395035 62.72222222222223)"/><use xlink:href="#N" transform="matrix(1,0,0,1,308,626.3333333333334) translate(177.38888888888889 62.72222222222223)"/><use xlink:href="#O" transform="matrix(1,0,0,1,308,626.3333333333334) translate(84.44444444444444 100.05555555555557)"/><path d="M-50 600v76.5c0 3.3 2.7 6 6 6h340.68" stroke="#5e5e5e" stroke-width="2" fill="none"/><path d="M-49.67 599.03l.67-.15V600h-2v-1.15z" fill="#5e5e5e"/><path d="M279.32 692.68l17.22-10.18-17.22-10.18" stroke="#5e5e5e" stroke-width="2" fill="none"/><use xlink:href="#m" transform="matrix(1,0,0,1,-11.480557511594206,686.5) translate(0 24.888888888888893)"/><path d="M-254.33 775.83c-14.18 0-25.67 11.5-25.67 25.67v77c0 14.18 11.5 25.67 25.67 25.67H-5.67C8.5 904.17 20 892.67 20 878.5v-77c0-14.18-11.5-25.67-25.67-25.67z" stroke="#5e5e5e" stroke-width="3" fill="#fff"/><use xlink:href="#P" transform="matrix(1,0,0,1,-272,783.8333333333334) translate(14.31481481481481 44.05555555555555)"/><use xlink:href="#Q" transform="matrix(1,0,0,1,-272,783.8333333333334) translate(235.1172839506173 44.05555555555555)"/><use xlink:href="#R" transform="matrix(1,0,0,1,-272,783.8333333333334) translate(33.24074074074073 81.38888888888889)"/><use xlink:href="#S" transform="matrix(1,0,0,1,-272,783.8333333333334) translate(128.21604938271605 81.38888888888889)"/><path d="M450 749.17V834c0 3.3-2.7 6-6 6H23.32" stroke="#5e5e5e" stroke-width="2" fill="none"/><path d="M451 749.2h-2v-1.03h2z" fill="#5e5e5e"/><path d="M40.68 829.82L23.46 840l17.22 10.18" stroke="#5e5e5e" stroke-width="2" fill="none"/><path d="M275.67 940C261.5 940 250 951.5 250 965.67v77c0 14.17 11.5 25.66 25.67 25.66h248.66c14.18 0 25.67-11.5 25.67-25.66v-77c0-14.18-11.5-25.67-25.67-25.67z" stroke="#5e5e5e" stroke-width="3" fill="#fff"/><use xlink:href="#T" transform="matrix(1,0,0,1,258.00000000000045,947.9999999999999) translate(31.641975308641975 44.05555555555555)"/><use xlink:href="#U" transform="matrix(1,0,0,1,258.00000000000045,947.9999999999999) translate(152.11111111111111 44.05555555555555)"/><use xlink:href="#S" transform="matrix(1,0,0,1,258.00000000000045,947.9999999999999) translate(80.72839506172839 81.38888888888889)"/><path d="M-130 906.67v91.5c0 3.3 2.7 6 6 6h370.68" stroke="#5e5e5e" stroke-width="2" fill="none"/><path d="M-129 906.7h-2v-1.03h2z" fill="#5e5e5e"/><path d="M229.32 1014.35l17.22-10.18L229.32 994" stroke="#5e5e5e" stroke-width="2" fill="none"/><path d="M-54.24 544.24c2.34-2.34 6.14-2.34 8.48 0l21.52 21.52c2.34 2.34 2.34 6.14 0 8.48l-21.52 21.52c-2.34 2.34-6.14 2.34-8.48 0l-21.52-21.52c-2.34-2.34-2.34-6.14 0-8.48z" stroke="#5e5e5e" stroke-width="3" fill="#fff"/><path d="M-50 462.5v76.7" stroke="#5e5e5e" stroke-width="2" fill="none"/><path d="M-49 462.53h-2v-1.03h2z" fill="#5e5e5e"/><path d="M-60.18 521.83L-50 539.05l10.18-17.22" stroke="#5e5e5e" stroke-width="2" fill="none"/><path d="M-360 486c0-3.3 2.7-6 6-6h228c3.3 0 6 2.7 6 6v78c0 3.3-2.7 6-6 6h-228c-3.3 0-6-2.7-6-6z" stroke="#000" stroke-opacity="0" stroke-width="3" fill="#fff" fill-opacity="0"/><use xlink:href="#n" transform="matrix(1,0,0,1,-355,485) translate(23.481481481481467 24.888888888888893)"/><use xlink:href="#V" transform="matrix(1,0,0,1,-355,485) translate(85.61728395061728 24.888888888888893)"/><use xlink:href="#W" transform="matrix(1,0,0,1,-355,485) translate(32.123456790123456 62.222222222222236)"/><path d="M-779 563.87l.7 2.64 1.8 1.8 2.63.7H-80v2h-694.13l-3.42-.92-2.53-2.53-.92-3.42v-153.8h2zm155.68-892.04h-150.55l-2.64.72-1.8 1.77-.7 2.65V373h-2v-696.3l.92-3.4 2.53-2.54 3.42-.93h150.8zM-79.03 570.33l.15.67H-80v-2h1.15z" fill="#5e5e5e"/><path d="M-621.5-329.17l-18.67 11.04-1.02-1.72 15.77-9.32-15.76-9.32 1.03-1.7z" fill="#5e5e5e"/><use xlink:href="#l" transform="matrix(1,0,0,1,-820.9629629629629,373.00657594830085) translate(0 24.888888888888893)"/><path d="M395.76 1164.24c2.34-2.34 6.14-2.34 8.48 0l21.52 21.52c2.34 2.34 2.34 6.14 0 8.48l-21.52 21.52c-2.34 2.34-6.14 2.34-8.48 0l-21.52-21.52c-2.34-2.34-2.34-6.14 0-8.48z" stroke="#5e5e5e" stroke-width="3" fill="#fff"/><path d="M400 1070.83v88.36" stroke="#5e5e5e" stroke-width="2" fill="none"/><path d="M401 1070.86h-2v-1.03h2z" fill="#5e5e5e"/><path d="M389.82 1141.83l10.18 17.22 10.18-17.22" stroke="#5e5e5e" stroke-width="2" fill="none"/><path d="M150 1139.17c0-3.32 2.7-6 6-6h228c3.3 0 6 2.68 6 6v110c0 3.3-2.7 6-6 6H156c-3.3 0-6-2.7-6-6z" stroke="#000" stroke-opacity="0" stroke-width="3" fill="#fff" fill-opacity="0"/><use xlink:href="#n" transform="matrix(1,0,0,1,155.00000000000045,1138.1666666666665) translate(25.25308641975309 24.888888888888893)"/><use xlink:href="#X" transform="matrix(1,0,0,1,155.00000000000045,1138.1666666666665) translate(87.3888888888889 24.888888888888893)"/><use xlink:href="#U" transform="matrix(1,0,0,1,155.00000000000045,1138.1666666666665) translate(64.87654320987654 62.222222222222236)"/><use xlink:href="#Y" transform="matrix(1,0,0,1,155.00000000000045,1138.1666666666665) translate(45.08641975308642 99.55555555555557)"/><path d="M400 1220v299.2" stroke="#5e5e5e" stroke-width="2" fill="none"/><path d="M400.33 1219.03l.67-.15v1.13h-2v-1.15z" fill="#5e5e5e"/><path d="M389.82 1501.83l10.18 17.22 10.18-17.22" stroke="#5e5e5e" stroke-width="2" fill="none"/><g><use xlink:href="#Z" transform="matrix(1,0,0,1,408.00000000000045,1351.3333333333333) translate(0 24.888888888888893)"/></g><path d="M430 1190h155.5c3.3 0 6-2.7 6-6v-173.83c0-3.32-2.7-6-6-6h-32.18" stroke="#5e5e5e" stroke-width="2" fill="none"/><path d="M430 1191h-1.15l.18-1.33-.15-.67H430z" fill="#5e5e5e"/><path d="M570.68 994l-17.22 10.17 17.22 10.18" stroke="#5e5e5e" stroke-width="2" fill="none"/><g><use xlink:href="#m" transform="matrix(1,0,0,1,511.16666666666714,1081.4348504809475) translate(0 24.888888888888893)"/></g><path d="M395.76 1524.24c2.34-2.34 6.14-2.34 8.48 0l21.52 21.52c2.34 2.34 2.34 6.14 0 8.48l-21.52 21.52c-2.34 2.34-6.14 2.34-8.48 0l-21.52-21.52c-2.34-2.34-2.34-6.14 0-8.48z" stroke="#5e5e5e" stroke-width="3" fill="#fff"/><path d="M150 1406c0-3.3 2.7-6 6-6h228c3.3 0 6 2.7 6 6v110c0 3.3-2.7 6-6 6H156c-3.3 0-6-2.7-6-6z" stroke="#000" stroke-opacity="0" stroke-width="3" fill="#fff" fill-opacity="0"/><g><use xlink:href="#n" transform="matrix(1,0,0,1,155.00000000000045,1405) translate(33.80864197530863 25.388888888888886)"/><use xlink:href="#U" transform="matrix(1,0,0,1,155.00000000000045,1405) translate(95.94444444444444 25.388888888888886)"/><use xlink:href="#aa" transform="matrix(1,0,0,1,155.00000000000045,1405) translate(8.833333333333329 62.72222222222223)"/><use xlink:href="#ab" transform="matrix(1,0,0,1,155.00000000000045,1405) translate(140.01851851851853 62.72222222222223)"/><use xlink:href="#ac" transform="matrix(1,0,0,1,155.00000000000045,1405) translate(-0.7592592592592666 100.05555555555557)"/></g><path d="M-228.33 1600c-11.97 0-21.67 9.7-21.67 21.67v65c0 11.96 9.7 21.66 21.67 21.66h196.66c11.97 0 21.67-9.7 21.67-21.66v-65c0-11.97-9.7-21.67-21.67-21.67z" stroke="#5e5e5e" stroke-width="3" fill="#fff"/><g><use xlink:href="#ad" transform="matrix(1,0,0,1,-242,1608) translate(13.654320987654316 34.05555555555555)"/><use xlink:href="#S" transform="matrix(1,0,0,1,-242,1608) translate(50.72839506172839 71.38888888888889)"/></g><path d="M400 1580v68.17c0 3.3-2.7 6-6 6H-6.68" stroke="#5e5e5e" stroke-width="2" fill="none"/><path d="M400.33 1579.03l.67-.15v1.13h-2v-1.15z" fill="#5e5e5e"/><path d="M10.68 1644l-17.22 10.17 17.22 10.18" stroke="#5e5e5e" stroke-width="2" fill="none"/><g><use xlink:href="#Z" transform="matrix(1,0,0,1,220.75685225214872,1658.1666666666667) translate(0 24.888888888888893)"/></g><path d="M430 1550h264c3.3 0 6-2.7 6-6V688.5c0-3.3-2.7-6-6-6h-90.68" stroke="#5e5e5e" stroke-width="2" fill="none"/><path d="M430 1551h-1.15l.18-1.33-.15-.67H430z" fill="#5e5e5e"/><path d="M620.68 672.32l-17.22 10.18 17.22 10.18" stroke="#5e5e5e" stroke-width="2" fill="none"/><g><use xlink:href="#ae" transform="matrix(1,0,0,1,708,1183.8399092892662) translate(0 24.888888888888893)"/></g><path d="M-254.33 1960c-14.18 0-25.67 11.5-25.67 25.67v77c0 14.17 11.5 25.66 25.67 25.66H-5.67c14.18 0 25.67-11.5 25.67-25.66v-77C20 1971.5 8.5 1960-5.67 1960z" stroke="#5e5e5e" stroke-width="3" fill="#fff"/><g><use xlink:href="#P" transform="matrix(1,0,0,1,-272,1968) translate(14.31481481481481 44.05555555555555)"/><use xlink:href="#Q" transform="matrix(1,0,0,1,-272,1968) translate(235.1172839506173 44.05555555555555)"/><use xlink:href="#R" transform="matrix(1,0,0,1,-272,1968) translate(45.339506172839506 81.38888888888889)"/><use xlink:href="#af" transform="matrix(1,0,0,1,-272,1968) translate(140.3148148148148 81.38888888888889)"/></g><path d="M-134.24 1784.24c2.34-2.34 6.14-2.34 8.48 0l21.52 21.52c2.34 2.34 2.34 6.14 0 8.48l-21.52 21.52c-2.34 2.34-6.14 2.34-8.48 0l-21.52-21.52c-2.34-2.34-2.34-6.14 0-8.48z" stroke="#5e5e5e" stroke-width="3" fill="#fff"/><path d="M-130 1710.83v68.36" stroke="#5e5e5e" stroke-width="2" fill="none"/><path d="M-129 1710.86h-2v-1.03h2z" fill="#5e5e5e"/><path d="M-140.18 1761.83l10.18 17.22 10.18-17.22M-130 1840v116.68" stroke="#5e5e5e" stroke-width="2" fill="none"/><path d="M-129.67 1839.03l.67-.15v1.13h-2v-1.15z" fill="#5e5e5e"/><path d="M-140.18 1939.32l10.18 17.22 10.18-17.22" stroke="#5e5e5e" stroke-width="2" fill="none"/><g><use xlink:href="#l" transform="matrix(1,0,0,1,-219.92592592592592,1873.1890428372776) translate(0 24.888888888888893)"/></g><path d="M-100 1755c0-3.3 2.7-6 6-6h228c3.3 0 6 2.7 6 6v110c0 3.3-2.7 6-6 6H-94c-3.3 0-6-2.7-6-6z" stroke="#000" stroke-opacity="0" stroke-width="3" fill="#fff" fill-opacity="0"/><g><use xlink:href="#n" transform="matrix(1,0,0,1,-95,1754) translate(26.074074074074076 24.888888888888893)"/><use xlink:href="#ag" transform="matrix(1,0,0,1,-95,1754) translate(88.20987654320989 24.888888888888893)"/><use xlink:href="#ah" transform="matrix(1,0,0,1,-95,1754) translate(21.79629629629629 62.222222222222236)"/><use xlink:href="#ai" transform="matrix(1,0,0,1,-95,1754) translate(36.487654320987644 99.55555555555557)"/></g><path d="M-409 1803.87l.7 2.64 1.8 1.8 2.63.7h56.03v2h-56.3l-3.4-.92-2.54-2.53-.92-3.42v-399.2h2zm249 5.13v2h-152.73v-2zM-283.3 841h-120.55l-2.64.7-1.8 1.8-.7 2.63v521.46h-2V845.86l.92-3.42 2.53-2.53 3.42-.92h120.8zM-159.03 1810.33l.15.67H-160v-2h1.15z" fill="#5e5e5e"/><path d="M-281.5 840l-18.67 11.04-1.02-1.72 15.77-9.32-15.76-9.32 1.03-1.72z" fill="#5e5e5e"/><g><use xlink:href="#m" transform="matrix(1,0,0,1,-446.1666666666667,1367.5899092892666) translate(0 24.888888888888893)"/></g><g><use xlink:href="#aj" transform="matrix(1,0,0,1,-347.841229547921,1799.3333333333333) translate(0 14.222222222222223)"/></g><path d="M22.5 2024.17H404c3.3 0 6-2.7 6-6V1826c0-3.3 2.7-6 6-6h380.68" stroke="#5e5e5e" stroke-width="2" fill="none"/><path d="M22.53 2025.17H21.5v-2h1.03z" fill="#5e5e5e"/><path d="M779.32 1830.18l17.2-10.18-17.2-10.18" stroke="#5e5e5e" stroke-width="2" fill="none"/><path d="M-940-714c0-3.3 2.7-6 6-6h528c3.3 0 6 2.7 6 6v8c0 3.3-1.9 7.9-4.24 10.24l-1.52 1.52C-408.1-691.9-412.7-690-416-690h-518c-3.3 0-6-2.7-6-6z" fill="#fff"/><path d="M-400-720v20l-10 10h-530" stroke="#5e5e5e" stroke-width="3" fill="none"/><path d="M-940-714c0-3.3 2.7-6 6-6h1948c3.3 0 6 2.7 6 6v2888c0 3.3-2.7 6-6 6H-934c-3.3 0-6-2.7-6-6z" stroke="#5e5e5e" stroke-width="3" fill="none"/><g><use xlink:href="#ak" transform="matrix(1,0,0,1,-932,-720) translate(0 24.888888888888893)"/><use xlink:href="#al" transform="matrix(1,0,0,1,-932,-720) translate(43.20987654320988 24.888888888888893)"/><use xlink:href="#am" transform="matrix(1,0,0,1,-932,-720) translate(118.0493827160494 24.888888888888893)"/></g><defs><path fill="#333" d="M30-248c87 1 191-15 191 75 0 78-77 80-158 76V0H30v-248zm33 125c57 0 124 11 124-50 0-59-68-47-124-48v98" id="an"/><path fill="#333" d="M100-194c62-1 85 37 85 99 1 63-27 99-86 99S16-35 15-95c0-66 28-99 85-99zM99-20c44 1 53-31 53-75 0-43-8-75-51-75s-53 32-53 75 10 74 51 75" id="ao"/><path fill="#333" d="M143 0L79-87 56-68V0H24v-261h32v163l83-92h37l-77 82L181 0h-38" id="ap"/><path fill="#333" d="M141-36C126-15 110 5 73 4 37 3 15-17 15-53c-1-64 63-63 125-63 3-35-9-54-41-54-24 1-41 7-42 31l-33-3c5-37 33-52 76-52 45 0 72 20 72 64v82c-1 20 7 32 28 27v20c-31 9-61-2-59-35zM48-53c0 20 12 33 32 33 41-3 63-29 60-74-43 2-92-5-92 41" id="aq"/><path fill="#333" d="M9 0v-24l116-142H16v-24h144v24L44-24h123V0H9" id="ar"/><path fill="#333" d="M84 4C-5 8 30-112 23-190h32v120c0 31 7 50 39 49 72-2 45-101 50-169h31l1 190h-30c-1-10 1-25-2-33-11 22-28 36-60 37" id="as"/><path fill="#333" d="M24-231v-30h32v30H24zM-9 49c24 4 33-6 33-30v-209h32V24c2 40-23 58-65 49V49" id="at"/><path fill="#333" d="M100-194c63 0 86 42 84 106H49c0 40 14 67 53 68 26 1 43-12 49-29l28 8c-11 28-37 45-77 45C44 4 14-33 15-96c1-61 26-98 85-98zm52 81c6-60-76-77-97-28-3 7-6 17-6 28h103" id="au"/><g id="a"><use transform="matrix(0.08641975308641976,0,0,0.08641975308641976,0,0)" xlink:href="#an"/><use transform="matrix(0.08641975308641976,0,0,0.08641975308641976,20.740740740740744,0)" xlink:href="#ao"/><use transform="matrix(0.08641975308641976,0,0,0.08641975308641976,38.0246913580247,0)" xlink:href="#ap"/><use transform="matrix(0.08641975308641976,0,0,0.08641975308641976,53.580246913580254,0)" xlink:href="#aq"/><use transform="matrix(0.08641975308641976,0,0,0.08641975308641976,70.8641975308642,0)" xlink:href="#ar"/><use transform="matrix(0.08641975308641976,0,0,0.08641975308641976,86.41975308641976,0)" xlink:href="#as"/><use transform="matrix(0.08641975308641976,0,0,0.08641975308641976,103.70370370370371,0)" xlink:href="#at"/><use transform="matrix(0.08641975308641976,0,0,0.08641975308641976,110.53086419753087,0)" xlink:href="#au"/></g><path fill="#333" d="M85-194c31 0 48 13 60 33l-1-100h32l1 261h-30c-2-10 0-23-3-31C134-8 116 4 85 4 32 4 16-35 15-94c0-66 23-100 70-100zm9 24c-40 0-46 34-46 75 0 40 6 74 45 74 42 0 51-32 51-76 0-42-9-74-50-73" id="av"/><path fill="#333" d="M135-143c-3-34-86-38-87 0 15 53 115 12 119 90S17 21 10-45l28-5c4 36 97 45 98 0-10-56-113-15-118-90-4-57 82-63 122-42 12 7 21 19 24 35" id="aw"/><path fill="#333" d="M59-47c-2 24 18 29 38 22v24C64 9 27 4 27-40v-127H5v-23h24l9-43h21v43h35v23H59v120" id="ax"/><path fill="#333" d="M100-194c63 0 86 42 84 106H49c0 40 14 67 53 68 26 1 43-12 49-29l28 8c-11 28-37 45-77 45C44 4 14-33 15-96c1-61 26-98 85-98zm52 81c6-60-76-77-97-28-3 7-6 17-6 28h103zM106 40c-1 20 24 18 37 12v18c-24 11-66 4-62-28 3-27 17-46 51-42-13 8-25 19-26 40" id="ay"/><path fill="#333" d="M115-194c55 1 70 41 70 98S169 2 115 4C84 4 66-9 55-30l1 105H24l-1-265h31l2 30c10-21 28-34 59-34zm-8 174c40 0 45-34 45-75s-6-73-45-74c-42 0-51 32-51 76 0 43 10 73 51 73" id="az"/><path fill="#333" d="M117-194c89-4 53 116 60 194h-32v-121c0-31-8-49-39-48C34-167 62-67 57 0H25l-1-190h30c1 10-1 24 2 32 11-22 29-35 61-36" id="aA"/><g id="b"><use transform="matrix(0.08641975308641976,0,0,0.08641975308641976,0,0)" xlink:href="#av"/><use transform="matrix(0.08641975308641976,0,0,0.08641975308641976,17.283950617283953,0)" xlink:href="#ao"/><use transform="matrix(0.08641975308641976,0,0,0.08641975308641976,34.567901234567906,0)" xlink:href="#aw"/><use transform="matrix(0.08641975308641976,0,0,0.08641975308641976,50.12345679012346,0)" xlink:href="#ax"/><use transform="matrix(0.08641975308641976,0,0,0.08641975308641976,58.76543209876544,0)" xlink:href="#ay"/><use transform="matrix(0.08641975308641976,0,0,0.08641975308641976,76.0493827160494,0)" xlink:href="#az"/><use transform="matrix(0.08641975308641976,0,0,0.08641975308641976,93.33333333333334,0)" xlink:href="#aA"/><use transform="matrix(0.08641975308641976,0,0,0.08641975308641976,110.61728395061729,0)" xlink:href="#au"/></g><path fill="#333" d="M210-169c-67 3-38 105-44 169h-31v-121c0-29-5-50-35-48C34-165 62-65 56 0H25l-1-190h30c1 10-1 24 2 32 10-44 99-50 107 0 11-21 27-35 58-36 85-2 47 119 55 194h-31v-121c0-29-5-49-35-48" id="aB"/><path fill="#333" d="M24 0v-261h32V0H24" id="aC"/><g id="c"><use transform="matrix(0.08641975308641976,0,0,0.08641975308641976,0,0)" xlink:href="#aB"/><use transform="matrix(0.08641975308641976,0,0,0.08641975308641976,25.83950617283951,0)" xlink:href="#ao"/><use transform="matrix(0.08641975308641976,0,0,0.08641975308641976,43.12345679012346,0)" xlink:href="#av"/><use transform="matrix(0.08641975308641976,0,0,0.08641975308641976,60.407407407407426,0)" xlink:href="#au"/><use transform="matrix(0.08641975308641976,0,0,0.08641975308641976,77.69135802469137,0)" xlink:href="#aC"/><use transform="matrix(0.08641975308641976,0,0,0.08641975308641976,84.51851851851853,0)" xlink:href="#au"/></g><path fill="#333" d="M114-163C36-179 61-72 57 0H25l-1-190h30c1 12-1 29 2 39 6-27 23-49 58-41v29" id="aD"/><path fill="#333" d="M206 0h-36l-40-164L89 0H53L-1-190h32L70-26l43-164h34l41 164 42-164h31" id="aE"/><path fill="#333" d="M100-194c62-1 85 37 85 99 1 63-27 99-86 99S16-35 15-95c0-66 28-99 85-99zM99-20c44 1 53-31 53-75 0-43-8-75-51-75s-53 32-53 75 10 74 51 75zM76-211c8-23 27-35 38-54h36v5l-58 49H76" id="aF"/><g id="d"><use transform="matrix(0.08641975308641976,0,0,0.08641975308641976,0,0)" xlink:href="#aD"/><use transform="matrix(0.08641975308641976,0,0,0.08641975308641976,10.283950617283951,0)" xlink:href="#ao"/><use transform="matrix(0.08641975308641976,0,0,0.08641975308641976,27.567901234567906,0)" xlink:href="#aE"/><use transform="matrix(0.08641975308641976,0,0,0.08641975308641976,49.95061728395062,0)" xlink:href="#au"/><use transform="matrix(0.08641975308641976,0,0,0.08641975308641976,67.23456790123457,0)" xlink:href="#aD"/><use transform="matrix(0.08641975308641976,0,0,0.08641975308641976,77.51851851851852,0)" xlink:href="#aF"/><use transform="matrix(0.08641975308641976,0,0,0.08641975308641976,94.80246913580245,0)" xlink:href="#aE"/></g><path fill="#333" d="M194 0L95-120 63-95V0H30v-248h33v124l119-124h40L117-140 236 0h-42" id="aG"/><path fill="#333" d="M24-231v-30h32v30H24zM24 0v-190h32V0H24" id="aH"/><g id="e"><use transform="matrix(0.08641975308641976,0,0,0.08641975308641976,0,0)" xlink:href="#aG"/><use transform="matrix(0.08641975308641976,0,0,0.08641975308641976,20.740740740740744,0)" xlink:href="#aC"/><use transform="matrix(0.08641975308641976,0,0,0.08641975308641976,27.567901234567906,0)" xlink:href="#aH"/><use transform="matrix(0.08641975308641976,0,0,0.08641975308641976,34.39506172839506,0)" xlink:href="#au"/><use transform="matrix(0.08641975308641976,0,0,0.08641975308641976,51.679012345679006,0)" xlink:href="#aA"/><use transform="matrix(0.08641975308641976,0,0,0.08641975308641976,68.96296296296296,0)" xlink:href="#ax"/></g><path fill="#333" d="M185-189c-5-48-123-54-124 2 14 75 158 14 163 119 3 78-121 87-175 55-17-10-28-26-33-46l33-7c5 56 141 63 141-1 0-78-155-14-162-118-5-82 145-84 179-34 5 7 8 16 11 25" id="aI"/><path fill="#333" d="M179-190L93 31C79 59 56 82 12 73V49c39 6 53-20 64-50L1-190h34L92-34l54-156h33" id="aJ"/><g id="f"><use transform="matrix(0.08641975308641976,0,0,0.08641975308641976,0,0)" xlink:href="#aI"/><use transform="matrix(0.08641975308641976,0,0,0.08641975308641976,20.740740740740744,0)" xlink:href="#aJ"/><use transform="matrix(0.08641975308641976,0,0,0.08641975308641976,36.296296296296305,0)" xlink:href="#aw"/><use transform="matrix(0.08641975308641976,0,0,0.08641975308641976,51.851851851851855,0)" xlink:href="#ax"/><use transform="matrix(0.08641975308641976,0,0,0.08641975308641976,60.49382716049384,0)" xlink:href="#au"/><use transform="matrix(0.08641975308641976,0,0,0.08641975308641976,77.77777777777779,0)" xlink:href="#aB"/></g><path fill="#333" d="M30-248c118-7 216 8 213 122C240-48 200 0 122 0H30v-248zM63-27c89 8 146-16 146-99s-60-101-146-95v194" id="aK"/><g id="g"><use transform="matrix(0.08641975308641976,0,0,0.08641975308641976,0,0)" xlink:href="#aK"/><use transform="matrix(0.08641975308641976,0,0,0.08641975308641976,22.38271604938272,0)" xlink:href="#ao"/><use transform="matrix(0.08641975308641976,0,0,0.08641975308641976,39.66666666666667,0)" xlink:href="#av"/><use transform="matrix(0.08641975308641976,0,0,0.08641975308641976,56.95061728395062,0)" xlink:href="#aq"/><use transform="matrix(0.08641975308641976,0,0,0.08641975308641976,74.23456790123457,0)" xlink:href="#at"/></g><g id="h"><use transform="matrix(0.08641975308641976,0,0,0.08641975308641976,0,0)" xlink:href="#aD"/><use transform="matrix(0.08641975308641976,0,0,0.08641975308641976,10.283950617283951,0)" xlink:href="#ao"/><use transform="matrix(0.08641975308641976,0,0,0.08641975308641976,27.567901234567906,0)" xlink:href="#aE"/><use transform="matrix(0.08641975308641976,0,0,0.08641975308641976,49.95061728395062,0)" xlink:href="#au"/><use transform="matrix(0.08641975308641976,0,0,0.08641975308641976,67.23456790123457,0)" xlink:href="#aD"/></g><g id="i"><use transform="matrix(0.08641975308641976,0,0,0.08641975308641976,0,0)" xlink:href="#av"/><use transform="matrix(0.08641975308641976,0,0,0.08641975308641976,17.283950617283953,0)" xlink:href="#ao"/></g><path fill="#333" d="M177-190C167-65 218 103 67 71c-23-6-38-20-44-43l32-5c15 47 100 32 89-28v-30C133-14 115 1 83 1 29 1 15-40 15-95c0-56 16-97 71-98 29-1 48 16 59 35 1-10 0-23 2-32h30zM94-22c36 0 50-32 50-73 0-42-14-75-50-75-39 0-46 34-46 75s6 73 46 73" id="aL"/><g id="j"><use transform="matrix(0.08641975308641976,0,0,0.08641975308641976,0,0)" xlink:href="#aw"/><use transform="matrix(0.08641975308641976,0,0,0.08641975308641976,15.555555555555557,0)" xlink:href="#aE"/><use transform="matrix(0.08641975308641976,0,0,0.08641975308641976,37.93827160493828,0)" xlink:href="#ao"/><use transform="matrix(0.08641975308641976,0,0,0.08641975308641976,55.22222222222223,0)" xlink:href="#at"/><use transform="matrix(0.08641975308641976,0,0,0.08641975308641976,62.04938271604939,0)" xlink:href="#au"/><use transform="matrix(0.08641975308641976,0,0,0.08641975308641976,79.33333333333334,0)" xlink:href="#aL"/><use transform="matrix(0.08641975308641976,0,0,0.08641975308641976,96.61728395061729,0)" xlink:href="#ao"/></g><g id="k"><use transform="matrix(0.08641975308641976,0,0,0.08641975308641976,0,0)" xlink:href="#ar"/><use transform="matrix(0.08641975308641976,0,0,0.08641975308641976,15.555555555555557,0)" xlink:href="#aq"/><use transform="matrix(0.08641975308641976,0,0,0.08641975308641976,32.839506172839506,0)" xlink:href="#aB"/><use transform="matrix(0.08641975308641976,0,0,0.08641975308641976,58.679012345679006,0)" xlink:href="#aF"/><use transform="matrix(0.08641975308641976,0,0,0.08641975308641976,75.96296296296296,0)" xlink:href="#aE"/><use transform="matrix(0.08641975308641976,0,0,0.08641975308641976,98.34567901234568,0)" xlink:href="#aH"/><use transform="matrix(0.08641975308641976,0,0,0.08641975308641976,105.17283950617285,0)" xlink:href="#au"/><use transform="matrix(0.08641975308641976,0,0,0.08641975308641976,122.4567901234568,0)" xlink:href="#aA"/><use transform="matrix(0.08641975308641976,0,0,0.08641975308641976,139.74074074074076,0)" xlink:href="#aH"/><use transform="matrix(0.08641975308641976,0,0,0.08641975308641976,146.56790123456793,0)" xlink:href="#aq"/></g><path fill="#333" d="M20 75v-336h95v34H67V41h48v34H20" id="aM"/><path fill="#333" d="M136-208V0H84v-208H4v-40h212v40h-80" id="aN"/><path fill="#333" d="M199 0l-22-63H83L61 0H9l90-248h61L250 0h-51zm-33-102l-36-108c-10 38-24 72-36 108h72" id="aO"/><path fill="#333" d="M195 0l-88-114-31 24V0H24v-248h52v113l112-113h60L142-143 257 0h-62" id="aP"/><path fill="#333" d="M4 75V41h49v-268H4v-34h96V75H4" id="aQ"/><g id="l"><use transform="matrix(0.08641975308641976,0,0,0.08641975308641976,0,0)" xlink:href="#aM"/><use transform="matrix(0.08641975308641976,0,0,0.08641975308641976,10.283950617283951,0)" xlink:href="#aN"/><use transform="matrix(0.08641975308641976,0,0,0.08641975308641976,26.876543209876544,0)" xlink:href="#aO"/><use transform="matrix(0.08641975308641976,0,0,0.08641975308641976,49.25925925925927,0)" xlink:href="#aP"/><use transform="matrix(0.08641975308641976,0,0,0.08641975308641976,71.64197530864199,0)" xlink:href="#aQ"/></g><path fill="#333" d="M175 0L67-191c6 58 2 128 3 191H24v-248h59L193-55c-6-58-2-129-3-193h46V0h-61" id="aR"/><path fill="#333" d="M24 0v-248h52V0H24" id="aS"/><path fill="#333" d="M24 0v-248h195v40H76v63h132v40H76v65h150V0H24" id="aT"/><g id="m"><use transform="matrix(0.08641975308641976,0,0,0.08641975308641976,0,0)" xlink:href="#aM"/><use transform="matrix(0.08641975308641976,0,0,0.08641975308641976,10.283950617283951,0)" xlink:href="#aR"/><use transform="matrix(0.08641975308641976,0,0,0.08641975308641976,32.66666666666667,0)" xlink:href="#aS"/><use transform="matrix(0.08641975308641976,0,0,0.08641975308641976,41.308641975308646,0)" xlink:href="#aT"/><use transform="matrix(0.08641975308641976,0,0,0.08641975308641976,62.04938271604939,0)" xlink:href="#aQ"/></g><path fill="#333" d="M212-179c-10-28-35-45-73-45-59 0-87 40-87 99 0 60 29 101 89 101 43 0 62-24 78-52l27 14C228-24 195 4 139 4 59 4 22-46 18-125c-6-104 99-153 187-111 19 9 31 26 39 46" id="aU"/><g id="n"><use transform="matrix(0.08641975308641976,0,0,0.08641975308641976,0,0)" xlink:href="#aU"/><use transform="matrix(0.08641975308641976,0,0,0.08641975308641976,22.38271604938272,0)" xlink:href="#ar"/><use transform="matrix(0.08641975308641976,0,0,0.08641975308641976,37.93827160493828,0)" xlink:href="#aJ"/></g><g id="o"><use transform="matrix(0.08641975308641976,0,0,0.08641975308641976,0,0)" xlink:href="#ap"/><use transform="matrix(0.08641975308641976,0,0,0.08641975308641976,15.555555555555557,0)" xlink:href="#aC"/><use transform="matrix(0.08641975308641976,0,0,0.08641975308641976,22.38271604938272,0)" xlink:href="#aH"/><use transform="matrix(0.08641975308641976,0,0,0.08641975308641976,29.20987654320988,0)" xlink:href="#au"/><use transform="matrix(0.08641975308641976,0,0,0.08641975308641976,46.49382716049383,0)" xlink:href="#aA"/><use transform="matrix(0.08641975308641976,0,0,0.08641975308641976,63.777777777777786,0)" xlink:href="#ax"/></g><path fill="#333" d="M24 0v-95L3-83v-28l21-12v-138h32v120l22-13v28l-22 12V0H24" id="aV"/><g id="p"><use transform="matrix(0.08641975308641976,0,0,0.08641975308641976,0,0)" xlink:href="#ar"/><use transform="matrix(0.08641975308641976,0,0,0.08641975308641976,15.555555555555557,0)" xlink:href="#aA"/><use transform="matrix(0.08641975308641976,0,0,0.08641975308641976,32.839506172839506,0)" xlink:href="#aq"/><use transform="matrix(0.08641975308641976,0,0,0.08641975308641976,50.123456790123456,0)" xlink:href="#aC"/><use transform="matrix(0.08641975308641976,0,0,0.08641975308641976,56.95061728395062,0)" xlink:href="#aq"/><use transform="matrix(0.08641975308641976,0,0,0.08641975308641976,74.23456790123457,0)" xlink:href="#ar"/><use transform="matrix(0.08641975308641976,0,0,0.08641975308641976,89.79012345679013,0)" xlink:href="#aV"/></g><g id="q"><use transform="matrix(0.08641975308641976,0,0,0.08641975308641976,0,0)" xlink:href="#ao"/><use transform="matrix(0.08641975308641976,0,0,0.08641975308641976,17.283950617283953,0)" xlink:href="#av"/><use transform="matrix(0.08641975308641976,0,0,0.08641975308641976,34.567901234567906,0)" xlink:href="#az"/><use transform="matrix(0.08641975308641976,0,0,0.08641975308641976,51.851851851851855,0)" xlink:href="#ao"/><use transform="matrix(0.08641975308641976,0,0,0.08641975308641976,69.13580246913581,0)" xlink:href="#aE"/><use transform="matrix(0.08641975308641976,0,0,0.08641975308641976,91.51851851851853,0)" xlink:href="#aH"/><use transform="matrix(0.08641975308641976,0,0,0.08641975308641976,98.34567901234568,0)" xlink:href="#au"/><use transform="matrix(0.08641975308641976,0,0,0.08641975308641976,115.62962962962965,0)" xlink:href="#av"/><use transform="matrix(0.08641975308641976,0,0,0.08641975308641976,132.9135802469136,0)" xlink:href="#aA"/><use transform="matrix(0.08641975308641976,0,0,0.08641975308641976,150.19753086419755,0)" xlink:href="#aH"/></g><path fill="#333" d="M103-251c84 0 111 97 45 133-19 10-37 24-39 52H78c0-63 77-55 77-114 0-30-21-42-52-43-32 0-53 17-56 46l-32-2c7-45 34-72 88-72zM77 0v-35h34V0H77" id="aW"/><g id="r"><use transform="matrix(0.08641975308641976,0,0,0.08641975308641976,0,0)" xlink:href="#aB"/><use transform="matrix(0.08641975308641976,0,0,0.08641975308641976,25.83950617283951,0)" xlink:href="#ao"/><use transform="matrix(0.08641975308641976,0,0,0.08641975308641976,43.12345679012346,0)" xlink:href="#av"/><use transform="matrix(0.08641975308641976,0,0,0.08641975308641976,60.407407407407426,0)" xlink:href="#au"/><use transform="matrix(0.08641975308641976,0,0,0.08641975308641976,77.69135802469137,0)" xlink:href="#aC"/><use transform="matrix(0.08641975308641976,0,0,0.08641975308641976,84.51851851851853,0)" xlink:href="#aW"/></g><path fill="#333" d="M101-234c-31-9-42 10-38 44h38v23H63V0H32v-167H5v-23h27c-7-52 17-82 69-68v24" id="aX"/><path fill="#333" d="M96-169c-40 0-48 33-48 73s9 75 48 75c24 0 41-14 43-38l32 2c-6 37-31 61-74 61-59 0-76-41-82-99-10-93 101-131 147-64 4 7 5 14 7 22l-32 3c-4-21-16-35-41-35" id="aY"/><g id="s"><use transform="matrix(0.08641975308641976,0,0,0.08641975308641976,0,0)" xlink:href="#aH"/><use transform="matrix(0.08641975308641976,0,0,0.08641975308641976,6.8271604938271615,0)" xlink:href="#aA"/><use transform="matrix(0.08641975308641976,0,0,0.08641975308641976,24.111111111111114,0)" xlink:href="#aX"/><use transform="matrix(0.08641975308641976,0,0,0.08641975308641976,32.75308641975309,0)" xlink:href="#ao"/><use transform="matrix(0.08641975308641976,0,0,0.08641975308641976,50.037037037037045,0)" xlink:href="#aD"/><use transform="matrix(0.08641975308641976,0,0,0.08641975308641976,60.32098765432099,0)" xlink:href="#aB"/><use transform="matrix(0.08641975308641976,0,0,0.08641975308641976,86.1604938271605,0)" xlink:href="#aq"/><use transform="matrix(0.08641975308641976,0,0,0.08641975308641976,103.44444444444443,0)" xlink:href="#aY"/><use transform="matrix(0.08641975308641976,0,0,0.08641975308641976,118.99999999999999,0)" xlink:href="#at"/><use transform="matrix(0.08641975308641976,0,0,0.08641975308641976,125.82716049382718,0)" xlink:href="#ay"/></g><use transform="matrix(0.08641975308641976,0,0,0.08641975308641976,0,0)" xlink:href="#ao" id="t"/><path fill="#333" d="M135-143c-3-34-86-38-87 0 15 53 115 12 119 90S17 21 10-45l28-5c4 36 97 45 98 0-10-56-113-15-118-90-4-57 82-63 122-42 12 7 21 19 24 35zm-67-68c8-23 27-35 38-54h36v5l-58 49H68" id="aZ"/><g id="u"><use transform="matrix(0.08641975308641976,0,0,0.08641975308641976,0,0)" xlink:href="#az"/><use transform="matrix(0.08641975308641976,0,0,0.08641975308641976,17.283950617283953,0)" xlink:href="#ao"/><use transform="matrix(0.08641975308641976,0,0,0.08641975308641976,34.567901234567906,0)" xlink:href="#aB"/><use transform="matrix(0.08641975308641976,0,0,0.08641975308641976,60.407407407407426,0)" xlink:href="#aJ"/><use transform="matrix(0.08641975308641976,0,0,0.08641975308641976,75.96296296296298,0)" xlink:href="#aZ"/><use transform="matrix(0.08641975308641976,0,0,0.08641975308641976,91.51851851851853,0)" xlink:href="#aC"/><use transform="matrix(0.08641975308641976,0,0,0.08641975308641976,98.34567901234568,0)" xlink:href="#aA"/><use transform="matrix(0.08641975308641976,0,0,0.08641975308641976,115.62962962962965,0)" xlink:href="#aJ"/><use transform="matrix(0.08641975308641976,0,0,0.08641975308641976,131.18518518518522,0)" xlink:href="#aB"/></g><g id="v"><use transform="matrix(0.08641975308641976,0,0,0.08641975308641976,0,0)" xlink:href="#av"/><use transform="matrix(0.08641975308641976,0,0,0.08641975308641976,17.283950617283953,0)" xlink:href="#ao"/><use transform="matrix(0.08641975308641976,0,0,0.08641975308641976,34.567901234567906,0)" xlink:href="#av"/><use transform="matrix(0.08641975308641976,0,0,0.08641975308641976,51.851851851851855,0)" xlink:href="#aq"/><use transform="matrix(0.08641975308641976,0,0,0.08641975308641976,69.13580246913581,0)" xlink:href="#aA"/><use transform="matrix(0.08641975308641976,0,0,0.08641975308641976,86.41975308641976,0)" xlink:href="#aH"/><use transform="matrix(0.08641975308641976,0,0,0.08641975308641976,93.24691358024693,0)" xlink:href="#as"/></g><g id="w"><use transform="matrix(0.08641975308641976,0,0,0.08641975308641976,0,0)" xlink:href="#ap"/><use transform="matrix(0.08641975308641976,0,0,0.08641975308641976,15.555555555555557,0)" xlink:href="#aC"/><use transform="matrix(0.08641975308641976,0,0,0.08641975308641976,22.38271604938272,0)" xlink:href="#aH"/><use transform="matrix(0.08641975308641976,0,0,0.08641975308641976,29.20987654320988,0)" xlink:href="#au"/><use transform="matrix(0.08641975308641976,0,0,0.08641975308641976,46.49382716049383,0)" xlink:href="#aA"/><use transform="matrix(0.08641975308641976,0,0,0.08641975308641976,63.777777777777786,0)" xlink:href="#ax"/></g><path fill="#333" d="M106-169C34-169 62-67 57 0H25v-261h32l-1 103c12-21 28-36 61-36 89 0 53 116 60 194h-32v-121c2-32-8-49-39-48" id="ba"/><g id="x"><use transform="matrix(0.08641975308641976,0,0,0.08641975308641976,0,0)" xlink:href="#aY"/><use transform="matrix(0.08641975308641976,0,0,0.08641975308641976,15.555555555555557,0)" xlink:href="#ba"/><use transform="matrix(0.08641975308641976,0,0,0.08641975308641976,32.839506172839506,0)" xlink:href="#aY"/><use transform="matrix(0.08641975308641976,0,0,0.08641975308641976,48.39506172839506,0)" xlink:href="#au"/></g><path fill="#333" d="M96-169c-40 0-48 33-48 73s9 75 48 75c24 0 41-14 43-38l32 2c-6 37-31 61-74 61-59 0-76-41-82-99-10-93 101-131 147-64 4 7 5 14 7 22l-32 3c-4-21-16-35-41-35zm-20-42c8-23 27-35 38-54h36v5l-58 49H76" id="bb"/><g id="y"><use transform="matrix(0.08641975308641976,0,0,0.08641975308641976,0,0)" xlink:href="#av"/><use transform="matrix(0.08641975308641976,0,0,0.08641975308641976,17.283950617283953,0)" xlink:href="#ao"/><use transform="matrix(0.08641975308641976,0,0,0.08641975308641976,34.567901234567906,0)" xlink:href="#av"/><use transform="matrix(0.08641975308641976,0,0,0.08641975308641976,51.851851851851855,0)" xlink:href="#aq"/><use transform="matrix(0.08641975308641976,0,0,0.08641975308641976,69.13580246913581,0)" xlink:href="#bb"/></g><g id="z"><use transform="matrix(0.08641975308641976,0,0,0.08641975308641976,0,0)" xlink:href="#ap"/><use transform="matrix(0.08641975308641976,0,0,0.08641975308641976,15.555555555555557,0)" xlink:href="#ao"/><use transform="matrix(0.08641975308641976,0,0,0.08641975308641976,32.839506172839506,0)" xlink:href="#aC"/><use transform="matrix(0.08641975308641976,0,0,0.08641975308641976,39.66666666666667,0)" xlink:href="#au"/><use transform="matrix(0.08641975308641976,0,0,0.08641975308641976,56.95061728395062,0)" xlink:href="#at"/><use transform="matrix(0.08641975308641976,0,0,0.08641975308641976,63.777777777777786,0)" xlink:href="#aA"/><use transform="matrix(0.08641975308641976,0,0,0.08641975308641976,81.06172839506173,0)" xlink:href="#aJ"/></g><g id="A"><use transform="matrix(0.08641975308641976,0,0,0.08641975308641976,0,0)" xlink:href="#ar"/><use transform="matrix(0.08641975308641976,0,0,0.08641975308641976,15.555555555555557,0)" xlink:href="#aq"/><use transform="matrix(0.08641975308641976,0,0,0.08641975308641976,32.839506172839506,0)" xlink:href="#aB"/><use transform="matrix(0.08641975308641976,0,0,0.08641975308641976,58.679012345679006,0)" xlink:href="#aF"/><use transform="matrix(0.08641975308641976,0,0,0.08641975308641976,75.96296296296296,0)" xlink:href="#aE"/><use transform="matrix(0.08641975308641976,0,0,0.08641975308641976,98.34567901234568,0)" xlink:href="#aH"/><use transform="matrix(0.08641975308641976,0,0,0.08641975308641976,105.17283950617285,0)" xlink:href="#au"/><use transform="matrix(0.08641975308641976,0,0,0.08641975308641976,122.4567901234568,0)" xlink:href="#aA"/><use transform="matrix(0.08641975308641976,0,0,0.08641975308641976,139.74074074074076,0)" xlink:href="#aH"/><use transform="matrix(0.08641975308641976,0,0,0.08641975308641976,146.56790123456793,0)" xlink:href="#aq"/><use transform="matrix(0.08641975308641976,0,0,0.08641975308641976,163.85185185185188,0)" xlink:href="#aW"/></g><path fill="#333" d="M266 0h-40l-56-210L115 0H75L2-248h35L96-30l15-64 43-154h32l59 218 59-218h35" id="bc"/><path fill="#333" d="M115-194c53 0 69 39 70 98 0 66-23 100-70 100C84 3 66-7 56-30L54 0H23l1-261h32v101c10-23 28-34 59-34zm-8 174c40 0 45-34 45-75 0-40-5-75-45-74-42 0-51 32-51 76 0 43 10 73 51 73" id="bd"/><g id="B"><use transform="matrix(0.08641975308641976,0,0,0.08641975308641976,0,0)" xlink:href="#bc"/><use transform="matrix(0.08641975308641976,0,0,0.08641975308641976,29.03703703703704,0)" xlink:href="#aJ"/><use transform="matrix(0.08641975308641976,0,0,0.08641975308641976,44.592592592592595,0)" xlink:href="#bd"/><use transform="matrix(0.08641975308641976,0,0,0.08641975308641976,61.87654320987654,0)" xlink:href="#aH"/><use transform="matrix(0.08641975308641976,0,0,0.08641975308641976,68.70370370370371,0)" xlink:href="#au"/><use transform="matrix(0.08641975308641976,0,0,0.08641975308641976,85.98765432098766,0)" xlink:href="#aD"/><use transform="matrix(0.08641975308641976,0,0,0.08641975308641976,96.27160493827162,0)" xlink:href="#aq"/></g><path fill="#333" d="M9 0v-24l116-142H16v-24h144v24L44-24h123V0H9zm62-217v-31h32v31H71" id="be"/><g id="C"><use transform="matrix(0.08641975308641976,0,0,0.08641975308641976,0,0)" xlink:href="#az"/><use transform="matrix(0.08641975308641976,0,0,0.08641975308641976,17.283950617283953,0)" xlink:href="#ao"/><use transform="matrix(0.08641975308641976,0,0,0.08641975308641976,34.567901234567906,0)" xlink:href="#ap"/><use transform="matrix(0.08641975308641976,0,0,0.08641975308641976,50.12345679012346,0)" xlink:href="#aq"/><use transform="matrix(0.08641975308641976,0,0,0.08641975308641976,67.40740740740742,0)" xlink:href="#be"/></g><g id="D"><use transform="matrix(0.08641975308641976,0,0,0.08641975308641976,0,0)" xlink:href="#ar"/><use transform="matrix(0.08641975308641976,0,0,0.08641975308641976,15.555555555555557,0)" xlink:href="#aq"/><use transform="matrix(0.08641975308641976,0,0,0.08641975308641976,32.839506172839506,0)" xlink:href="#aB"/><use transform="matrix(0.08641975308641976,0,0,0.08641975308641976,58.679012345679006,0)" xlink:href="#aF"/><use transform="matrix(0.08641975308641976,0,0,0.08641975308641976,75.96296296296296,0)" xlink:href="#aE"/><use transform="matrix(0.08641975308641976,0,0,0.08641975308641976,98.34567901234568,0)" xlink:href="#aH"/><use transform="matrix(0.08641975308641976,0,0,0.08641975308641976,105.17283950617285,0)" xlink:href="#au"/><use transform="matrix(0.08641975308641976,0,0,0.08641975308641976,122.4567901234568,0)" xlink:href="#aA"/><use transform="matrix(0.08641975308641976,0,0,0.08641975308641976,139.74074074074076,0)" xlink:href="#aH"/><use transform="matrix(0.08641975308641976,0,0,0.08641975308641976,146.56790123456793,0)" xlink:href="#au"/></g><g id="E"><use transform="matrix(0.08641975308641976,0,0,0.08641975308641976,0,0)" xlink:href="#aD"/><use transform="matrix(0.08641975308641976,0,0,0.08641975308641976,10.283950617283951,0)" xlink:href="#ao"/><use transform="matrix(0.08641975308641976,0,0,0.08641975308641976,27.567901234567906,0)" xlink:href="#aE"/><use transform="matrix(0.08641975308641976,0,0,0.08641975308641976,49.95061728395062,0)" xlink:href="#au"/><use transform="matrix(0.08641975308641976,0,0,0.08641975308641976,67.23456790123457,0)" xlink:href="#aD"/><use transform="matrix(0.08641975308641976,0,0,0.08641975308641976,77.51851851851852,0)" xlink:href="#aJ"/></g><g id="F"><use transform="matrix(0.08641975308641976,0,0,0.08641975308641976,0,0)" xlink:href="#aE"/><use transform="matrix(0.08641975308641976,0,0,0.08641975308641976,22.38271604938272,0)" xlink:href="#aD"/><use transform="matrix(0.08641975308641976,0,0,0.08641975308641976,32.66666666666667,0)" xlink:href="#aq"/><use transform="matrix(0.08641975308641976,0,0,0.08641975308641976,49.95061728395062,0)" xlink:href="#ar"/></g><use transform="matrix(0.08641975308641976,0,0,0.08641975308641976,0,0)" xlink:href="#ar" id="G"/><g id="H"><use transform="matrix(0.08641975308641976,0,0,0.08641975308641976,0,0)" xlink:href="#aH"/><use transform="matrix(0.08641975308641976,0,0,0.08641975308641976,6.8271604938271615,0)" xlink:href="#aY"/><use transform="matrix(0.08641975308641976,0,0,0.08641975308641976,22.38271604938272,0)" xlink:href="#ba"/></g><path fill="#333" d="M141-36C126-15 110 5 73 4 37 3 15-17 15-53c-1-64 63-63 125-63 3-35-9-54-41-54-24 1-41 7-42 31l-33-3c5-37 33-52 76-52 45 0 72 20 72 64v82c-1 20 7 32 28 27v20c-31 9-61-2-59-35zM48-53c0 20 12 33 32 33 41-3 63-29 60-74-43 2-92-5-92 41zm116 93c-1 20 24 18 37 12v18c-24 11-66 4-62-28 3-27 17-46 51-42-13 8-25 19-26 40" id="bf"/><g id="I"><use transform="matrix(0.08641975308641976,0,0,0.08641975308641976,0,0)" xlink:href="#aY"/><use transform="matrix(0.08641975308641976,0,0,0.08641975308641976,15.555555555555557,0)" xlink:href="#au"/><use transform="matrix(0.08641975308641976,0,0,0.08641975308641976,32.839506172839506,0)" xlink:href="#aA"/><use transform="matrix(0.08641975308641976,0,0,0.08641975308641976,50.123456790123456,0)" xlink:href="#bf"/></g><use transform="matrix(0.08641975308641976,0,0,0.08641975308641976,0,0)" xlink:href="#aH" id="J"/><g id="K"><use transform="matrix(0.08641975308641976,0,0,0.08641975308641976,0,0)" xlink:href="#aH"/><use transform="matrix(0.08641975308641976,0,0,0.08641975308641976,6.8271604938271615,0)" xlink:href="#aC"/><use transform="matrix(0.08641975308641976,0,0,0.08641975308641976,13.654320987654323,0)" xlink:href="#ao"/><use transform="matrix(0.08641975308641976,0,0,0.08641975308641976,30.938271604938276,0)" xlink:href="#aZ"/><use transform="matrix(0.08641975308641976,0,0,0.08641975308641976,46.49382716049383,0)" xlink:href="#aY"/><use transform="matrix(0.08641975308641976,0,0,0.08641975308641976,62.04938271604939,0)" xlink:href="#aH"/><use transform="matrix(0.08641975308641976,0,0,0.08641975308641976,68.87654320987656,0)" xlink:href="#bf"/></g><g id="L"><use transform="matrix(0.08641975308641976,0,0,0.08641975308641976,0,0)" xlink:href="#an"/><use transform="matrix(0.08641975308641976,0,0,0.08641975308641976,20.740740740740744,0)" xlink:href="#ao"/><use transform="matrix(0.08641975308641976,0,0,0.08641975308641976,38.0246913580247,0)" xlink:href="#ax"/><use transform="matrix(0.08641975308641976,0,0,0.08641975308641976,46.66666666666667,0)" xlink:href="#aE"/><use transform="matrix(0.08641975308641976,0,0,0.08641975308641976,69.0493827160494,0)" xlink:href="#aH"/><use transform="matrix(0.08641975308641976,0,0,0.08641975308641976,75.87654320987656,0)" xlink:href="#au"/><use transform="matrix(0.08641975308641976,0,0,0.08641975308641976,93.16049382716051,0)" xlink:href="#aD"/><use transform="matrix(0.08641975308641976,0,0,0.08641975308641976,103.44444444444446,0)" xlink:href="#av"/><use transform="matrix(0.08641975308641976,0,0,0.08641975308641976,120.7283950617284,0)" xlink:href="#ar"/><use transform="matrix(0.08641975308641976,0,0,0.08641975308641976,136.28395061728395,0)" xlink:href="#aq"/></g><g id="M"><use transform="matrix(0.08641975308641976,0,0,0.08641975308641976,0,0)" xlink:href="#ar"/><use transform="matrix(0.08641975308641976,0,0,0.08641975308641976,15.555555555555557,0)" xlink:href="#aq"/><use transform="matrix(0.08641975308641976,0,0,0.08641975308641976,32.839506172839506,0)" xlink:href="#aB"/><use transform="matrix(0.08641975308641976,0,0,0.08641975308641976,58.679012345679006,0)" xlink:href="#aF"/><use transform="matrix(0.08641975308641976,0,0,0.08641975308641976,75.96296296296296,0)" xlink:href="#aE"/><use transform="matrix(0.08641975308641976,0,0,0.08641975308641976,98.34567901234568,0)" xlink:href="#aH"/><use transform="matrix(0.08641975308641976,0,0,0.08641975308641976,105.17283950617285,0)" xlink:href="#au"/><use transform="matrix(0.08641975308641976,0,0,0.08641975308641976,122.4567901234568,0)" xlink:href="#aA"/><use transform="matrix(0.08641975308641976,0,0,0.08641975308641976,139.74074074074076,0)" xlink:href="#aH"/><use transform="matrix(0.08641975308641976,0,0,0.08641975308641976,146.56790123456793,0)" xlink:href="#au"/></g><g id="N"><use transform="matrix(0.08641975308641976,0,0,0.08641975308641976,0,0)" xlink:href="#ap"/><use transform="matrix(0.08641975308641976,0,0,0.08641975308641976,15.555555555555557,0)" xlink:href="#aC"/><use transform="matrix(0.08641975308641976,0,0,0.08641975308641976,22.38271604938272,0)" xlink:href="#aH"/><use transform="matrix(0.08641975308641976,0,0,0.08641975308641976,29.20987654320988,0)" xlink:href="#ap"/><use transform="matrix(0.08641975308641976,0,0,0.08641975308641976,44.76543209876544,0)" xlink:href="#aq"/><use transform="matrix(0.08641975308641976,0,0,0.08641975308641976,62.04938271604939,0)" xlink:href="#at"/><use transform="matrix(0.08641975308641976,0,0,0.08641975308641976,68.87654320987656,0)" xlink:href="#bf"/><use transform="matrix(0.08641975308641976,0,0,0.08641975308641976,86.16049382716051,0)" xlink:href="#aY"/></g><path fill="#333" d="M109-170H84l-4-78h32zm-65 0H19l-4-78h33" id="bg"/><path fill="#333" d="M209 0H11v-25l151-195H24v-28h176v25L50-27h159V0" id="bh"/><g id="O"><use transform="matrix(0.08641975308641976,0,0,0.08641975308641976,0,0)" xlink:href="#bg"/><use transform="matrix(0.08641975308641976,0,0,0.08641975308641976,10.97530864197531,0)" xlink:href="#bh"/><use transform="matrix(0.08641975308641976,0,0,0.08641975308641976,29.901234567901238,0)" xlink:href="#aq"/><use transform="matrix(0.08641975308641976,0,0,0.08641975308641976,47.18518518518519,0)" xlink:href="#az"/><use transform="matrix(0.08641975308641976,0,0,0.08641975308641976,64.46913580246914,0)" xlink:href="#aV"/><use transform="matrix(0.08641975308641976,0,0,0.08641975308641976,71.2962962962963,0)" xlink:href="#aq"/><use transform="matrix(0.08641975308641976,0,0,0.08641975308641976,88.58024691358025,0)" xlink:href="#bb"/><use transform="matrix(0.08641975308641976,0,0,0.08641975308641976,104.13580246913581,0)" xlink:href="#bg"/></g><g id="P"><use transform="matrix(0.08641975308641976,0,0,0.08641975308641976,0,0)" xlink:href="#an"/><use transform="matrix(0.08641975308641976,0,0,0.08641975308641976,20.740740740740744,0)" xlink:href="#aD"/><use transform="matrix(0.08641975308641976,0,0,0.08641975308641976,31.024691358024693,0)" xlink:href="#ar"/><use transform="matrix(0.08641975308641976,0,0,0.08641975308641976,46.580246913580254,0)" xlink:href="#au"/><use transform="matrix(0.08641975308641976,0,0,0.08641975308641976,63.8641975308642,0)" xlink:href="#ap"/><use transform="matrix(0.08641975308641976,0,0,0.08641975308641976,79.41975308641976,0)" xlink:href="#aH"/><use transform="matrix(0.08641975308641976,0,0,0.08641975308641976,86.24691358024693,0)" xlink:href="#au"/><use transform="matrix(0.08641975308641976,0,0,0.08641975308641976,103.53086419753087,0)" xlink:href="#aD"/><use transform="matrix(0.08641975308641976,0,0,0.08641975308641976,113.81481481481482,0)" xlink:href="#ao"/><use transform="matrix(0.08641975308641976,0,0,0.08641975308641976,131.0987654320988,0)" xlink:href="#aE"/><use transform="matrix(0.08641975308641976,0,0,0.08641975308641976,153.4814814814815,0)" xlink:href="#aq"/><use transform="matrix(0.08641975308641976,0,0,0.08641975308641976,170.76543209876544,0)" xlink:href="#aA"/><use transform="matrix(0.08641975308641976,0,0,0.08641975308641976,188.0493827160494,0)" xlink:href="#aH"/><use transform="matrix(0.08641975308641976,0,0,0.08641975308641976,194.87654320987656,0)" xlink:href="#au"/></g><g id="Q"><use transform="matrix(0.08641975308641976,0,0,0.08641975308641976,0,0)" xlink:href="#aA"/><use transform="matrix(0.08641975308641976,0,0,0.08641975308641976,17.283950617283953,0)" xlink:href="#aq"/></g><g id="R"><use transform="matrix(0.08641975308641976,0,0,0.08641975308641976,0,0)" xlink:href="#aw"/><use transform="matrix(0.08641975308641976,0,0,0.08641975308641976,15.555555555555557,0)" xlink:href="#ax"/><use transform="matrix(0.08641975308641976,0,0,0.08641975308641976,24.19753086419753,0)" xlink:href="#aD"/><use transform="matrix(0.08641975308641976,0,0,0.08641975308641976,34.48148148148148,0)" xlink:href="#ao"/><use transform="matrix(0.08641975308641976,0,0,0.08641975308641976,51.76543209876543,0)" xlink:href="#aA"/><use transform="matrix(0.08641975308641976,0,0,0.08641975308641976,69.04938271604938,0)" xlink:href="#ay"/></g><g id="S"><use transform="matrix(0.08641975308641976,0,0,0.08641975308641976,0,0)" xlink:href="#az"/><use transform="matrix(0.08641975308641976,0,0,0.08641975308641976,17.283950617283953,0)" xlink:href="#aV"/><use transform="matrix(0.08641975308641976,0,0,0.08641975308641976,24.111111111111114,0)" xlink:href="#aq"/><use transform="matrix(0.08641975308641976,0,0,0.08641975308641976,41.39506172839506,0)" xlink:href="#ax"/><use transform="matrix(0.08641975308641976,0,0,0.08641975308641976,50.037037037037045,0)" xlink:href="#aA"/><use transform="matrix(0.08641975308641976,0,0,0.08641975308641976,67.32098765432099,0)" xlink:href="#ao"/><use transform="matrix(0.08641975308641976,0,0,0.08641975308641976,84.60493827160494,0)" xlink:href="#aZ"/><use transform="matrix(0.08641975308641976,0,0,0.08641975308641976,100.16049382716048,0)" xlink:href="#aY"/><use transform="matrix(0.08641975308641976,0,0,0.08641975308641976,115.71604938271604,0)" xlink:href="#aH"/></g><g id="T"><use transform="matrix(0.08641975308641976,0,0,0.08641975308641976,0,0)" xlink:href="#bc"/><use transform="matrix(0.08641975308641976,0,0,0.08641975308641976,29.03703703703704,0)" xlink:href="#aJ"/><use transform="matrix(0.08641975308641976,0,0,0.08641975308641976,44.592592592592595,0)" xlink:href="#bd"/><use transform="matrix(0.08641975308641976,0,0,0.08641975308641976,61.87654320987654,0)" xlink:href="#aH"/><use transform="matrix(0.08641975308641976,0,0,0.08641975308641976,68.70370370370371,0)" xlink:href="#au"/><use transform="matrix(0.08641975308641976,0,0,0.08641975308641976,85.98765432098766,0)" xlink:href="#aD"/><use transform="matrix(0.08641975308641976,0,0,0.08641975308641976,96.27160493827162,0)" xlink:href="#ar"/></g><g id="U"><use transform="matrix(0.08641975308641976,0,0,0.08641975308641976,0,0)" xlink:href="#aw"/><use transform="matrix(0.08641975308641976,0,0,0.08641975308641976,15.555555555555557,0)" xlink:href="#az"/><use transform="matrix(0.08641975308641976,0,0,0.08641975308641976,32.839506172839506,0)" xlink:href="#ao"/><use transform="matrix(0.08641975308641976,0,0,0.08641975308641976,50.123456790123456,0)" xlink:href="#aw"/><use transform="matrix(0.08641975308641976,0,0,0.08641975308641976,65.67901234567901,0)" xlink:href="#aF"/><use transform="matrix(0.08641975308641976,0,0,0.08641975308641976,82.96296296296296,0)" xlink:href="#bd"/></g><g id="V"><use transform="matrix(0.08641975308641976,0,0,0.08641975308641976,0,0)" xlink:href="#as"/><use transform="matrix(0.08641975308641976,0,0,0.08641975308641976,17.283950617283953,0)" xlink:href="#ax"/><use transform="matrix(0.08641975308641976,0,0,0.08641975308641976,25.925925925925927,0)" xlink:href="#aD"/><use transform="matrix(0.08641975308641976,0,0,0.08641975308641976,36.20987654320988,0)" xlink:href="#aq"/><use transform="matrix(0.08641975308641976,0,0,0.08641975308641976,53.49382716049383,0)" xlink:href="#aY"/><use transform="matrix(0.08641975308641976,0,0,0.08641975308641976,69.0493827160494,0)" xlink:href="#ao"/><use transform="matrix(0.08641975308641976,0,0,0.08641975308641976,86.33333333333334,0)" xlink:href="#aA"/><use transform="matrix(0.08641975308641976,0,0,0.08641975308641976,103.61728395061729,0)" xlink:href="#ao"/></g><g id="W"><use transform="matrix(0.08641975308641976,0,0,0.08641975308641976,0,0)" xlink:href="#az"/><use transform="matrix(0.08641975308641976,0,0,0.08641975308641976,17.283950617283953,0)" xlink:href="#ao"/><use transform="matrix(0.08641975308641976,0,0,0.08641975308641976,34.567901234567906,0)" xlink:href="#aV"/><use transform="matrix(0.08641975308641976,0,0,0.08641975308641976,41.39506172839506,0)" xlink:href="#bf"/><use transform="matrix(0.08641975308641976,0,0,0.08641975308641976,58.679012345679006,0)" xlink:href="#aY"/><use transform="matrix(0.08641975308641976,0,0,0.08641975308641976,74.23456790123457,0)" xlink:href="#ar"/><use transform="matrix(0.08641975308641976,0,0,0.08641975308641976,89.79012345679013,0)" xlink:href="#au"/><use transform="matrix(0.08641975308641976,0,0,0.08641975308641976,107.07407407407409,0)" xlink:href="#aA"/><use transform="matrix(0.08641975308641976,0,0,0.08641975308641976,124.35802469135801,0)" xlink:href="#aH"/><use transform="matrix(0.08641975308641976,0,0,0.08641975308641976,131.1851851851852,0)" xlink:href="#au"/><use transform="matrix(0.08641975308641976,0,0,0.08641975308641976,148.46913580246914,0)" xlink:href="#aW"/></g><g id="X"><use transform="matrix(0.08641975308641976,0,0,0.08641975308641976,0,0)" xlink:href="#aE"/><use transform="matrix(0.08641975308641976,0,0,0.08641975308641976,22.38271604938272,0)" xlink:href="#aJ"/><use transform="matrix(0.08641975308641976,0,0,0.08641975308641976,37.93827160493828,0)" xlink:href="#bd"/><use transform="matrix(0.08641975308641976,0,0,0.08641975308641976,55.22222222222223,0)" xlink:href="#aD"/><use transform="matrix(0.08641975308641976,0,0,0.08641975308641976,65.50617283950618,0)" xlink:href="#aq"/><use transform="matrix(0.08641975308641976,0,0,0.08641975308641976,82.79012345679013,0)" xlink:href="#aA"/><use transform="matrix(0.08641975308641976,0,0,0.08641975308641976,100.07407407407409,0)" xlink:href="#ao"/></g><g id="Y"><use transform="matrix(0.08641975308641976,0,0,0.08641975308641976,0,0)" xlink:href="#az"/><use transform="matrix(0.08641975308641976,0,0,0.08641975308641976,17.283950617283953,0)" xlink:href="#aV"/><use transform="matrix(0.08641975308641976,0,0,0.08641975308641976,24.111111111111114,0)" xlink:href="#aq"/><use transform="matrix(0.08641975308641976,0,0,0.08641975308641976,41.39506172839506,0)" xlink:href="#ax"/><use transform="matrix(0.08641975308641976,0,0,0.08641975308641976,50.037037037037045,0)" xlink:href="#aA"/><use transform="matrix(0.08641975308641976,0,0,0.08641975308641976,67.32098765432099,0)" xlink:href="#ao"/><use transform="matrix(0.08641975308641976,0,0,0.08641975308641976,84.60493827160494,0)" xlink:href="#aZ"/><use transform="matrix(0.08641975308641976,0,0,0.08641975308641976,100.16049382716048,0)" xlink:href="#aY"/><use transform="matrix(0.08641975308641976,0,0,0.08641975308641976,115.71604938271604,0)" xlink:href="#aH"/><use transform="matrix(0.08641975308641976,0,0,0.08641975308641976,122.54320987654322,0)" xlink:href="#aW"/></g><g id="Z"><use transform="matrix(0.08641975308641976,0,0,0.08641975308641976,0,0)" xlink:href="#aM"/><use transform="matrix(0.08641975308641976,0,0,0.08641975308641976,10.283950617283951,0)" xlink:href="#aN"/><use transform="matrix(0.08641975308641976,0,0,0.08641975308641976,26.876543209876544,0)" xlink:href="#aO"/><use transform="matrix(0.08641975308641976,0,0,0.08641975308641976,49.25925925925927,0)" xlink:href="#aP"/><use transform="matrix(0.08641975308641976,0,0,0.08641975308641976,71.64197530864199,0)" xlink:href="#aQ"/></g><g id="aa"><use transform="matrix(0.08641975308641976,0,0,0.08641975308641976,0,0)" xlink:href="#az"/><use transform="matrix(0.08641975308641976,0,0,0.08641975308641976,17.283950617283953,0)" xlink:href="#aV"/><use transform="matrix(0.08641975308641976,0,0,0.08641975308641976,24.111111111111114,0)" xlink:href="#aq"/><use transform="matrix(0.08641975308641976,0,0,0.08641975308641976,41.39506172839506,0)" xlink:href="#ax"/><use transform="matrix(0.08641975308641976,0,0,0.08641975308641976,50.037037037037045,0)" xlink:href="#aA"/><use transform="matrix(0.08641975308641976,0,0,0.08641975308641976,67.32098765432099,0)" xlink:href="#ao"/><use transform="matrix(0.08641975308641976,0,0,0.08641975308641976,84.60493827160494,0)" xlink:href="#aZ"/><use transform="matrix(0.08641975308641976,0,0,0.08641975308641976,100.16049382716048,0)" xlink:href="#aY"/><use transform="matrix(0.08641975308641976,0,0,0.08641975308641976,115.71604938271604,0)" xlink:href="#aH"/></g><g id="ab"><use transform="matrix(0.08641975308641976,0,0,0.08641975308641976,0,0)" xlink:href="#ar"/><use transform="matrix(0.08641975308641976,0,0,0.08641975308641976,15.555555555555557,0)" xlink:href="#ao"/><use transform="matrix(0.08641975308641976,0,0,0.08641975308641976,32.839506172839506,0)" xlink:href="#aw"/><use transform="matrix(0.08641975308641976,0,0,0.08641975308641976,48.39506172839506,0)" xlink:href="#ax"/><use transform="matrix(0.08641975308641976,0,0,0.08641975308641976,57.03703703703703,0)" xlink:href="#aq"/><use transform="matrix(0.08641975308641976,0,0,0.08641975308641976,74.32098765432099,0)" xlink:href="#aV"/></g><g id="ac"><use transform="matrix(0.08641975308641976,0,0,0.08641975308641976,0,0)" xlink:href="#ar"/><use transform="matrix(0.08641975308641976,0,0,0.08641975308641976,15.555555555555557,0)" xlink:href="#aq"/><use transform="matrix(0.08641975308641976,0,0,0.08641975308641976,32.839506172839506,0)" xlink:href="#aq"/><use transform="matrix(0.08641975308641976,0,0,0.08641975308641976,50.123456790123456,0)" xlink:href="#ap"/><use transform="matrix(0.08641975308641976,0,0,0.08641975308641976,65.67901234567901,0)" xlink:href="#aY"/><use transform="matrix(0.08641975308641976,0,0,0.08641975308641976,81.23456790123457,0)" xlink:href="#au"/><use transform="matrix(0.08641975308641976,0,0,0.08641975308641976,98.5185185185185,0)" xlink:href="#az"/><use transform="matrix(0.08641975308641976,0,0,0.08641975308641976,115.80246913580247,0)" xlink:href="#ax"/><use transform="matrix(0.08641975308641976,0,0,0.08641975308641976,124.44444444444444,0)" xlink:href="#ao"/><use transform="matrix(0.08641975308641976,0,0,0.08641975308641976,141.7283950617284,0)" xlink:href="#aE"/><use transform="matrix(0.08641975308641976,0,0,0.08641975308641976,164.11111111111111,0)" xlink:href="#aq"/><use transform="matrix(0.08641975308641976,0,0,0.08641975308641976,181.3950617283951,0)" xlink:href="#aA"/><use transform="matrix(0.08641975308641976,0,0,0.08641975308641976,198.67901234567898,0)" xlink:href="#aJ"/><use transform="matrix(0.08641975308641976,0,0,0.08641975308641976,214.23456790123458,0)" xlink:href="#aW"/></g><g id="ad"><use transform="matrix(0.08641975308641976,0,0,0.08641975308641976,0,0)" xlink:href="#an"/><use transform="matrix(0.08641975308641976,0,0,0.08641975308641976,20.740740740740744,0)" xlink:href="#aD"/><use transform="matrix(0.08641975308641976,0,0,0.08641975308641976,31.024691358024693,0)" xlink:href="#ar"/><use transform="matrix(0.08641975308641976,0,0,0.08641975308641976,46.580246913580254,0)" xlink:href="#au"/><use transform="matrix(0.08641975308641976,0,0,0.08641975308641976,63.8641975308642,0)" xlink:href="#ax"/><use transform="matrix(0.08641975308641976,0,0,0.08641975308641976,72.50617283950618,0)" xlink:href="#aE"/><use transform="matrix(0.08641975308641976,0,0,0.08641975308641976,94.8888888888889,0)" xlink:href="#aq"/><use transform="matrix(0.08641975308641976,0,0,0.08641975308641976,112.17283950617285,0)" xlink:href="#aD"/><use transform="matrix(0.08641975308641976,0,0,0.08641975308641976,122.4567901234568,0)" xlink:href="#ar"/><use transform="matrix(0.08641975308641976,0,0,0.08641975308641976,138.01234567901236,0)" xlink:href="#aq"/><use transform="matrix(0.08641975308641976,0,0,0.08641975308641976,155.2962962962963,0)" xlink:href="#aA"/><use transform="matrix(0.08641975308641976,0,0,0.08641975308641976,172.58024691358025,0)" xlink:href="#aH"/><use transform="matrix(0.08641975308641976,0,0,0.08641975308641976,179.40740740740742,0)" xlink:href="#au"/></g><g id="ae"><use transform="matrix(0.08641975308641976,0,0,0.08641975308641976,0,0)" xlink:href="#aM"/><use transform="matrix(0.08641975308641976,0,0,0.08641975308641976,10.283950617283951,0)" xlink:href="#aR"/><use transform="matrix(0.08641975308641976,0,0,0.08641975308641976,32.66666666666667,0)" xlink:href="#aS"/><use transform="matrix(0.08641975308641976,0,0,0.08641975308641976,41.308641975308646,0)" xlink:href="#aT"/><use transform="matrix(0.08641975308641976,0,0,0.08641975308641976,62.04938271604939,0)" xlink:href="#aQ"/></g><g id="af"><use transform="matrix(0.08641975308641976,0,0,0.08641975308641976,0,0)" xlink:href="#aL"/><use transform="matrix(0.08641975308641976,0,0,0.08641975308641976,17.283950617283953,0)" xlink:href="#aV"/><use transform="matrix(0.08641975308641976,0,0,0.08641975308641976,24.111111111111114,0)" xlink:href="#aF"/><use transform="matrix(0.08641975308641976,0,0,0.08641975308641976,41.39506172839506,0)" xlink:href="#aE"/><use transform="matrix(0.08641975308641976,0,0,0.08641975308641976,63.777777777777786,0)" xlink:href="#aA"/><use transform="matrix(0.08641975308641976,0,0,0.08641975308641976,81.06172839506173,0)" xlink:href="#bf"/></g><g id="ag"><use transform="matrix(0.08641975308641976,0,0,0.08641975308641976,0,0)" xlink:href="#az"/><use transform="matrix(0.08641975308641976,0,0,0.08641975308641976,17.283950617283953,0)" xlink:href="#aV"/><use transform="matrix(0.08641975308641976,0,0,0.08641975308641976,24.111111111111114,0)" xlink:href="#aq"/><use transform="matrix(0.08641975308641976,0,0,0.08641975308641976,41.39506172839506,0)" xlink:href="#ax"/><use transform="matrix(0.08641975308641976,0,0,0.08641975308641976,50.037037037037045,0)" xlink:href="#aA"/><use transform="matrix(0.08641975308641976,0,0,0.08641975308641976,67.32098765432099,0)" xlink:href="#ao"/><use transform="matrix(0.08641975308641976,0,0,0.08641975308641976,84.60493827160494,0)" xlink:href="#aZ"/><use transform="matrix(0.08641975308641976,0,0,0.08641975308641976,100.16049382716048,0)" xlink:href="#bb"/></g><g id="ah"><use transform="matrix(0.08641975308641976,0,0,0.08641975308641976,0,0)" xlink:href="#az"/><use transform="matrix(0.08641975308641976,0,0,0.08641975308641976,17.283950617283953,0)" xlink:href="#aD"/><use transform="matrix(0.08641975308641976,0,0,0.08641975308641976,27.567901234567906,0)" xlink:href="#ar"/><use transform="matrix(0.08641975308641976,0,0,0.08641975308641976,43.12345679012346,0)" xlink:href="#au"/><use transform="matrix(0.08641975308641976,0,0,0.08641975308641976,60.407407407407426,0)" xlink:href="#ax"/><use transform="matrix(0.08641975308641976,0,0,0.08641975308641976,69.0493827160494,0)" xlink:href="#aE"/><use transform="matrix(0.08641975308641976,0,0,0.08641975308641976,91.4320987654321,0)" xlink:href="#ao"/><use transform="matrix(0.08641975308641976,0,0,0.08641975308641976,108.71604938271606,0)" xlink:href="#aD"/><use transform="matrix(0.08641975308641976,0,0,0.08641975308641976,119.00000000000001,0)" xlink:href="#ar"/><use transform="matrix(0.08641975308641976,0,0,0.08641975308641976,134.55555555555557,0)" xlink:href="#ao"/><use transform="matrix(0.08641975308641976,0,0,0.08641975308641976,151.83950617283952,0)" xlink:href="#aA"/><use transform="matrix(0.08641975308641976,0,0,0.08641975308641976,169.12345679012347,0)" xlink:href="#aq"/></g><g id="ai"><use transform="matrix(0.08641975308641976,0,0,0.08641975308641976,0,0)" xlink:href="#az"/><use transform="matrix(0.08641975308641976,0,0,0.08641975308641976,17.283950617283953,0)" xlink:href="#ao"/><use transform="matrix(0.08641975308641976,0,0,0.08641975308641976,34.567901234567906,0)" xlink:href="#aB"/><use transform="matrix(0.08641975308641976,0,0,0.08641975308641976,60.407407407407426,0)" xlink:href="#aJ"/><use transform="matrix(0.08641975308641976,0,0,0.08641975308641976,75.96296296296298,0)" xlink:href="#aZ"/><use transform="matrix(0.08641975308641976,0,0,0.08641975308641976,91.51851851851853,0)" xlink:href="#aC"/><use transform="matrix(0.08641975308641976,0,0,0.08641975308641976,98.34567901234568,0)" xlink:href="#aA"/><use transform="matrix(0.08641975308641976,0,0,0.08641975308641976,115.62962962962965,0)" xlink:href="#aH"/><use transform="matrix(0.08641975308641976,0,0,0.08641975308641976,122.4567901234568,0)" xlink:href="#au"/><use transform="matrix(0.08641975308641976,0,0,0.08641975308641976,139.74074074074076,0)" xlink:href="#aW"/></g><path fill="#333" d="M185-48c-13 30-37 53-82 52C43 2 14-33 14-96s30-98 90-98c62 0 83 45 84 108H66c0 31 8 55 39 56 18 0 30-7 34-22zm-45-69c5-46-57-63-70-21-2 6-4 13-4 21h74" id="bi"/><path fill="#333" d="M144 0l-44-69L55 0H2l70-98-66-92h53l41 62 40-62h54l-67 91 71 99h-54" id="bj"/><path fill="#333" d="M115-3C79 11 28 4 28-45v-112H4v-33h27l15-45h31v45h36v33H77v99c-1 23 16 31 38 25v30" id="bk"/><g id="aj"><use transform="matrix(0.04938271604938272,0,0,0.04938271604938272,0,0)" xlink:href="#aN"/><use transform="matrix(0.04938271604938272,0,0,0.04938271604938272,9.481481481481481,0)" xlink:href="#bi"/><use transform="matrix(0.04938271604938272,0,0,0.04938271604938272,19.358024691358025,0)" xlink:href="#bj"/><use transform="matrix(0.04938271604938272,0,0,0.04938271604938272,29.23456790123457,0)" xlink:href="#bk"/></g><path d="M141-36C126-15 110 5 73 4 37 3 15-17 15-53c-1-64 63-63 125-63 3-35-9-54-41-54-24 1-41 7-42 31l-33-3c5-37 33-52 76-52 45 0 72 20 72 64v82c-1 20 7 32 28 27v20c-31 9-61-2-59-35zM48-53c0 20 12 33 32 33 41-3 63-29 60-74-43 2-92-5-92 41" id="bl"/><path d="M85-194c31 0 48 13 60 33l-1-100h32l1 261h-30c-2-10 0-23-3-31C134-8 116 4 85 4 32 4 16-35 15-94c0-66 23-100 70-100zm9 24c-40 0-46 34-46 75 0 40 6 74 45 74 42 0 51-32 51-76 0-42-9-74-50-73" id="bm"/><g id="ak"><use transform="matrix(0.08641975308641976,0,0,0.08641975308641976,0,0)" xlink:href="#bl"/><use transform="matrix(0.08641975308641976,0,0,0.08641975308641976,17.283950617283953,0)" xlink:href="#bm"/></g><path d="M109-170H84l-4-78h32zm-65 0H19l-4-78h33" id="bn"/><path d="M9 0v-24l116-142H16v-24h144v24L44-24h123V0H9" id="bo"/><path d="M24 0v-95L3-83v-28l21-12v-138h32v120l22-13v28l-22 12V0H24" id="bp"/><path d="M100-194c62-1 85 37 85 99 1 63-27 99-86 99S16-35 15-95c0-66 28-99 85-99zM99-20c44 1 53-31 53-75 0-43-8-75-51-75s-53 32-53 75 10 74 51 75zM76-211c8-23 27-35 38-54h36v5l-58 49H76" id="bq"/><path d="M9 0v-24l116-142H16v-24h144v24L44-24h123V0H9zm62-217v-31h32v31H71" id="br"/><g id="al"><use transform="matrix(0.08641975308641976,0,0,0.08641975308641976,0,0)" xlink:href="#bn"/><use transform="matrix(0.08641975308641976,0,0,0.08641975308641976,10.97530864197531,0)" xlink:href="#bo"/><use transform="matrix(0.08641975308641976,0,0,0.08641975308641976,26.530864197530867,0)" xlink:href="#bp"/><use transform="matrix(0.08641975308641976,0,0,0.08641975308641976,33.358024691358025,0)" xlink:href="#bq"/><use transform="matrix(0.08641975308641976,0,0,0.08641975308641976,50.64197530864197,0)" xlink:href="#br"/></g><path d="M210-169c-67 3-38 105-44 169h-31v-121c0-29-5-50-35-48C34-165 62-65 56 0H25l-1-190h30c1 10-1 24 2 32 10-44 99-50 107 0 11-21 27-35 58-36 85-2 47 119 55 194h-31v-121c0-29-5-49-35-48" id="bs"/><path d="M206 0h-36l-40-164L89 0H53L-1-190h32L70-26l43-164h34l41 164 42-164h31" id="bt"/><path d="M24-231v-30h32v30H24zM24 0v-190h32V0H24" id="bu"/><path d="M100-194c63 0 86 42 84 106H49c0 40 14 67 53 68 26 1 43-12 49-29l28 8c-11 28-37 45-77 45C44 4 14-33 15-96c1-61 26-98 85-98zm52 81c6-60-76-77-97-28-3 7-6 17-6 28h103" id="bv"/><path d="M117-194c89-4 53 116 60 194h-32v-121c0-31-8-49-39-48C34-167 62-67 57 0H25l-1-190h30c1 10-1 24 2 32 11-22 29-35 61-36" id="bw"/><g id="am"><use transform="matrix(0.08641975308641976,0,0,0.08641975308641976,0,0)" xlink:href="#bo"/><use transform="matrix(0.08641975308641976,0,0,0.08641975308641976,15.555555555555557,0)" xlink:href="#bl"/><use transform="matrix(0.08641975308641976,0,0,0.08641975308641976,32.839506172839506,0)" xlink:href="#bs"/><use transform="matrix(0.08641975308641976,0,0,0.08641975308641976,58.679012345679006,0)" xlink:href="#bq"/><use transform="matrix(0.08641975308641976,0,0,0.08641975308641976,75.96296296296296,0)" xlink:href="#bt"/><use transform="matrix(0.08641975308641976,0,0,0.08641975308641976,98.34567901234568,0)" xlink:href="#bu"/><use transform="matrix(0.08641975308641976,0,0,0.08641975308641976,105.17283950617285,0)" xlink:href="#bv"/><use transform="matrix(0.08641975308641976,0,0,0.08641975308641976,122.4567901234568,0)" xlink:href="#bw"/><use transform="matrix(0.08641975308641976,0,0,0.08641975308641976,139.74074074074076,0)" xlink:href="#bu"/><use transform="matrix(0.08641975308641976,0,0,0.08641975308641976,146.56790123456793,0)" xlink:href="#bv"/><use transform="matrix(0.08641975308641976,0,0,0.08641975308641976,163.85185185185188,0)" xlink:href="#bn"/></g></defs></g></svg>