<svg xmlns="http://www.w3.org/2000/svg" xmlns:xlink="http://www.w3.org/1999/xlink" xmlns:lucid="lucid" width="1380" height="2480.67"><g transform="translate(-880 -1479.3333333333333)" lucid:page-tab-id="f.OJjSadlDXl"><path d="M1019.75 2099.75c0 10.9-8.84 19.75-19.75 19.75-10.9 0-19.75-8.84-19.75-19.75 0-10.9 8.84-19.75 19.75-19.75 10.9 0 19.75 8.84 19.75 19.75z" stroke="#5e5e5e" stroke-width="3" fill="#fff"/><path d="M1000 2119.5v49.3c0 3.3 1.44 8.27 3.2 11.07L1040 2238m-40-63.2l-40 63.2m0-98.75h80" stroke="#5e5e5e" stroke-width="3" fill="none"/><path d="M960 2086c0-3.3 2.7-6 6-6h68c3.3 0 6 2.7 6 6v168c0 3.3-2.7 6-6 6h-68c-3.3 0-6-2.7-6-6z" fill="none"/><use xlink:href="#a" transform="matrix(1,0,0,1,880,2238) translate(89.51234567901234 19.555555555555557)"/><path d="M1019.75 3048.08c0 10.9-8.84 19.75-19.75 19.75-10.9 0-19.75-8.84-19.75-19.75 0-10.9 8.84-19.75 19.75-19.75 10.9 0 19.75 8.84 19.75 19.75z" stroke="#5e5e5e" stroke-width="3" fill="#fff"/><path d="M1000 3067.83v49.3c0 3.3 1.44 8.27 3.2 11.07l36.8 58.13m-40-63.2l-40 63.2m0-98.75h80" stroke="#5e5e5e" stroke-width="3" fill="none"/><path d="M960 3034.33c0-3.3 2.7-6 6-6h68c3.3 0 6 2.7 6 6v168c0 3.3-2.7 6-6 6h-68c-3.3 0-6-2.7-6-6z" fill="none"/><use xlink:href="#b" transform="matrix(1,0,0,1,880,3186.3307086614177) translate(40.63580246913581 23.11111111111111)"/><path d="M1019.75 2639.75c0 10.9-8.84 19.75-19.75 19.75-10.9 0-19.75-8.84-19.75-19.75 0-10.9 8.84-19.75 19.75-19.75 10.9 0 19.75 8.84 19.75 19.75z" stroke="#5e5e5e" stroke-width="3" fill="#fff"/><path d="M1000 2659.5v49.3c0 3.3 1.44 8.27 3.2 11.07L1040 2778m-40-63.2l-40 63.2m0-98.75h80" stroke="#5e5e5e" stroke-width="3" fill="none"/><path d="M960 2626c0-3.3 2.7-6 6-6h68c3.3 0 6 2.7 6 6v168c0 3.3-2.7 6-6 6h-68c-3.3 0-6-2.7-6-6z" fill="none"/><use xlink:href="#c" transform="matrix(1,0,0,1,880,2778) translate(56.72530864197531 23.11111111111111)"/><path d="M1019.75 3499.75c0 10.9-8.84 19.75-19.75 19.75-10.9 0-19.75-8.84-19.75-19.75 0-10.9 8.84-19.75 19.75-19.75 10.9 0 19.75 8.84 19.75 19.75z" stroke="#5e5e5e" stroke-width="3" fill="#fff"/><path d="M1000 3519.5v49.3c0 3.3 1.44 8.27 3.2 11.07L1040 3638m-40-63.2l-40 63.2m0-98.75h80" stroke="#5e5e5e" stroke-width="3" fill="none"/><path d="M960 3486c0-3.3 2.7-6 6-6h68c3.3 0 6 2.7 6 6v168c0 3.3-2.7 6-6 6h-68c-3.3 0-6-2.7-6-6z" fill="none"/><use xlink:href="#d" transform="matrix(1,0,0,1,880,3638) translate(57.567901234567906 23.11111111111111)"/><path d="M1000 3477.5v-213.02" stroke="#5e5e5e" stroke-width="2" fill="none"/><path d="M1001 3478.6l-.92-.1-1.08.03v-1.06h2z" fill="#5e5e5e"/><path d="M1000 3241.96l12.73 21.52h-25.46z" stroke="#5e5e5e" stroke-width="2" fill="#fff"/><path d="M1720 1663c0 34.8-40.3 63-90 63s-90-28.2-90-63 40.3-63 90-63 90 28.2 90 63z" stroke="#5e5e5e" stroke-width="3" fill="#fff"/><use xlink:href="#e" transform="matrix(1,0,0,1,1540,1600) translate(55.74574074074075 30.743333333333332)"/><use xlink:href="#f" transform="matrix(1,0,0,1,1540,1600) translate(24.94666666666668 60.34333333333332)"/><use xlink:href="#g" transform="matrix(1,0,0,1,1540,1600) translate(68.79851851851852 60.34333333333332)"/><use xlink:href="#h" transform="matrix(1,0,0,1,1540,1600) translate(61.94666666666667 89.94333333333331)"/><path d="M1538.46 1664.4l-535.52 504.52-1.37-1.45 535.52-504.5z" fill="#5e5e5e"/><path d="M1002.96 2168.9l-2.93 2.77-1.37-1.46 2.93-2.75zM1538.5 1662.98v.74l.03.62-1.46-1.36 1.47-1.4z" fill="#5e5e5e"/><path d="M2060 3380c0 33.14-35.82 60-80 60s-80-26.86-80-60 35.82-60 80-60 80 26.86 80 60z" stroke="#5e5e5e" stroke-width="3" fill="#fff"/><use xlink:href="#i" transform="matrix(1,0,0,1,1900,3320) translate(30.08925925925927 49.733333333333334)"/><use xlink:href="#h" transform="matrix(1,0,0,1,1900,3320) translate(51.94666666666667 79.33333333333333)"/><path d="M1002.5 3568.68l895.02-188.47M1002.53 3568.67l-3.94.83" stroke="#5e5e5e" stroke-width="2" fill="none"/><path d="M1898.5 3379.98v.43l.03.62-.83.17-.4-1.97 1.23-.26zM2032.48 3330.56l-1.97.37-1.8-9.75 1.97-.36zm-3.63-19.5l-1.96.38-3.64-19.5 1.97-.36zm-5.43-29.23l-1.97.36-3.62-19.5 1.97-.37zm-5.44-29.24l-1.96.35-3.63-19.5 1.96-.36zm-5.43-29.25l-1.97.36-3.62-19.48 1.97-.37zm-5.44-29.25l-1.95.37-3.63-19.5 1.97-.36zm-5.42-29.24l-1.97.37-3.6-19.5 1.95-.36zm-5.44-29.24l-1.96.37-3.63-19.5 1.97-.37zm-5.43-29.24l-1.96.37-3.62-19.5 1.96-.36zm-5.43-29.24l-1.96.36-3.62-19.5 1.97-.36zm-5.43-29.24l-1.97.36-3.62-19.5 1.96-.36zm-5.44-29.24l-1.96.36-3.63-19.5 1.98-.36zm-5.43-29.25l-1.97.38-3.62-19.5 1.96-.36zm-5.44-29.23l-1.97.37-3.62-19.5 1.97-.36zm-5.43-29.24l-1.97.37-3.62-19.5 1.97-.36zm-5.44-29.24l-1.97.35-3.63-19.5 1.97-.36zm-5.43-29.25l-1.97.36-3.62-19.48 1.96-.37zm-5.44-29.24l-1.98.37-3.62-19.5 1.97-.36zm-5.45-29.24l-1.96.37-3.64-19.5 1.97-.36zm-5.43-29.24l-1.97.37-3.62-19.5 1.97-.37zm-5.44-29.24l-1.96.37-3.63-19.5 1.96-.36zm-5.43-29.24l-1.97.37-3.62-19.5 1.97-.35zm-5.44-29.24l-1.95.36-3.63-19.5 1.97-.36zm-5.42-29.24l-1.97.36-3.6-19.5 1.95-.36zm-5.44-29.24l-1.96.36-3.63-19.5 1.97-.36zm-5.43-29.25l-1.96.37-3.62-19.5 1.96-.36zm-5.43-29.24l-1.96.37-3.62-19.5 1.97-.36zm-5.43-29.24l-1.97.36-3.62-19.5 1.96-.36zm-5.44-29.25l-1.96.37-3.63-19.5 1.98-.36zm-5.43-29.24l-1.97.37-3.62-19.5 1.96-.36zm-5.44-29.23l-1.97.36-3.62-19.5 1.97-.36zm-5.43-29.24l-1.97.36-3.62-19.5 1.97-.37zm-10.88-58.5l-1.96.38-3.62-19.5 1.96-.35zm-5.43-29.23l-1.98.37-3.62-19.5 1.97-.36zm-5.45-29.24l-1.96.37-3.64-19.5 1.97-.36zm-5.43-29.24l-1.97.36-3.62-19.5 1.97-.36zm-5.44-29.24l-1.96.36-3.63-19.5 1.96-.36zm-5.43-29.24l-1.97.36-3.62-19.5 1.96-.36zm-5.44-29.25l-1.95.36-3.63-19.5 1.97-.36zm-5.42-29.25l-1.97.37-3.6-19.5 1.95-.36zm-5.44-29.24l-1.96.38-3.63-19.5 1.97-.36zm-5.43-29.23l-1.96.37-3.62-19.5 1.96-.36zm-5.43-29.24l-1.96.36-3.62-19.5 1.97-.37zm-5.43-29.24l-1.97.35-3.62-19.5 1.96-.36zm-5.44-29.25l-1.96.36-3.63-19.48 1.98-.37zm-5.43-29.25l-1.97.37-3.62-19.5 1.96-.36zm-5.44-29.24l-1.97.37-3.62-19.5 1.97-.36zm-5.43-29.24l-1.97.37-3.62-19.5 1.97-.37zm-5.44-29.24l-1.97.36-3.63-19.5 1.97-.35zm-5.44-29.24l-1.96.36-3.63-19.5 1.97-.36zm-5.43-29.24l-1.98.36-3.62-19.5 1.97-.36zm-5.45-29.25l-1.96.37-3.64-19.5 1.97-.36zm-5.43-29.24l-1.97.38-3.62-19.5 1.97-.36zm-5.44-29.23l-1.96.37-3.63-19.5 1.96-.36zm-5.43-29.24l-1.97.37-3.62-19.5 1.96-.36zm-5.44-29.24l-1.95.35-3.63-19.5 1.97-.36zm-5.42-29.25l-1.97.36-1.8-9.73 1.97-.37z" fill="#5e5e5e"/><path d="M1722.67 1663.83l-1.2.22.03-1.03v-.74l-.1-2.3.53-.1zM2039.27 3312.16l-7.44 20.37-14.27-16.33 1.5-1.32 12.05 13.8 6.3-17.2z" fill="#5e5e5e"/><use xlink:href="#j" transform="matrix(1,0,0,1,1790.055811001591,2381.912565943858) translate(0 19.555555555555557)"/><path d="M1563.75 3360c0 33.14-41.13 60-91.88 60-50.74 0-91.87-26.86-91.87-60s41.13-60 91.88-60c50.74 0 91.87 26.86 91.87 60z" stroke="#5e5e5e" stroke-width="3" fill="#fff"/><use xlink:href="#k" transform="matrix(1,0,0,1,1380,3300) translate(25.21333333333335 49.733333333333334)"/><use xlink:href="#l" transform="matrix(1,0,0,1,1380,3300) translate(96.33555555555556 49.733333333333334)"/><use xlink:href="#m" transform="matrix(1,0,0,1,1380,3300) translate(51.079074074074086 79.33333333333333)"/><use xlink:href="#n" transform="matrix(1,0,0,1,1380,3300) translate(85.33833333333334 79.33333333333333)"/><path d="M1377.62 3360.48L1002.4 3568.4" stroke="#5e5e5e" stroke-width="2" fill="none"/><path d="M1378.5 3360l.03 1.13-.44.24-.98-1.75 1.4-.78z" fill="#5e5e5e"/><path d="M1002.43 3568.38l-3.52 1.96" stroke="#5e5e5e" stroke-width="2" fill="none"/><path d="M1720 2191.5c0 33.97-40.3 61.5-90 61.5s-90-27.53-90-61.5 40.3-61.5 90-61.5 90 27.53 90 61.5z" stroke="#5e5e5e" stroke-width="3" fill="#fff"/><use xlink:href="#o" transform="matrix(1,0,0,1,1540,2130) translate(53.40623456790123 65.68055555555556)"/><path d="M1683.75 3140c0 33.14-41.13 60-91.88 60-50.74 0-91.87-26.86-91.87-60s41.13-60 91.88-60c50.74 0 91.87 26.86 91.87 60z" stroke="#5e5e5e" stroke-width="3" fill="#fff"/><use xlink:href="#p" transform="matrix(1,0,0,1,1500,3080) translate(36.79296296296299 49.733333333333334)"/><use xlink:href="#q" transform="matrix(1,0,0,1,1500,3080) translate(26.54944444444447 79.33333333333333)"/><path d="M1523.75 2701.5c0 33.97-41.13 61.5-91.88 61.5-50.74 0-91.87-27.53-91.87-61.5s41.13-61.5 91.88-61.5c50.74 0 91.87 27.53 91.87 61.5z" stroke="#5e5e5e" stroke-width="3" fill="#fff"/><use xlink:href="#r" transform="matrix(1,0,0,1,1340,2640) translate(15.469814814814834 65.85833333333333)"/><use xlink:href="#s" transform="matrix(1,0,0,1,1340,2640) translate(107.07907407407407 65.85833333333333)"/><path d="M1003.9 2715.23l333.6-13.7M1003.93 2715.22l-4.02.17" stroke="#5e5e5e" stroke-width="2" fill="none"/><path d="M1338.5 2701.5l.02 1-1 .04-.1-2 1.1-.04z" fill="#5e5e5e"/><path d="M1002.53 3117.26l494.97 22.7M1002.55 3117.26l-4.02-.2" stroke="#5e5e5e" stroke-width="2" fill="none"/><path d="M1498.53 3139l-.03 1 .02 1-1.1-.05.1-2z" fill="#5e5e5e"/><path d="M1002.53 2168.92l534.97 22.54M1002.55 2168.92l-4.02-.16" stroke="#5e5e5e" stroke-width="2" fill="none"/><path d="M1538.53 2190.5l-.03.98v.7l.02.32-1.1-.04.1-2z" fill="#5e5e5e"/><path d="M1483.75 2895.83c0 36.36-41.13 65.84-91.88 65.84-50.74 0-91.87-29.48-91.87-65.84 0-36.35 41.13-65.83 91.88-65.83 50.74 0 91.87 29.48 91.87 65.83z" stroke="#5e5e5e" stroke-width="3" fill="#fff"/><use xlink:href="#t" transform="matrix(1,0,0,1,1300,2830) translate(52.332777777777785 32.74333333333333)"/><use xlink:href="#u" transform="matrix(1,0,0,1,1300,2830) translate(9.200370370370416 70.74333333333333)"/><path d="M1297.7 2896.43l-295.37 220.18" stroke="#5e5e5e" stroke-width="2" fill="none"/><path d="M1298.5 2895.83l.03 1.23-.26.2-1.2-1.6 1.46-1.1z" fill="#5e5e5e"/><path d="M1002.35 3116.6l-3.23 2.4" stroke="#5e5e5e" stroke-width="2" fill="none"/><path d="M1400 2081.5c0 33.97-40.3 61.5-90 61.5s-90-27.53-90-61.5 40.3-61.5 90-61.5 90 27.53 90 61.5z" stroke="#5e5e5e" stroke-width="3" fill="#fff"/><use xlink:href="#v" transform="matrix(1,0,0,1,1220,2020) translate(32.39080246913579 50.30555555555556)"/><use xlink:href="#w" transform="matrix(1,0,0,1,1220,2020) translate(53.440185185185186 79.63888888888889)"/><path d="M1217.57 2081.87l-215.1 86.64" stroke="#5e5e5e" stroke-width="2" fill="none"/><path d="M1218.5 2081.48v.7l.02.4-.6.23-.75-1.84 1.36-.55z" fill="#5e5e5e"/><path d="M1002.48 2168.5l-3.73 1.5" stroke="#5e5e5e" stroke-width="2" fill="none"/><path d="M1708 1821.5c0 33.97-40.3 61.5-90 61.5s-90-27.53-90-61.5 40.3-61.5 90-61.5 90 27.53 90 61.5z" stroke="#5e5e5e" stroke-width="3" fill="#fff"/><use xlink:href="#x" transform="matrix(1,0,0,1,1528.0032890313773,1760) translate(66.98648148148148 50.30555555555556)"/><use xlink:href="#y" transform="matrix(1,0,0,1,1528.0032890313773,1760) translate(25.634629629629625 79.63888888888889)"/><path d="M1526.22 1822.9l-523.3 346.26-1.1-1.66 523.3-346.28z" fill="#5e5e5e"/><path d="M1526.5 1821.48v.7l.03.5-.33.22-1.1-1.67 1.44-.95zM1002.94 2169.15l-3.36 2.22-1.1-1.67 3.35-2.22zM1710.4 2159.2l-1.98.17-.83-9.75 1.98-.17zm-1.65-19.5l-2 .17-1.45-17.14h2zm-3.95-46.3h-2l-.2-2.3 2-.16zm-1.04-12.2l-2 .16-1.65-19.5 2-.17zm-2.5-29.27l-1.98.17-1.67-19.5 2-.17zm-2.48-29.25l-2 .17-1.66-19.5 2-.17zm-2.5-29.25l-2 .17-1.65-19.5 2-.17zm-2.5-29.26l-1.98.17-1.67-19.5 2-.17zm-2.5-29.25l-1.98.17-1.66-19.5 2-.18zm-2.48-29.25l-2 .17-1.66-19.5 2-.17zm-2.5-29.26l-2 .18-.82-9.75 2-.17z" fill="#5e5e5e"/><path d="M1710.63 2161.68l-.7-.92-1.25-1.44 1.73-.15zM1696.9 1882.6l-1.62 1.16-10.62-14.9-7.95 16.5-1.8-.88 9.42-19.54z" fill="#5e5e5e"/><use xlink:href="#z" transform="matrix(1,0,0,1,1633.857110106735,2093.39493240388) translate(0 19.555555555555557)"/><path d="M1563.75 3660c0 33.14-41.13 60-91.88 60-50.74 0-91.87-26.86-91.87-60s41.13-60 91.88-60c50.74 0 91.87 26.86 91.87 60z" stroke="#5e5e5e" stroke-width="3" fill="#fff"/><use xlink:href="#A" transform="matrix(1,0,0,1,1380,3600) translate(28.605000000000015 49.733333333333334)"/><use xlink:href="#l" transform="matrix(1,0,0,1,1380,3600) translate(92.94388888888889 49.733333333333334)"/><use xlink:href="#B" transform="matrix(1,0,0,1,1380,3600) translate(44.91240740740743 79.33333333333333)"/><use xlink:href="#C" transform="matrix(1,0,0,1,1380,3600) translate(77.8012962962963 79.33333333333333)"/><path d="M1483.75 2471.5c0 33.97-41.13 61.5-91.88 61.5-50.74 0-91.87-27.53-91.87-61.5s41.13-61.5 91.88-61.5c50.74 0 91.87 27.53 91.87 61.5z" stroke="#5e5e5e" stroke-width="3" fill="#fff"/><use xlink:href="#D" transform="matrix(1,0,0,1,1300,2410) translate(24.9938888888889 50.483333333333334)"/><use xlink:href="#l" transform="matrix(1,0,0,1,1300,2410) translate(97.555 50.483333333333334)"/><use xlink:href="#E" transform="matrix(1,0,0,1,1300,2410) translate(28.351296296296322 80.08333333333333)"/><use xlink:href="#F" transform="matrix(1,0,0,1,1300,2410) translate(62.61055555555558 80.08333333333333)"/><path d="M1000.7 2178.3l297.1 292.5M1000.73 2178.32l-2.87-2.82" stroke="#5e5e5e" stroke-width="2" fill="none"/><path d="M1298.54 2470.13l-.04 1.37.03 1.44-1.46-1.45 1.4-1.43zM1525.8 2700.2l-1.85.74-4-9.97 1.87-.74zm-7.97-19.94l-1.85.75-7.98-19.93 1.86-.74zm-11.96-29.9l-1.86.74-7.96-19.93 1.85-.75zm-23.93-59.8l-1.85.73-8-19.94 1.87-.75zm-11.96-29.9l-1.86.73-7.97-19.95 1.86-.74zm-11.96-29.92l-1.86.74-4-9.96 1.87-.75z" fill="#5e5e5e"/><path d="M1527.3 2703.9l-1.86.76-.27-.66.02-.14.05-2.36-.03-1.1.58-.22zM1469.6 2532.7l-1.2 1.58-14.5-11.18-2.8 18.1-2-.3 3.33-21.44z" fill="#5e5e5e"/><use xlink:href="#G" transform="matrix(1,0,0,1,1421.0394332536753,2595.811774267725) translate(0 19.555555555555557)"/><path d="M1377.53 3659.77l-377.9-89.54" stroke="#5e5e5e" stroke-width="2" fill="none"/><path d="M1378.53 3658.98l-.03 1.02.02 1.03-1.25-.3.46-1.94z" fill="#5e5e5e"/><path d="M999.66 3570.24l-3.9-.93" stroke="#5e5e5e" stroke-width="2" fill="none"/><path d="M900 1506c0-3.3 2.7-6 6-6h528c3.3 0 6 2.7 6 6v8c0 3.3-1.9 7.9-4.24 10.24l-1.52 1.52c-2.34 2.34-6.93 4.24-10.24 4.24H906c-3.3 0-6-2.7-6-6z" fill="#fff"/><path d="M1440 1500v20l-10 10H900" stroke="#5e5e5e" stroke-width="3" fill="none"/><path d="M900 1506c0-3.3 2.7-6 6-6h1328c3.3 0 6 2.7 6 6v2428c0 3.3-2.7 6-6 6H906c-3.3 0-6-2.7-6-6z" stroke="#5e5e5e" stroke-width="3" fill="none"/><use xlink:href="#H" transform="matrix(1,0,0,1,908,1500) translate(0 19.88888888888889)"/><use xlink:href="#I" transform="matrix(1,0,0,1,908,1500) translate(33.95061728395062 19.88888888888889)"/><use xlink:href="#J" transform="matrix(1,0,0,1,908,1500) translate(130.77777777777777 19.88888888888889)"/><use xlink:href="#K" transform="matrix(1,0,0,1,908,1500) translate(269.1604938271605 19.88888888888889)"/><use xlink:href="#L" transform="matrix(1,0,0,1,908,1500) translate(366.8024691358025 19.88888888888889)"/><path d="M1180 1576c0-3.3 2.7-6 6-6h968c3.3 0 6 2.7 6 6v2268c0 3.3-2.7 6-6 6h-968c-3.3 0-6-2.7-6-6z" stroke="#5e5e5e" stroke-width="3" fill-opacity="0"/><path d="M1003.83 2715.67L1318.46 2853M1003.85 2715.68l-.94-.4" stroke="#5e5e5e" stroke-width="2" fill="none"/><path d="M1320.2 2852.67l-1.64 1.47-.52-.23.8-1.82z" fill="#5e5e5e"/><path d="M1500 2314.5c0 33.97-40.3 61.5-90 61.5s-90-27.53-90-61.5 40.3-61.5 90-61.5 90 27.53 90 61.5z" stroke="#5e5e5e" stroke-width="3" fill="#fff"/><g><use xlink:href="#M" transform="matrix(1,0,0,1,1320,2253) translate(56.054382716049375 50.30555555555556)"/><use xlink:href="#y" transform="matrix(1,0,0,1,1320,2253) translate(25.634629629629625 79.63888888888889)"/></g><path d="M1002.44 2169.3l315.15 144.78M1002.46 2169.3l-3.66-1.67" stroke="#5e5e5e" stroke-width="2" fill="none"/><path d="M1318.53 2313.4l-.03 1.08v.7l.02.43-1.37-.62.84-1.82z" fill="#5e5e5e"/><path d="M1645.45 2003.36c0 35-41.52 63.36-92.73 63.36-51.2 0-92.72-28.36-92.72-63.36s41.5-63.36 92.72-63.36c51.2 0 92.73 28.37 92.73 63.36z" stroke="#5e5e5e" stroke-width="3" fill="#fff"/><g><use xlink:href="#N" transform="matrix(1,0,0,1,1460,1940) translate(60.65932098765432 30.565555555555555)"/><use xlink:href="#O" transform="matrix(1,0,0,1,1460,1940) translate(45.57598765432098 59.89888888888889)"/><use xlink:href="#P" transform="matrix(1,0,0,1,1460,1940) translate(113.27351851851853 59.89888888888889)"/><use xlink:href="#Q" transform="matrix(1,0,0,1,1460,1940) translate(28.634629629629625 89.23222222222223)"/></g><path d="M1593.08 1932.34l-5.06 9.3-1.76-.96 5.06-9.3zm25.32-46.48l-4.7 8.66h-1.53l-.6-.32 5.08-9.3z" fill="#5e5e5e"/><path d="M1618 1884.5h1.15l-.76 1.38-1.77-.96.25-.45zM1588.15 1939.3l15.72-9.37 1.03 1.7-18.63 11.13-.67-18.9h2z" fill="#5e5e5e"/><g><use xlink:href="#z" transform="matrix(1,0,0,1,1533.3628855841334,1894.5157323648448) translate(0 19.555555555555557)"/></g><path d="M1593.08 1932.34l-5.06 9.3-1.76-.96 5.06-9.3zm25.32-46.48l-4.7 8.66h-1.53l-.6-.32 5.08-9.3z" fill="#5e5e5e"/><path d="M1618.88 1884.98l-.5.9-1.75-.96.5-.9zM1588.15 1939.3l15.72-9.37 1.03 1.7-18.63 11.13-.67-18.9h2z" fill="#5e5e5e"/><g><use xlink:href="#z" transform="matrix(1,0,0,1,1533.3628855841334,1894.5157323648448) translate(0 19.555555555555557)"/></g><path d="M1457.5 2003.52l-9.6 1.52m-9.62 1.52l-19.24 3.05m-9.62 1.53l-19.23 3.04m-9.63 1.52l-19.24 3.04m-9.6 1.52l-9.63 1.52" stroke="#5e5e5e" stroke-width="2" fill="none"/><path d="M1458.5 2003.34v.36l.02.67-.88.14-.3-1.97 1.2-.18z" fill="#5e5e5e"/><path d="M1357.65 2009l-15.4 12.76 18.6 7.36" stroke="#5e5e5e" stroke-width="2" fill="none"/><g><use xlink:href="#R" transform="matrix(1,0,0,1,1306.0528770510673,1979.0694899436858) translate(0 19.555555555555557)"/></g><defs><path fill="#333" d="M194 0L95-120 63-95V0H30v-248h33v124l119-124h40L117-140 236 0h-42" id="S"/><path fill="#333" d="M24 0v-261h32V0H24" id="T"/><path fill="#333" d="M24-231v-30h32v30H24zM24 0v-190h32V0H24" id="U"/><path fill="#333" d="M100-194c63 0 86 42 84 106H49c0 40 14 67 53 68 26 1 43-12 49-29l28 8c-11 28-37 45-77 45C44 4 14-33 15-96c1-61 26-98 85-98zm52 81c6-60-76-77-97-28-3 7-6 17-6 28h103" id="V"/><path fill="#333" d="M117-194c89-4 53 116 60 194h-32v-121c0-31-8-49-39-48C34-167 62-67 57 0H25l-1-190h30c1 10-1 24 2 32 11-22 29-35 61-36" id="W"/><path fill="#333" d="M59-47c-2 24 18 29 38 22v24C64 9 27 4 27-40v-127H5v-23h24l9-43h21v43h35v23H59v120" id="X"/><g id="a"><use transform="matrix(0.06790123456790124,0,0,0.06790123456790124,0,0)" xlink:href="#S"/><use transform="matrix(0.06790123456790124,0,0,0.06790123456790124,16.296296296296298,0)" xlink:href="#T"/><use transform="matrix(0.06790123456790124,0,0,0.06790123456790124,21.660493827160497,0)" xlink:href="#U"/><use transform="matrix(0.06790123456790124,0,0,0.06790123456790124,27.024691358024697,0)" xlink:href="#V"/><use transform="matrix(0.06790123456790124,0,0,0.06790123456790124,40.604938271604944,0)" xlink:href="#W"/><use transform="matrix(0.06790123456790124,0,0,0.06790123456790124,54.18518518518519,0)" xlink:href="#X"/></g><path fill="#333" d="M185-189c-5-48-123-54-124 2 14 75 158 14 163 119 3 78-121 87-175 55-17-10-28-26-33-46l33-7c5 56 141 63 141-1 0-78-155-14-162-118-5-82 145-84 179-34 5 7 8 16 11 25" id="Y"/><path fill="#333" d="M115-194c55 1 70 41 70 98S169 2 115 4C84 4 66-9 55-30l1 105H24l-1-265h31l2 30c10-21 28-34 59-34zm-8 174c40 0 45-34 45-75s-6-73-45-74c-42 0-51 32-51 76 0 43 10 73 51 73" id="Z"/><path fill="#333" d="M114-163C36-179 61-72 57 0H25l-1-190h30c1 12-1 29 2 39 6-27 23-49 58-41v29" id="aa"/><path fill="#333" d="M9 0v-24l116-142H16v-24h144v24L44-24h123V0H9" id="ab"/><path fill="#333" d="M85-194c31 0 48 13 60 33l-1-100h32l1 261h-30c-2-10 0-23-3-31C134-8 116 4 85 4 32 4 16-35 15-94c0-66 23-100 70-100zm9 24c-40 0-46 34-46 75 0 40 6 74 45 74 42 0 51-32 51-76 0-42-9-74-50-73" id="ac"/><path fill="#333" d="M141-36C126-15 110 5 73 4 37 3 15-17 15-53c-1-64 63-63 125-63 3-35-9-54-41-54-24 1-41 7-42 31l-33-3c5-37 33-52 76-52 45 0 72 20 72 64v82c-1 20 7 32 28 27v20c-31 9-61-2-59-35zM48-53c0 20 12 33 32 33 41-3 63-29 60-74-43 2-92-5-92 41" id="ad"/><path fill="#333" d="M206 0h-36l-40-164L89 0H53L-1-190h32L70-26l43-164h34l41 164 42-164h31" id="ae"/><path fill="#333" d="M96-169c-40 0-48 33-48 73s9 75 48 75c24 0 41-14 43-38l32 2c-6 37-31 61-74 61-59 0-76-41-82-99-10-93 101-131 147-64 4 7 5 14 7 22l-32 3c-4-21-16-35-41-35" id="af"/><g id="b"><use transform="matrix(0.08024691358024691,0,0,0.08024691358024691,0,0)" xlink:href="#Y"/><use transform="matrix(0.08024691358024691,0,0,0.08024691358024691,19.25925925925926,0)" xlink:href="#Z"/><use transform="matrix(0.08024691358024691,0,0,0.08024691358024691,35.308641975308646,0)" xlink:href="#aa"/><use transform="matrix(0.08024691358024691,0,0,0.08024691358024691,44.858024691358025,0)" xlink:href="#ab"/><use transform="matrix(0.08024691358024691,0,0,0.08024691358024691,59.30246913580247,0)" xlink:href="#V"/><use transform="matrix(0.08024691358024691,0,0,0.08024691358024691,75.35185185185185,0)" xlink:href="#ac"/><use transform="matrix(0.08024691358024691,0,0,0.08024691358024691,91.40123456790123,0)" xlink:href="#ad"/><use transform="matrix(0.08024691358024691,0,0,0.08024691358024691,107.4506172839506,0)" xlink:href="#ae"/><use transform="matrix(0.08024691358024691,0,0,0.08024691358024691,128.23456790123456,0)" xlink:href="#af"/><use transform="matrix(0.08024691358024691,0,0,0.08024691358024691,142.67901234567898,0)" xlink:href="#ad"/></g><path fill="#333" d="M135-143c-3-34-86-38-87 0 15 53 115 12 119 90S17 21 10-45l28-5c4 36 97 45 98 0-10-56-113-15-118-90-4-57 82-63 122-42 12 7 21 19 24 35" id="ag"/><g id="c"><use transform="matrix(0.08024691358024691,0,0,0.08024691358024691,0,0)" xlink:href="#Y"/><use transform="matrix(0.08024691358024691,0,0,0.08024691358024691,19.25925925925926,0)" xlink:href="#V"/><use transform="matrix(0.08024691358024691,0,0,0.08024691358024691,35.308641975308646,0)" xlink:href="#aa"/><use transform="matrix(0.08024691358024691,0,0,0.08024691358024691,44.858024691358025,0)" xlink:href="#ae"/><use transform="matrix(0.08024691358024691,0,0,0.08024691358024691,65.64197530864197,0)" xlink:href="#U"/><use transform="matrix(0.08024691358024691,0,0,0.08024691358024691,71.98148148148148,0)" xlink:href="#ag"/><use transform="matrix(0.08024691358024691,0,0,0.08024691358024691,86.42592592592592,0)" xlink:href="#ad"/><use transform="matrix(0.08024691358024691,0,0,0.08024691358024691,102.4753086419753,0)" xlink:href="#W"/><use transform="matrix(0.08024691358024691,0,0,0.08024691358024691,118.52469135802468,0)" xlink:href="#X"/></g><path fill="#333" d="M100-194c62-1 85 37 85 99 1 63-27 99-86 99S16-35 15-95c0-66 28-99 85-99zM99-20c44 1 53-31 53-75 0-43-8-75-51-75s-53 32-53 75 10 74 51 75" id="ah"/><path fill="#333" d="M143 0L79-87 56-68V0H24v-261h32v163l83-92h37l-77 82L181 0h-38" id="ai"/><g id="d"><use transform="matrix(0.08024691358024691,0,0,0.08024691358024691,0,0)" xlink:href="#S"/><use transform="matrix(0.08024691358024691,0,0,0.08024691358024691,19.25925925925926,0)" xlink:href="#U"/><use transform="matrix(0.08024691358024691,0,0,0.08024691358024691,25.598765432098762,0)" xlink:href="#V"/><use transform="matrix(0.08024691358024691,0,0,0.08024691358024691,41.64814814814815,0)" xlink:href="#aa"/><use transform="matrix(0.08024691358024691,0,0,0.08024691358024691,51.197530864197525,0)" xlink:href="#ah"/><use transform="matrix(0.08024691358024691,0,0,0.08024691358024691,67.24691358024691,0)" xlink:href="#ae"/><use transform="matrix(0.08024691358024691,0,0,0.08024691358024691,88.03086419753086,0)" xlink:href="#W"/><use transform="matrix(0.08024691358024691,0,0,0.08024691358024691,104.08024691358024,0)" xlink:href="#U"/><use transform="matrix(0.08024691358024691,0,0,0.08024691358024691,110.41975308641975,0)" xlink:href="#ai"/></g><path d="M30-248c87 1 191-15 191 75 0 78-77 80-158 76V0H30v-248zm33 125c57 0 124 11 124-50 0-59-68-47-124-48v98" id="aj"/><path d="M100-194c62-1 85 37 85 99 1 63-27 99-86 99S16-35 15-95c0-66 28-99 85-99zM99-20c44 1 53-31 53-75 0-43-8-75-51-75s-53 32-53 75 10 74 51 75" id="ak"/><path d="M143 0L79-87 56-68V0H24v-261h32v163l83-92h37l-77 82L181 0h-38" id="al"/><path d="M141-36C126-15 110 5 73 4 37 3 15-17 15-53c-1-64 63-63 125-63 3-35-9-54-41-54-24 1-41 7-42 31l-33-3c5-37 33-52 76-52 45 0 72 20 72 64v82c-1 20 7 32 28 27v20c-31 9-61-2-59-35zM48-53c0 20 12 33 32 33 41-3 63-29 60-74-43 2-92-5-92 41" id="am"/><path d="M9 0v-24l116-142H16v-24h144v24L44-24h123V0H9zm62-217v-31h32v31H71" id="an"/><g id="e"><use transform="matrix(0.0685185185185185,0,0,0.0685185185185185,0,0)" xlink:href="#aj"/><use transform="matrix(0.0685185185185185,0,0,0.0685185185185185,16.444444444444443,0)" xlink:href="#ak"/><use transform="matrix(0.0685185185185185,0,0,0.0685185185185185,30.148148148148145,0)" xlink:href="#al"/><use transform="matrix(0.0685185185185185,0,0,0.0685185185185185,42.481481481481474,0)" xlink:href="#am"/><use transform="matrix(0.0685185185185185,0,0,0.0685185185185185,56.185185185185176,0)" xlink:href="#an"/></g><path d="M96-169c-40 0-48 33-48 73s9 75 48 75c24 0 41-14 43-38l32 2c-6 37-31 61-74 61-59 0-76-41-82-99-10-93 101-131 147-64 4 7 5 14 7 22l-32 3c-4-21-16-35-41-35" id="ao"/><path d="M9 0v-24l116-142H16v-24h144v24L44-24h123V0H9" id="ap"/><path d="M179-190L93 31C79 59 56 82 12 73V49c39 6 53-20 64-50L1-190h34L92-34l54-156h33" id="aq"/><g id="f"><use transform="matrix(0.0685185185185185,0,0,0.0685185185185185,0,0)" xlink:href="#ao"/><use transform="matrix(0.0685185185185185,0,0,0.0685185185185185,12.33333333333333,0)" xlink:href="#ap"/><use transform="matrix(0.0685185185185185,0,0,0.0685185185185185,24.66666666666666,0)" xlink:href="#aq"/></g><path d="M115-194c55 1 70 41 70 98S169 2 115 4C84 4 66-9 55-30l1 105H24l-1-265h31l2 30c10-21 28-34 59-34zm-8 174c40 0 45-34 45-75s-6-73-45-74c-42 0-51 32-51 76 0 43 10 73 51 73" id="ar"/><path d="M135-143c-3-34-86-38-87 0 15 53 115 12 119 90S17 21 10-45l28-5c4 36 97 45 98 0-10-56-113-15-118-90-4-57 82-63 122-42 12 7 21 19 24 35" id="as"/><path d="M24-231v-30h32v30H24zM24 0v-190h32V0H24" id="at"/><path d="M85-194c31 0 48 13 60 33l-1-100h32l1 261h-30c-2-10 0-23-3-31C134-8 116 4 85 4 32 4 16-35 15-94c0-66 23-100 70-100zm9 24c-40 0-46 34-46 75 0 40 6 74 45 74 42 0 51-32 51-76 0-42-9-74-50-73" id="au"/><g id="g"><use transform="matrix(0.0685185185185185,0,0,0.0685185185185185,0,0)" xlink:href="#ar"/><use transform="matrix(0.0685185185185185,0,0,0.0685185185185185,13.7037037037037,0)" xlink:href="#ak"/><use transform="matrix(0.0685185185185185,0,0,0.0685185185185185,27.4074074074074,0)" xlink:href="#as"/><use transform="matrix(0.0685185185185185,0,0,0.0685185185185185,39.74074074074073,0)" xlink:href="#at"/><use transform="matrix(0.0685185185185185,0,0,0.0685185185185185,45.1537037037037,0)" xlink:href="#am"/><use transform="matrix(0.0685185185185185,0,0,0.0685185185185185,58.8574074074074,0)" xlink:href="#au"/><use transform="matrix(0.0685185185185185,0,0,0.0685185185185185,72.5611111111111,0)" xlink:href="#am"/></g><path d="M114-163C36-179 61-72 57 0H25l-1-190h30c1 12-1 29 2 39 6-27 23-49 58-41v29" id="av"/><path d="M115-194c53 0 69 39 70 98 0 66-23 100-70 100C84 3 66-7 56-30L54 0H23l1-261h32v101c10-23 28-34 59-34zm-8 174c40 0 45-34 45-75 0-40-5-75-45-74-42 0-51 32-51 76 0 43 10 73 51 73" id="aw"/><path d="M59-47c-2 24 18 29 38 22v24C64 9 27 4 27-40v-127H5v-23h24l9-43h21v43h35v23H59v120" id="ax"/><g id="h"><use transform="matrix(0.0685185185185185,0,0,0.0685185185185185,0,0)" xlink:href="#av"/><use transform="matrix(0.0685185185185185,0,0,0.0685185185185185,8.153703703703702,0)" xlink:href="#am"/><use transform="matrix(0.0685185185185185,0,0,0.0685185185185185,21.8574074074074,0)" xlink:href="#aw"/><use transform="matrix(0.0685185185185185,0,0,0.0685185185185185,35.5611111111111,0)" xlink:href="#am"/><use transform="matrix(0.0685185185185185,0,0,0.0685185185185185,49.264814814814805,0)" xlink:href="#ax"/></g><path d="M100-194c63 0 86 42 84 106H49c0 40 14 67 53 68 26 1 43-12 49-29l28 8c-11 28-37 45-77 45C44 4 14-33 15-96c1-61 26-98 85-98zm52 81c6-60-76-77-97-28-3 7-6 17-6 28h103" id="ay"/><path d="M24 0v-261h32V0H24" id="az"/><g id="i"><use transform="matrix(0.0685185185185185,0,0,0.0685185185185185,0,0)" xlink:href="#aj"/><use transform="matrix(0.0685185185185185,0,0,0.0685185185185185,16.444444444444443,0)" xlink:href="#av"/><use transform="matrix(0.0685185185185185,0,0,0.0685185185185185,24.598148148148145,0)" xlink:href="#ap"/><use transform="matrix(0.0685185185185185,0,0,0.0685185185185185,36.93148148148148,0)" xlink:href="#aq"/><use transform="matrix(0.0685185185185185,0,0,0.0685185185185185,49.264814814814805,0)" xlink:href="#au"/><use transform="matrix(0.0685185185185185,0,0,0.0685185185185185,62.96851851851851,0)" xlink:href="#ap"/><use transform="matrix(0.0685185185185185,0,0,0.0685185185185185,75.30185185185184,0)" xlink:href="#at"/><use transform="matrix(0.0685185185185185,0,0,0.0685185185185185,80.7148148148148,0)" xlink:href="#ay"/><use transform="matrix(0.0685185185185185,0,0,0.0685185185185185,94.4185185185185,0)" xlink:href="#az"/></g><path fill="#333" d="M15-91v-56l181-69v40L49-119l147 57v40" id="aA"/><path fill="#333" d="M185-48c-13 30-37 53-82 52C43 2 14-33 14-96s30-98 90-98c62 0 83 45 84 108H66c0 31 8 55 39 56 18 0 30-7 34-22zm-45-69c5-46-57-63-70-21-2 6-4 13-4 21h74" id="aB"/><path fill="#333" d="M144 0l-44-69L55 0H2l70-98-66-92h53l41 62 40-62h54l-67 91 71 99h-54" id="aC"/><path fill="#333" d="M115-3C79 11 28 4 28-45v-112H4v-33h27l15-45h31v45h36v33H77v99c-1 23 16 31 38 25v30" id="aD"/><path fill="#333" d="M135-194c87-1 58 113 63 194h-50c-7-57 23-157-34-157-59 0-34 97-39 157H25l-1-190h47c2 12-1 28 3 38 12-26 28-41 61-42" id="aE"/><path fill="#333" d="M88-194c31-1 46 15 58 34l-1-101h50l1 261h-48c-2-10 0-23-3-31C134-8 116 4 84 4 32 4 16-41 15-95c0-56 19-97 73-99zm17 164c33 0 40-30 41-66 1-37-9-64-41-64s-38 30-39 65c0 43 13 65 39 65" id="aF"/><path fill="#333" d="M15-22v-40l146-57-146-57v-40l181 69v56" id="aG"/><g id="j"><use transform="matrix(0.06790123456790124,0,0,0.06790123456790124,0,0)" xlink:href="#aA"/><use transform="matrix(0.06790123456790124,0,0,0.06790123456790124,14.259259259259261,0)" xlink:href="#aA"/><use transform="matrix(0.06790123456790124,0,0,0.06790123456790124,28.518518518518523,0)" xlink:href="#aB"/><use transform="matrix(0.06790123456790124,0,0,0.06790123456790124,42.09876543209877,0)" xlink:href="#aC"/><use transform="matrix(0.06790123456790124,0,0,0.06790123456790124,55.67901234567902,0)" xlink:href="#aD"/><use transform="matrix(0.06790123456790124,0,0,0.06790123456790124,63.75925925925927,0)" xlink:href="#aB"/><use transform="matrix(0.06790123456790124,0,0,0.06790123456790124,77.33950617283952,0)" xlink:href="#aE"/><use transform="matrix(0.06790123456790124,0,0,0.06790123456790124,92.20987654320989,0)" xlink:href="#aF"/><use transform="matrix(0.06790123456790124,0,0,0.06790123456790124,107.08024691358025,0)" xlink:href="#aG"/><use transform="matrix(0.06790123456790124,0,0,0.06790123456790124,121.33950617283952,0)" xlink:href="#aG"/></g><path d="M30-248c118-7 216 8 213 122C240-48 200 0 122 0H30v-248zM63-27c89 8 146-16 146-99s-60-101-146-95v194" id="aH"/><path d="M24-231v-30h32v30H24zM-9 49c24 4 33-6 33-30v-209h32V24c2 40-23 58-65 49V49" id="aI"/><g id="k"><use transform="matrix(0.0685185185185185,0,0,0.0685185185185185,0,0)" xlink:href="#aH"/><use transform="matrix(0.0685185185185185,0,0,0.0685185185185185,17.746296296296293,0)" xlink:href="#ak"/><use transform="matrix(0.0685185185185185,0,0,0.0685185185185185,31.449999999999996,0)" xlink:href="#au"/><use transform="matrix(0.0685185185185185,0,0,0.0685185185185185,45.1537037037037,0)" xlink:href="#am"/><use transform="matrix(0.0685185185185185,0,0,0.0685185185185185,58.8574074074074,0)" xlink:href="#aI"/></g><path d="M206 0h-36l-40-164L89 0H53L-1-190h32L70-26l43-164h34l41 164 42-164h31" id="aJ"/><g id="l"><use transform="matrix(0.0685185185185185,0,0,0.0685185185185185,0,0)" xlink:href="#av"/><use transform="matrix(0.0685185185185185,0,0,0.0685185185185185,8.153703703703702,0)" xlink:href="#ak"/><use transform="matrix(0.0685185185185185,0,0,0.0685185185185185,21.8574074074074,0)" xlink:href="#aJ"/><use transform="matrix(0.0685185185185185,0,0,0.0685185185185185,39.603703703703694,0)" xlink:href="#ay"/><use transform="matrix(0.0685185185185185,0,0,0.0685185185185185,53.307407407407396,0)" xlink:href="#av"/></g><path d="M117-194c89-4 53 116 60 194h-32v-121c0-31-8-49-39-48C34-167 62-67 57 0H25l-1-190h30c1 10-1 24 2 32 11-22 29-35 61-36" id="aK"/><g id="m"><use transform="matrix(0.0685185185185185,0,0,0.0685185185185185,0,0)" xlink:href="#aK"/><use transform="matrix(0.0685185185185185,0,0,0.0685185185185185,13.7037037037037,0)" xlink:href="#am"/></g><g id="n"><use transform="matrix(0.0685185185185185,0,0,0.0685185185185185,0,0)" xlink:href="#as"/><use transform="matrix(0.0685185185185185,0,0,0.0685185185185185,12.33333333333333,0)" xlink:href="#ax"/><use transform="matrix(0.0685185185185185,0,0,0.0685185185185185,19.185185185185176,0)" xlink:href="#am"/><use transform="matrix(0.0685185185185185,0,0,0.0685185185185185,32.88888888888888,0)" xlink:href="#aK"/></g><path d="M209 0H11v-25l151-195H24v-28h176v25L50-27h159V0" id="aL"/><path d="M24 0v-95L3-83v-28l21-12v-138h32v120l22-13v28l-22 12V0H24" id="aM"/><path d="M96-169c-40 0-48 33-48 73s9 75 48 75c24 0 41-14 43-38l32 2c-6 37-31 61-74 61-59 0-76-41-82-99-10-93 101-131 147-64 4 7 5 14 7 22l-32 3c-4-21-16-35-41-35zm-20-42c8-23 27-35 38-54h36v5l-58 49H76" id="aN"/><g id="o"><use transform="matrix(0.06790123456790124,0,0,0.06790123456790124,0,0)" xlink:href="#aL"/><use transform="matrix(0.06790123456790124,0,0,0.06790123456790124,14.870370370370372,0)" xlink:href="#am"/><use transform="matrix(0.06790123456790124,0,0,0.06790123456790124,28.45061728395062,0)" xlink:href="#ar"/><use transform="matrix(0.06790123456790124,0,0,0.06790123456790124,42.03086419753087,0)" xlink:href="#aM"/><use transform="matrix(0.06790123456790124,0,0,0.06790123456790124,47.39506172839506,0)" xlink:href="#am"/><use transform="matrix(0.06790123456790124,0,0,0.06790123456790124,60.97530864197531,0)" xlink:href="#aN"/></g><path d="M194 0L95-120 63-95V0H30v-248h33v124l119-124h40L117-140 236 0h-42" id="aO"/><path d="M210-169c-67 3-38 105-44 169h-31v-121c0-29-5-50-35-48C34-165 62-65 56 0H25l-1-190h30c1 10-1 24 2 32 10-44 99-50 107 0 11-21 27-35 58-36 85-2 47 119 55 194h-31v-121c0-29-5-49-35-48" id="aP"/><path d="M84 4C-5 8 30-112 23-190h32v120c0 31 7 50 39 49 72-2 45-101 50-169h31l1 190h-30c-1-10 1-25-2-33-11 22-28 36-60 37" id="aQ"/><g id="p"><use transform="matrix(0.0685185185185185,0,0,0.0685185185185185,0,0)" xlink:href="#aO"/><use transform="matrix(0.0685185185185185,0,0,0.0685185185185185,16.444444444444443,0)" xlink:href="#ak"/><use transform="matrix(0.0685185185185185,0,0,0.0685185185185185,30.148148148148145,0)" xlink:href="#aP"/><use transform="matrix(0.0685185185185185,0,0,0.0685185185185185,50.63518518518518,0)" xlink:href="#ar"/><use transform="matrix(0.0685185185185185,0,0,0.0685185185185185,64.33888888888887,0)" xlink:href="#az"/><use transform="matrix(0.0685185185185185,0,0,0.0685185185185185,69.75185185185184,0)" xlink:href="#ay"/><use transform="matrix(0.0685185185185185,0,0,0.0685185185185185,83.45555555555553,0)" xlink:href="#ax"/><use transform="matrix(0.0685185185185185,0,0,0.0685185185185185,90.30740740740738,0)" xlink:href="#aQ"/><use transform="matrix(0.0685185185185185,0,0,0.0685185185185185,104.01111111111108,0)" xlink:href="#aI"/></g><path d="M100-194c62-1 85 37 85 99 1 63-27 99-86 99S16-35 15-95c0-66 28-99 85-99zM99-20c44 1 53-31 53-75 0-43-8-75-51-75s-53 32-53 75 10 74 51 75zM76-211c8-23 27-35 38-54h36v5l-58 49H76" id="aR"/><g id="q"><use transform="matrix(0.0685185185185185,0,0,0.0685185185185185,0,0)" xlink:href="#ap"/><use transform="matrix(0.0685185185185185,0,0,0.0685185185185185,12.33333333333333,0)" xlink:href="#am"/><use transform="matrix(0.0685185185185185,0,0,0.0685185185185185,26.03703703703703,0)" xlink:href="#aP"/><use transform="matrix(0.0685185185185185,0,0,0.0685185185185185,46.524074074074065,0)" xlink:href="#aR"/><use transform="matrix(0.0685185185185185,0,0,0.0685185185185185,60.22777777777777,0)" xlink:href="#aJ"/><use transform="matrix(0.0685185185185185,0,0,0.0685185185185185,77.97407407407405,0)" xlink:href="#at"/><use transform="matrix(0.0685185185185185,0,0,0.0685185185185185,83.38703703703702,0)" xlink:href="#ay"/><use transform="matrix(0.0685185185185185,0,0,0.0685185185185185,97.09074074074071,0)" xlink:href="#aK"/><use transform="matrix(0.0685185185185185,0,0,0.0685185185185185,110.79444444444441,0)" xlink:href="#at"/><use transform="matrix(0.0685185185185185,0,0,0.0685185185185185,116.20740740740737,0)" xlink:href="#ay"/></g><path d="M190 0L58-211 59 0H30v-248h39L202-35l-2-213h31V0h-41" id="aS"/><g id="r"><use transform="matrix(0.0685185185185185,0,0,0.0685185185185185,0,0)" xlink:href="#aS"/><use transform="matrix(0.0685185185185185,0,0,0.0685185185185185,17.746296296296293,0)" xlink:href="#am"/><use transform="matrix(0.0685185185185185,0,0,0.0685185185185185,31.449999999999996,0)" xlink:href="#ar"/><use transform="matrix(0.0685185185185185,0,0,0.0685185185185185,45.1537037037037,0)" xlink:href="#av"/><use transform="matrix(0.0685185185185185,0,0,0.0685185185185185,53.307407407407396,0)" xlink:href="#am"/><use transform="matrix(0.0685185185185185,0,0,0.0685185185185185,67.01111111111109,0)" xlink:href="#aJ"/></g><g id="s"><use transform="matrix(0.0685185185185185,0,0,0.0685185185185185,0,0)" xlink:href="#av"/><use transform="matrix(0.0685185185185185,0,0,0.0685185185185185,8.153703703703702,0)" xlink:href="#ak"/><use transform="matrix(0.0685185185185185,0,0,0.0685185185185185,21.8574074074074,0)" xlink:href="#aJ"/><use transform="matrix(0.0685185185185185,0,0,0.0685185185185185,39.603703703703694,0)" xlink:href="#ay"/><use transform="matrix(0.0685185185185185,0,0,0.0685185185185185,53.307407407407396,0)" xlink:href="#av"/></g><g id="t"><use transform="matrix(0.0685185185185185,0,0,0.0685185185185185,0,0)" xlink:href="#aj"/><use transform="matrix(0.0685185185185185,0,0,0.0685185185185185,16.444444444444443,0)" xlink:href="#ak"/><use transform="matrix(0.0685185185185185,0,0,0.0685185185185185,30.148148148148145,0)" xlink:href="#au"/><use transform="matrix(0.0685185185185185,0,0,0.0685185185185185,43.85185185185185,0)" xlink:href="#az"/><use transform="matrix(0.0685185185185185,0,0,0.0685185185185185,49.26481481481481,0)" xlink:href="#at"/><use transform="matrix(0.0685185185185185,0,0,0.0685185185185185,54.67777777777778,0)" xlink:href="#ao"/><use transform="matrix(0.0685185185185185,0,0,0.0685185185185185,67.0111111111111,0)" xlink:href="#ap"/></g><path d="M177-190C167-65 218 103 67 71c-23-6-38-20-44-43l32-5c15 47 100 32 89-28v-30C133-14 115 1 83 1 29 1 15-40 15-95c0-56 16-97 71-98 29-1 48 16 59 35 1-10 0-23 2-32h30zM94-22c36 0 50-32 50-73 0-42-14-75-50-75-39 0-46 34-46 75s6 73 46 73" id="aT"/><g id="u"><use transform="matrix(0.0685185185185185,0,0,0.0685185185185185,0,0)" xlink:href="#aJ"/><use transform="matrix(0.0685185185185185,0,0,0.0685185185185185,17.746296296296293,0)" xlink:href="#aq"/><use transform="matrix(0.0685185185185185,0,0,0.0685185185185185,30.079629629629622,0)" xlink:href="#aK"/><use transform="matrix(0.0685185185185185,0,0,0.0685185185185185,43.783333333333324,0)" xlink:href="#am"/><use transform="matrix(0.0685185185185185,0,0,0.0685185185185185,57.48703703703703,0)" xlink:href="#aT"/><use transform="matrix(0.0685185185185185,0,0,0.0685185185185185,71.19074074074072,0)" xlink:href="#av"/><use transform="matrix(0.0685185185185185,0,0,0.0685185185185185,79.34444444444442,0)" xlink:href="#ak"/><use transform="matrix(0.0685185185185185,0,0,0.0685185185185185,93.04814814814812,0)" xlink:href="#au"/><use transform="matrix(0.0685185185185185,0,0,0.0685185185185185,106.75185185185181,0)" xlink:href="#ap"/><use transform="matrix(0.0685185185185185,0,0,0.0685185185185185,119.08518518518514,0)" xlink:href="#ay"/><use transform="matrix(0.0685185185185185,0,0,0.0685185185185185,132.78888888888883,0)" xlink:href="#aK"/><use transform="matrix(0.0685185185185185,0,0,0.0685185185185185,146.49259259259253,0)" xlink:href="#at"/><use transform="matrix(0.0685185185185185,0,0,0.0685185185185185,151.90555555555548,0)" xlink:href="#ay"/></g><path d="M141-36C126-15 110 5 73 4 37 3 15-17 15-53c-1-64 63-63 125-63 3-35-9-54-41-54-24 1-41 7-42 31l-33-3c5-37 33-52 76-52 45 0 72 20 72 64v82c-1 20 7 32 28 27v20c-31 9-61-2-59-35zM48-53c0 20 12 33 32 33 41-3 63-29 60-74-43 2-92-5-92 41zm116 93c-1 20 24 18 37 12v18c-24 11-66 4-62-28 3-27 17-46 51-42-13 8-25 19-26 40" id="aU"/><g id="v"><use transform="matrix(0.06790123456790124,0,0,0.06790123456790124,0,0)" xlink:href="#aj"/><use transform="matrix(0.06790123456790124,0,0,0.06790123456790124,16.296296296296298,0)" xlink:href="#av"/><use transform="matrix(0.06790123456790124,0,0,0.06790123456790124,24.376543209876544,0)" xlink:href="#ap"/><use transform="matrix(0.06790123456790124,0,0,0.06790123456790124,36.598765432098766,0)" xlink:href="#ay"/><use transform="matrix(0.06790123456790124,0,0,0.06790123456790124,50.17901234567901,0)" xlink:href="#aT"/><use transform="matrix(0.06790123456790124,0,0,0.06790123456790124,63.75925925925926,0)" xlink:href="#az"/><use transform="matrix(0.06790123456790124,0,0,0.06790123456790124,69.12345679012346,0)" xlink:href="#aU"/><use transform="matrix(0.06790123456790124,0,0,0.06790123456790124,82.70370370370371,0)" xlink:href="#au"/><use transform="matrix(0.06790123456790124,0,0,0.06790123456790124,96.28395061728396,0)" xlink:href="#am"/><use transform="matrix(0.06790123456790124,0,0,0.06790123456790124,109.86419753086422,0)" xlink:href="#aI"/></g><g id="w"><use transform="matrix(0.06790123456790124,0,0,0.06790123456790124,0,0)" xlink:href="#av"/><use transform="matrix(0.06790123456790124,0,0,0.06790123456790124,8.080246913580249,0)" xlink:href="#ak"/><use transform="matrix(0.06790123456790124,0,0,0.06790123456790124,21.660493827160497,0)" xlink:href="#aJ"/><use transform="matrix(0.06790123456790124,0,0,0.06790123456790124,39.24691358024692,0)" xlink:href="#ay"/><use transform="matrix(0.06790123456790124,0,0,0.06790123456790124,52.827160493827165,0)" xlink:href="#av"/><use transform="matrix(0.06790123456790124,0,0,0.06790123456790124,60.90740740740741,0)" xlink:href="#aq"/></g><g id="x"><use transform="matrix(0.06790123456790124,0,0,0.06790123456790124,0,0)" xlink:href="#aL"/><use transform="matrix(0.06790123456790124,0,0,0.06790123456790124,14.870370370370372,0)" xlink:href="#aM"/><use transform="matrix(0.06790123456790124,0,0,0.06790123456790124,20.23456790123457,0)" xlink:href="#aR"/><use transform="matrix(0.06790123456790124,0,0,0.06790123456790124,33.81481481481482,0)" xlink:href="#an"/></g><g id="y"><use transform="matrix(0.06790123456790124,0,0,0.06790123456790124,0,0)" xlink:href="#ap"/><use transform="matrix(0.06790123456790124,0,0,0.06790123456790124,12.222222222222223,0)" xlink:href="#am"/><use transform="matrix(0.06790123456790124,0,0,0.06790123456790124,25.802469135802472,0)" xlink:href="#aP"/><use transform="matrix(0.06790123456790124,0,0,0.06790123456790124,46.104938271604944,0)" xlink:href="#aR"/><use transform="matrix(0.06790123456790124,0,0,0.06790123456790124,59.6851851851852,0)" xlink:href="#aJ"/><use transform="matrix(0.06790123456790124,0,0,0.06790123456790124,77.27160493827161,0)" xlink:href="#at"/><use transform="matrix(0.06790123456790124,0,0,0.06790123456790124,82.63580246913581,0)" xlink:href="#ay"/><use transform="matrix(0.06790123456790124,0,0,0.06790123456790124,96.21604938271606,0)" xlink:href="#aK"/><use transform="matrix(0.06790123456790124,0,0,0.06790123456790124,109.79629629629632,0)" xlink:href="#at"/><use transform="matrix(0.06790123456790124,0,0,0.06790123456790124,115.16049382716052,0)" xlink:href="#ay"/></g><path fill="#333" d="M25-224v-37h50v37H25zM25 0v-190h50V0H25" id="aV"/><path fill="#333" d="M190-63c-7 42-38 67-86 67-59 0-84-38-90-98-12-110 154-137 174-36l-49 2c-2-19-15-32-35-32-30 0-35 28-38 64-6 74 65 87 74 30" id="aW"/><path fill="#333" d="M25 0v-261h50V0H25" id="aX"/><path fill="#333" d="M85 4C-2 5 27-109 22-190h50c7 57-23 150 33 157 60-5 35-97 40-157h50l1 190h-47c-2-12 1-28-3-38-12 25-28 42-61 42" id="aY"/><g id="z"><use transform="matrix(0.06790123456790124,0,0,0.06790123456790124,0,0)" xlink:href="#aA"/><use transform="matrix(0.06790123456790124,0,0,0.06790123456790124,14.259259259259261,0)" xlink:href="#aA"/><use transform="matrix(0.06790123456790124,0,0,0.06790123456790124,28.518518518518523,0)" xlink:href="#aV"/><use transform="matrix(0.06790123456790124,0,0,0.06790123456790124,35.308641975308646,0)" xlink:href="#aE"/><use transform="matrix(0.06790123456790124,0,0,0.06790123456790124,50.17901234567902,0)" xlink:href="#aW"/><use transform="matrix(0.06790123456790124,0,0,0.06790123456790124,63.75925925925927,0)" xlink:href="#aX"/><use transform="matrix(0.06790123456790124,0,0,0.06790123456790124,70.5493827160494,0)" xlink:href="#aY"/><use transform="matrix(0.06790123456790124,0,0,0.06790123456790124,85.41975308641976,0)" xlink:href="#aF"/><use transform="matrix(0.06790123456790124,0,0,0.06790123456790124,100.29012345679013,0)" xlink:href="#aB"/><use transform="matrix(0.06790123456790124,0,0,0.06790123456790124,113.87037037037038,0)" xlink:href="#aG"/><use transform="matrix(0.06790123456790124,0,0,0.06790123456790124,128.12962962962965,0)" xlink:href="#aG"/></g><path d="M232-93c-1 65-40 97-104 97C67 4 28-28 28-90v-158h33c8 89-33 224 67 224 102 0 64-133 71-224h33v155" id="aZ"/><g id="A"><use transform="matrix(0.0685185185185185,0,0,0.0685185185185185,0,0)" xlink:href="#aZ"/><use transform="matrix(0.0685185185185185,0,0,0.0685185185185185,17.746296296296293,0)" xlink:href="#as"/><use transform="matrix(0.0685185185185185,0,0,0.0685185185185185,30.079629629629622,0)" xlink:href="#aQ"/><use transform="matrix(0.0685185185185185,0,0,0.0685185185185185,43.783333333333324,0)" xlink:href="#aK"/></g><g id="B"><use transform="matrix(0.0685185185185185,0,0,0.0685185185185185,0,0)" xlink:href="#ap"/><use transform="matrix(0.0685185185185185,0,0,0.0685185185185185,12.33333333333333,0)" xlink:href="#ay"/></g><g id="C"><use transform="matrix(0.0685185185185185,0,0,0.0685185185185185,0,0)" xlink:href="#as"/><use transform="matrix(0.0685185185185185,0,0,0.0685185185185185,12.33333333333333,0)" xlink:href="#ax"/><use transform="matrix(0.0685185185185185,0,0,0.0685185185185185,19.185185185185176,0)" xlink:href="#am"/><use transform="matrix(0.0685185185185185,0,0,0.0685185185185185,32.88888888888888,0)" xlink:href="#aK"/><use transform="matrix(0.0685185185185185,0,0,0.0685185185185185,46.59259259259258,0)" xlink:href="#aQ"/></g><path d="M140-251c81 0 123 46 123 126C263-46 219 4 140 4 59 4 17-45 17-125s42-126 123-126zm0 227c63 0 89-41 89-101s-29-99-89-99c-61 0-89 39-89 99S79-25 140-24" id="ba"/><g id="D"><use transform="matrix(0.0685185185185185,0,0,0.0685185185185185,0,0)" xlink:href="#ba"/><use transform="matrix(0.0685185185185185,0,0,0.0685185185185185,19.185185185185183,0)" xlink:href="#au"/><use transform="matrix(0.0685185185185185,0,0,0.0685185185185185,32.888888888888886,0)" xlink:href="#au"/><use transform="matrix(0.0685185185185185,0,0,0.0685185185185185,46.59259259259258,0)" xlink:href="#am"/><use transform="matrix(0.0685185185185185,0,0,0.0685185185185185,60.29629629629629,0)" xlink:href="#aI"/></g><g id="E"><use transform="matrix(0.0685185185185185,0,0,0.0685185185185185,0,0)" xlink:href="#au"/><use transform="matrix(0.0685185185185185,0,0,0.0685185185185185,13.7037037037037,0)" xlink:href="#ak"/></g><g id="F"><use transform="matrix(0.0685185185185185,0,0,0.0685185185185185,0,0)" xlink:href="#aK"/><use transform="matrix(0.0685185185185185,0,0,0.0685185185185185,13.7037037037037,0)" xlink:href="#am"/><use transform="matrix(0.0685185185185185,0,0,0.0685185185185185,27.4074074074074,0)" xlink:href="#ar"/><use transform="matrix(0.0685185185185185,0,0,0.0685185185185185,41.11111111111111,0)" xlink:href="#av"/><use transform="matrix(0.0685185185185185,0,0,0.0685185185185185,49.2648148148148,0)" xlink:href="#am"/><use transform="matrix(0.0685185185185185,0,0,0.0685185185185185,62.9685185185185,0)" xlink:href="#aJ"/><use transform="matrix(0.0685185185185185,0,0,0.0685185185185185,80.71481481481479,0)" xlink:href="#aq"/></g><g id="G"><use transform="matrix(0.06790123456790123,0,0,0.06790123456790123,0,0)" xlink:href="#aA"/><use transform="matrix(0.06790123456790123,0,0,0.06790123456790123,14.259259259259258,0)" xlink:href="#aA"/><use transform="matrix(0.06790123456790123,0,0,0.06790123456790123,28.518518518518515,0)" xlink:href="#aB"/><use transform="matrix(0.06790123456790123,0,0,0.06790123456790123,42.09876543209876,0)" xlink:href="#aC"/><use transform="matrix(0.06790123456790123,0,0,0.06790123456790123,55.67901234567901,0)" xlink:href="#aD"/><use transform="matrix(0.06790123456790123,0,0,0.06790123456790123,63.75925925925925,0)" xlink:href="#aB"/><use transform="matrix(0.06790123456790123,0,0,0.06790123456790123,77.33950617283949,0)" xlink:href="#aE"/><use transform="matrix(0.06790123456790123,0,0,0.06790123456790123,92.20987654320986,0)" xlink:href="#aF"/><use transform="matrix(0.06790123456790123,0,0,0.06790123456790123,107.08024691358023,0)" xlink:href="#aG"/><use transform="matrix(0.06790123456790123,0,0,0.06790123456790123,121.33950617283948,0)" xlink:href="#aG"/></g><g id="H"><use transform="matrix(0.06790123456790124,0,0,0.06790123456790124,0,0)" xlink:href="#aQ"/><use transform="matrix(0.06790123456790124,0,0,0.06790123456790124,13.580246913580249,0)" xlink:href="#au"/></g><path d="M109-170H84l-4-78h32zm-65 0H19l-4-78h33" id="bb"/><path d="M185-189c-5-48-123-54-124 2 14 75 158 14 163 119 3 78-121 87-175 55-17-10-28-26-33-46l33-7c5 56 141 63 141-1 0-78-155-14-162-118-5-82 145-84 179-34 5 7 8 16 11 25" id="bc"/><g id="I"><use transform="matrix(0.06790123456790124,0,0,0.06790123456790124,0,0)" xlink:href="#bb"/><use transform="matrix(0.06790123456790124,0,0,0.06790123456790124,8.623456790123457,0)" xlink:href="#bc"/><use transform="matrix(0.06790123456790124,0,0,0.06790123456790124,24.919753086419753,0)" xlink:href="#aq"/><use transform="matrix(0.06790123456790124,0,0,0.06790123456790124,37.141975308641975,0)" xlink:href="#as"/><use transform="matrix(0.06790123456790124,0,0,0.06790123456790124,49.364197530864196,0)" xlink:href="#ax"/><use transform="matrix(0.06790123456790124,0,0,0.06790123456790124,56.15432098765432,0)" xlink:href="#ay"/><use transform="matrix(0.06790123456790124,0,0,0.06790123456790124,69.73456790123457,0)" xlink:href="#aP"/></g><g id="J"><use transform="matrix(0.06790123456790124,0,0,0.06790123456790124,0,0)" xlink:href="#ap"/><use transform="matrix(0.06790123456790124,0,0,0.06790123456790124,12.222222222222223,0)" xlink:href="#am"/><use transform="matrix(0.06790123456790124,0,0,0.06790123456790124,25.802469135802472,0)" xlink:href="#av"/><use transform="matrix(0.06790123456790124,0,0,0.06790123456790124,33.88271604938272,0)" xlink:href="#ap"/><use transform="matrix(0.06790123456790124,0,0,0.06790123456790124,46.104938271604944,0)" xlink:href="#aU"/><use transform="matrix(0.06790123456790124,0,0,0.06790123456790124,59.6851851851852,0)" xlink:href="#au"/><use transform="matrix(0.06790123456790124,0,0,0.06790123456790124,73.26543209876544,0)" xlink:href="#ap"/><use transform="matrix(0.06790123456790124,0,0,0.06790123456790124,85.48765432098767,0)" xlink:href="#am"/><use transform="matrix(0.06790123456790124,0,0,0.06790123456790124,99.06790123456793,0)" xlink:href="#aK"/><use transform="matrix(0.06790123456790124,0,0,0.06790123456790124,112.64814814814818,0)" xlink:href="#at"/><use transform="matrix(0.06790123456790124,0,0,0.06790123456790124,118.01234567901238,0)" xlink:href="#am"/></g><g id="K"><use transform="matrix(0.06790123456790124,0,0,0.06790123456790124,0,0)" xlink:href="#as"/><use transform="matrix(0.06790123456790124,0,0,0.06790123456790124,12.222222222222223,0)" xlink:href="#al"/><use transform="matrix(0.06790123456790124,0,0,0.06790123456790124,24.444444444444446,0)" xlink:href="#az"/><use transform="matrix(0.06790123456790124,0,0,0.06790123456790124,29.808641975308646,0)" xlink:href="#ay"/><use transform="matrix(0.06790123456790124,0,0,0.06790123456790124,43.38888888888889,0)" xlink:href="#ar"/><use transform="matrix(0.06790123456790124,0,0,0.06790123456790124,56.96913580246914,0)" xlink:href="#ay"/><use transform="matrix(0.06790123456790124,0,0,0.06790123456790124,70.5493827160494,0)" xlink:href="#aP"/></g><g id="L"><use transform="matrix(0.06790123456790124,0,0,0.06790123456790124,0,0)" xlink:href="#av"/><use transform="matrix(0.06790123456790124,0,0,0.06790123456790124,8.080246913580249,0)" xlink:href="#ak"/><use transform="matrix(0.06790123456790124,0,0,0.06790123456790124,21.660493827160497,0)" xlink:href="#aJ"/><use transform="matrix(0.06790123456790124,0,0,0.06790123456790124,39.24691358024692,0)" xlink:href="#ay"/><use transform="matrix(0.06790123456790124,0,0,0.06790123456790124,52.827160493827165,0)" xlink:href="#av"/><use transform="matrix(0.06790123456790124,0,0,0.06790123456790124,60.90740740740741,0)" xlink:href="#ak"/><use transform="matrix(0.06790123456790124,0,0,0.06790123456790124,74.48765432098766,0)" xlink:href="#aJ"/><use transform="matrix(0.06790123456790124,0,0,0.06790123456790124,92.07407407407408,0)" xlink:href="#aq"/><use transform="matrix(0.06790123456790124,0,0,0.06790123456790124,104.2962962962963,0)" xlink:href="#aP"/><use transform="matrix(0.06790123456790124,0,0,0.06790123456790124,124.59876543209877,0)" xlink:href="#bb"/></g><g id="M"><use transform="matrix(0.06790123456790124,0,0,0.06790123456790124,0,0)" xlink:href="#aj"/><use transform="matrix(0.06790123456790124,0,0,0.06790123456790124,16.296296296296298,0)" xlink:href="#ak"/><use transform="matrix(0.06790123456790124,0,0,0.06790123456790124,29.876543209876544,0)" xlink:href="#al"/><use transform="matrix(0.06790123456790124,0,0,0.06790123456790124,42.098765432098766,0)" xlink:href="#am"/><use transform="matrix(0.06790123456790124,0,0,0.06790123456790124,55.67901234567901,0)" xlink:href="#an"/></g><g id="N"><use transform="matrix(0.06790123456790124,0,0,0.06790123456790124,0,0)" xlink:href="#aH"/><use transform="matrix(0.06790123456790124,0,0,0.06790123456790124,17.58641975308642,0)" xlink:href="#ak"/><use transform="matrix(0.06790123456790124,0,0,0.06790123456790124,31.16666666666667,0)" xlink:href="#au"/><use transform="matrix(0.06790123456790124,0,0,0.06790123456790124,44.74691358024692,0)" xlink:href="#am"/><use transform="matrix(0.06790123456790124,0,0,0.06790123456790124,58.32716049382716,0)" xlink:href="#aI"/></g><g id="O"><use transform="matrix(0.06790123456790124,0,0,0.06790123456790124,0,0)" xlink:href="#av"/><use transform="matrix(0.06790123456790124,0,0,0.06790123456790124,8.080246913580249,0)" xlink:href="#ak"/><use transform="matrix(0.06790123456790124,0,0,0.06790123456790124,21.660493827160497,0)" xlink:href="#aJ"/><use transform="matrix(0.06790123456790124,0,0,0.06790123456790124,39.24691358024692,0)" xlink:href="#ay"/><use transform="matrix(0.06790123456790124,0,0,0.06790123456790124,52.827160493827165,0)" xlink:href="#av"/></g><g id="P"><use transform="matrix(0.06790123456790124,0,0,0.06790123456790124,0,0)" xlink:href="#au"/><use transform="matrix(0.06790123456790124,0,0,0.06790123456790124,13.580246913580249,0)" xlink:href="#ak"/></g><g id="Q"><use transform="matrix(0.06790123456790124,0,0,0.06790123456790124,0,0)" xlink:href="#ap"/><use transform="matrix(0.06790123456790124,0,0,0.06790123456790124,12.222222222222223,0)" xlink:href="#am"/><use transform="matrix(0.06790123456790124,0,0,0.06790123456790124,25.802469135802472,0)" xlink:href="#aP"/><use transform="matrix(0.06790123456790124,0,0,0.06790123456790124,46.104938271604944,0)" xlink:href="#aR"/><use transform="matrix(0.06790123456790124,0,0,0.06790123456790124,59.6851851851852,0)" xlink:href="#aJ"/><use transform="matrix(0.06790123456790124,0,0,0.06790123456790124,77.27160493827161,0)" xlink:href="#at"/><use transform="matrix(0.06790123456790124,0,0,0.06790123456790124,82.63580246913581,0)" xlink:href="#ay"/><use transform="matrix(0.06790123456790124,0,0,0.06790123456790124,96.21604938271606,0)" xlink:href="#aK"/><use transform="matrix(0.06790123456790124,0,0,0.06790123456790124,109.79629629629632,0)" xlink:href="#at"/><use transform="matrix(0.06790123456790124,0,0,0.06790123456790124,115.16049382716052,0)" xlink:href="#am"/></g><g id="R"><use transform="matrix(0.06790123456790123,0,0,0.06790123456790123,0,0)" xlink:href="#aA"/><use transform="matrix(0.06790123456790123,0,0,0.06790123456790123,14.259259259259258,0)" xlink:href="#aA"/><use transform="matrix(0.06790123456790123,0,0,0.06790123456790123,28.518518518518515,0)" xlink:href="#aV"/><use transform="matrix(0.06790123456790123,0,0,0.06790123456790123,35.30864197530864,0)" xlink:href="#aE"/><use transform="matrix(0.06790123456790123,0,0,0.06790123456790123,50.17901234567901,0)" xlink:href="#aW"/><use transform="matrix(0.06790123456790123,0,0,0.06790123456790123,63.75925925925925,0)" xlink:href="#aX"/><use transform="matrix(0.06790123456790123,0,0,0.06790123456790123,70.54938271604938,0)" xlink:href="#aY"/><use transform="matrix(0.06790123456790123,0,0,0.06790123456790123,85.41975308641975,0)" xlink:href="#aF"/><use transform="matrix(0.06790123456790123,0,0,0.06790123456790123,100.29012345679011,0)" xlink:href="#aB"/><use transform="matrix(0.06790123456790123,0,0,0.06790123456790123,113.87037037037035,0)" xlink:href="#aG"/><use transform="matrix(0.06790123456790123,0,0,0.06790123456790123,128.12962962962962,0)" xlink:href="#aG"/></g></defs></g></svg>