<svg xmlns="http://www.w3.org/2000/svg" xmlns:xlink="http://www.w3.org/1999/xlink" xmlns:lucid="lucid" width="1835.35" height="1231"><g transform="translate(-1824.6452535264962 2520)" lucid:page-tab-id="IaPJuu.TAdye"><path d="M2087.43-2411.98c0 4.43-3.6 8.02-8.02 8.02s-8-3.6-8-8.02c0-4.43 3.58-8.02 8-8.02 4.44 0 8.03 3.6 8.03 8.02z" stroke="#5e5e5e" stroke-width="3" fill="#fff"/><path d="M2079.4-2403.96v16.45c0 3.3 2.26 7.47 5.03 9.3l34.05 22.35m-39.07-25.66l-39.06 25.65m0-40.1h78.14" stroke="#5e5e5e" stroke-width="3" fill="none"/><path d="M2040.34-2414c0-3.3 2.7-6 6-6h66.14c3.32 0 6 2.7 6 6v74.15c0 3.32-2.68 6-6 6h-66.14c-3.3 0-6-2.68-6-6z" fill="none"/><use xlink:href="#a" transform="matrix(1,0,0,1,1960.3429279451009,-2355.846153846154) translate(88.69753086419753 17.77777777777778)"/><path d="M2079.4-2332.85v8.4m0 8.42v8.4" stroke="#5e5e5e" stroke-width="2" fill="none"/><path d="M2080.4-2332.82h-2v-4.03h2zM2080.4-2306.63h-2v-1.02h2z" fill="#5e5e5e"/><path d="M2079.4-1426.73v11.38m0 11.38v22.77m0 11.38v11.38" stroke="#5e5e5e" stroke-width="2" fill="none"/><path d="M2080.4-1426.7h-2v-1.03h2z" fill="#5e5e5e"/><path d="M2079.4-1358.46v1.02M3501.86-1634.83v10.12m0 10.1v20.24m0 10.1v20.25m0 10.1v20.23m0 10.12v20.23m0 10.12v20.23m0 10.12v20.23m0 10.1v20.24m0 10.12v20.23m0 10.12v20.22m0 10.12v20.23m0 10.1v10.13" stroke="#5e5e5e" stroke-width="2" fill="none"/><path d="M3502.86-1634.8h-2v-1.03h2z" fill="#5e5e5e"/><path d="M3501.86-1301.03v1.03M3501.86-2331.35v9.76m0 9.77v19.5m0 9.76v19.52m0 9.75v19.52m0 9.75v19.5m0 9.77v19.5m0 9.77v19.52m0 9.76v19.5m0 9.77v19.5m0 9.76v19.53m0 9.75v19.5m0 9.77v19.5m0 9.77v19.5m0 9.77v19.5m0 9.76v19.5m0 9.76v19.52m0 9.75v19.5m0 9.76v9.76" stroke="#5e5e5e" stroke-width="2" fill="none"/><path d="M3502.86-2331.32h-2v-1.03h2zM3502.86-1832.78h-2v-1.03h2z" fill="#5e5e5e"/><path d="M2063.48-2299.13c0-3.3 2.68-6 6-6h19.87c3.3 0 6 2.7 6 6v863.9c0 3.3-2.7 6-6 6h-19.87c-3.32 0-6-2.7-6-6zM3482.33-1825.28c0-3.32 2.68-6 6-6h27.07c3.3 0 6 2.68 6 6v181.95c0 3.32-2.7 6-6 6h-27.07c-3.32 0-6-2.68-6-6z" stroke="#5e5e5e" stroke-width="3" fill="#fff"/><path d="M3105-2130.32v9.9m0 9.9v19.78m0 9.9v19.8m0 9.9v19.78m0 9.9v19.8m0 9.88v19.8m0 9.9v19.78m0 9.9v19.8m0 9.9v19.78m0 9.9v19.8m0 9.88v19.8m0 9.9v19.78m0 9.9v19.8m0 9.9v19.78m0 9.9v19.8m0 9.88v19.8m0 9.9v19.78m0 9.9v19.8m0 9.9v19.78m0 9.9v19.78m0 9.9v19.8m0 9.9v19.78m0 9.9v19.8m0 9.88v19.8m0 9.9v19.78m0 9.9v19.8m0 9.9v9.88" stroke="#5e5e5e" stroke-width="2" fill="none"/><path d="M3106-2130.3h-2v-1.02h2z" fill="#5e5e5e"/><path d="M3105-1358.46v1.02M3105-2331.35v10.62m0 10.6v21.23m0 10.62v21.22m0 10.6v10.63" stroke="#5e5e5e" stroke-width="2" fill="none"/><path d="M3106-2331.32h-2v-1.03h2zM3106-2234.83h-2v-1.03h2z" fill="#5e5e5e"/><path d="M3091.63-2227.33c0-3.32 2.68-6 6-6h14.73c3.3 0 6 2.68 6 6v88.5c0 3.32-2.7 6-6 6h-14.73c-3.32 0-6-2.68-6-6z" stroke="#5e5e5e" stroke-width="3" fill="#fff"/><path d="M3089.13-2142.8h-9.72m-9.7 0h-19.45m-9.72 0h-19.45m-9.72 0h-19.44m-9.72 0h-19.44m-9.72 0h-19.44m-9.72 0h-19.44m-9.72 0h-19.44m-9.72 0h-19.44m-9.72 0h-19.45m-9.72 0h-19.44m-9.73 0h-19.44m-9.72 0h-19.43m-9.72 0h-19.44m-9.7 0h-19.45m-9.72 0H2642m-9.73 0h-19.45m-9.72 0h-9.72l-.03-.02v-.03l-.03-.03-.03-.02h-10.32m-10.3 0h-20.64m-10.3 0h-20.63m-10.3 0h-20.62m-10.3 0h-20.63m-10.3 0h-20.64m-10.3 0h-20.62m-10.3 0h-20.63m-10.3 0h-20.64m-10.3 0h-20.62m-10.3 0h-20.63m-10.3 0h-20.63m-10.32 0h-20.62m-10.3 0h-20.63m-10.3 0h-20.63m-10.3 0h-20.64m-10.3 0h-10.32" stroke="#5e5e5e" stroke-width="2" fill="none"/><path d="M3090.13-2141.8h-1.03v-2h1.03z" fill="#5e5e5e"/><path d="M2115.72-2153.08l-17.2 10.18 17.2 10.18" stroke="#5e5e5e" stroke-width="2" fill="none"/><path d="M3423.72-2414c0-3.3 2.7-6 6-6H3574c3.3 0 6 2.7 6 6v74.15c0 3.32-2.7 6-6 6h-144.28c-3.3 0-6-2.68-6-6z" stroke="#5e5e5e" stroke-width="3" fill="#fff"/><use xlink:href="#b" transform="matrix(1,0,0,1,3423.720930232558,-2420) translate(32.35685185185184 47.68402777777778)"/><path d="M3026.85-2414c0-3.3 2.7-6 6-6h144.28c3.32 0 6 2.7 6 6v74.15c0 3.32-2.68 6-6 6h-144.28c-3.3 0-6-2.68-6-6z" stroke="#5e5e5e" stroke-width="3" fill="#fff"/><use xlink:href="#c" transform="matrix(1,0,0,1,3026.8545558520777,-2420) translate(42.91240740740741 47.68402777777778)"/><path d="M2097.54-2059.82h186.64c.1 0 .2-.1.2-.2s.1-.2.2-.2h169.13" stroke="#5e5e5e" stroke-width="2" fill="none"/><path d="M2097.57-2058.82h-.72v-2h.72z" fill="#5e5e5e"/><path d="M2468.97-2060.22l-14.26 4.63v-9.26z" stroke="#5e5e5e" stroke-width="2" fill="#5e5e5e"/><use xlink:href="#d" transform="matrix(1,0,0,1,2257.668817518762,-2085.557733975498) translate(0 14.222222222222223)"/><use xlink:href="#e" transform="matrix(1,0,0,1,2257.668817518762,-2085.557733975498) translate(52.19753086419753 14.222222222222223)"/><path d="M2490.54-2331.35v8.05m0 8.05v8.04" stroke="#5e5e5e" stroke-width="2" fill="none"/><path d="M2491.54-2331.32h-2v-1.03h2z" fill="#5e5e5e"/><path d="M2490.54-2307.23v1.02" stroke="#5e5e5e" stroke-width="2" fill="none"/><path d="M2412.4-2414c0-3.3 2.7-6 6-6h144.28c3.32 0 6 2.7 6 6v74.15c0 3.32-2.68 6-6 6H2418.4c-3.3 0-6-2.68-6-6z" stroke="#5e5e5e" stroke-width="3" fill="#fff"/><use xlink:href="#f" transform="matrix(1,0,0,1,2412.4054041174227,-2420) translate(15.196358024691358 47.68402777777778)"/><path d="M2490.54-2261.97v-9.36m0-9.36v-18.7m0-9.35v-18.72m0-9.35v-9.36l-.13-.32-.3-.13-.32.13-.13.32v12.85m0 12.85v12.85M2490.54-2262v1.03" stroke="#5e5e5e" stroke-width="2" fill="none"/><path d="M2490.65-2306.63h-2v-1.02h2z" fill="#5e5e5e"/><path d="M2489.65-1412.37v19.34l.13.3.32.15.3.13.14.32v19.34" stroke="#5e5e5e" stroke-width="2" fill="none"/><path d="M2490.65-1412.35h-2v-1.02h2z" fill="#5e5e5e"/><path d="M2490.54-1372.82v1.03M2097.54-2194.45h495.78s.02 0 .02-.02h478.3" stroke="#5e5e5e" stroke-width="2" fill="none"/><path d="M2097.57-2193.45h-.72v-2h.72z" fill="#5e5e5e"/><path d="M3086.9-2194.48l-14.27 4.64v-9.27z" stroke="#5e5e5e" stroke-width="2" fill="#5e5e5e"/><use xlink:href="#g" transform="matrix(1,0,0,1,2612.1434698794005,-2219.8127803561115) translate(0 14.222222222222223)"/><use xlink:href="#h" transform="matrix(1,0,0,1,2612.1434698794005,-2219.8127803561115) translate(77.97530864197532 14.222222222222223)"/><use xlink:href="#i" transform="matrix(1,0,0,1,2612.1434698794005,-2219.8127803561115) translate(118.41975308641977 14.222222222222223)"/><path d="M2097.54-2287.85h186.4c.24 0 .44-.2.44-.42 0-.24.2-.43.43-.43h168.9" stroke="#5e5e5e" stroke-width="2" fill="none"/><path d="M2097.57-2286.85h-.72v-2h.72z" fill="#5e5e5e"/><path d="M2468.97-2288.7l-14.26 4.63v-9.27z" stroke="#5e5e5e" stroke-width="2" fill="#5e5e5e"/><use xlink:href="#j" transform="matrix(1,0,0,1,2203.3910917698922,-2314.0369189478606) translate(0 14.222222222222223)"/><use xlink:href="#k" transform="matrix(1,0,0,1,2203.3910917698922,-2314.0369189478606) translate(92.641975308642 14.222222222222223)"/><path d="M2471.2-2263.5h-10.36m-10.37 0h-20.74m-10.37 0h-20.75m-10.36 0h-20.74m-10.37 0h-20.74m-10.38 0h-20.74m-10.37 0h-10.36v.02h-10.34m-10.33 0h-20.65m-10.32 0h-20.66m-10.32 0h-20.65m-10.33 0h-20.65m-10.33 0h-20.65m-10.33 0h-10.33" stroke="#5e5e5e" stroke-width="2" fill="none"/><path d="M2472.2-2262.5h-1.02v-2h1.03z" fill="#5e5e5e"/><path d="M2116.03-2273.65l-17.22 10.18 17.23 10.18" stroke="#5e5e5e" stroke-width="2" fill="none"/><path d="M2473.7-2299.13c0-3.3 2.7-6 6-6h19.88c3.32 0 6 2.7 6 6v878.26c0 3.3-2.68 6-6 6h-19.87c-3.3 0-6-2.7-6-6z" stroke="#5e5e5e" stroke-width="3" fill="#fff"/><path d="M1900-2241.7c0-3.3 2.7-6 6-6h88c3.3 0 6 2.7 6 6v8c0 3.32-1.9 7.9-4.24 10.25l-1.52 1.52c-2.34 2.34-6.93 4.24-10.24 4.24h-78c-3.3 0-6-2.68-6-6z" fill="#fff"/><path d="M2000-2247.7v20l-10 10h-90" stroke="#5e5e5e" stroke-width="3" fill="none"/><path d="M1900-2241.7c0-3.3 2.7-6 6-6h1468c3.3 0 6 2.7 6 6v131.6c0 3.3-2.7 6-6 6H1906c-3.3 0-6-2.7-6-6z" stroke="#5e5e5e" stroke-width="3" fill="none"/><use xlink:href="#l" transform="matrix(1,0,0,1,1908,-2247.6923076923076) translate(0 19.444444444444443)"/><use xlink:href="#m" transform="matrix(1,0,0,1,1912,-2209.6923076923076) translate(0 19.444444444444443)"/><use xlink:href="#n" transform="matrix(1,0,0,1,1912,-2209.6923076923076) translate(38.20987654320988 19.444444444444443)"/><use xlink:href="#o" transform="matrix(1,0,0,1,1912,-2209.6923076923076) translate(92.53086419753086 19.444444444444443)"/><path d="M2471.2-2033.4h-10.36m-10.37 0h-20.74m-10.37 0h-20.75m-10.36 0h-20.74m-10.37 0h-20.74m-10.38 0h-20.74m-10.37 0h-20.7m-10.33 0h-20.65m-10.32 0h-20.66m-10.32 0h-20.65m-10.33 0h-20.65m-10.33 0h-20.65m-10.33 0h-10.33" stroke="#5e5e5e" stroke-width="2" fill="none"/><path d="M2472.2-2032.4h-1.02v-2h1.03z" fill="#5e5e5e"/><path d="M2116.03-2043.58l-17.22 10.18 17.23 10.18M2097.85-1962.55h355.86" stroke="#5e5e5e" stroke-width="2" fill="none"/><path d="M2097.87-1961.55h-1.02v-2h1.02z" fill="#5e5e5e"/><path d="M2468.97-1962.56l-14.26 4.63v-9.27z" stroke="#5e5e5e" stroke-width="2" fill="#5e5e5e"/><use xlink:href="#p" transform="matrix(1,0,0,1,2150.430055577371,-1987.8972324392769) translate(0 14.222222222222223)"/><use xlink:href="#q" transform="matrix(1,0,0,1,2150.430055577371,-1987.8972324392769) translate(55.20987654320988 14.222222222222223)"/><path d="M2471.2-1927.93h-10.36m-10.37 0h-20.74m-10.37 0h-20.75m-10.36 0h-20.74m-10.37 0h-20.74m-10.38 0h-20.74m-10.37 0h-10.36l-.02.02h-10.32m-10.33 0h-20.65m-10.32 0h-20.66m-10.32 0h-20.65m-10.33 0h-20.65m-10.33 0h-20.65m-10.33 0h-10.33" stroke="#5e5e5e" stroke-width="2" fill="none"/><path d="M2472.2-1926.93h-1.02v-2h1.03z" fill="#5e5e5e"/><path d="M2116.03-1938.1l-17.22 10.2 17.23 10.17M2097.85-1848.4h186.67c0-.02 0-.02.02-.02h169.17" stroke="#5e5e5e" stroke-width="2" fill="none"/><path d="M2097.87-1847.4h-1.02v-2h1.02z" fill="#5e5e5e"/><path d="M2468.97-1848.42l-14.26 4.63v-9.26z" stroke="#5e5e5e" stroke-width="2" fill="#5e5e5e"/><use xlink:href="#r" transform="matrix(1,0,0,1,2158.80041636781,-1873.7546648651953) translate(0 14.222222222222223)"/><use xlink:href="#q" transform="matrix(1,0,0,1,2158.80041636781,-1873.7546648651953) translate(38.46913580246913 14.222222222222223)"/><path d="M2508.08-1813.07h485.76c.06 0 .1-.05.1-.12 0-.05.06-.1.13-.1h468.25" stroke="#5e5e5e" stroke-width="2" fill="none"/><path d="M2508.1-1812.07h-1.02v-2h1.03z" fill="#5e5e5e"/><path d="M3477.6-1813.3l-14.28 4.64v-9.27z" stroke="#5e5e5e" stroke-width="2" fill="#5e5e5e"/><use xlink:href="#s" transform="matrix(1,0,0,1,2785.180021010039,-1838.4070423850567) translate(0 14.222222222222223)"/><use xlink:href="#t" transform="matrix(1,0,0,1,2785.180021010039,-1838.4070423850567) translate(72.64197530864197 14.222222222222223)"/><use xlink:href="#u" transform="matrix(1,0,0,1,2785.180021010039,-1838.4070423850567) translate(140.5925925925926 14.222222222222223)"/><path d="M3479.83-1793.84h-10.12m-10.1 0h-20.25m-10.12 0H3409m-10.13 0h-20.24m-10.12 0h-20.23m-10.12 0h-20.24m-10.1 0h-20.25m-10.12 0h-20.24m-10.13 0h-20.24m-10.12 0h-20.23m-10.12 0h-20.24m-10.1 0h-20.25m-10.12 0h-20.24m-10.13 0h-20.24m-10.12 0h-20.23m-10.12 0h-20.24m-10.1 0h-10.13l-.08.03-.05.07-.03.08-.08.04h-10.1m-10.1 0h-20.2m-10.12 0h-20.2m-10.1 0h-20.2m-10.1 0h-20.22m-10.1 0h-20.2m-10.1 0h-20.22m-10.1 0h-20.2m-10.1 0h-20.2m-10.12 0h-20.2m-10.1 0h-20.2m-10.1 0h-20.22m-10.1 0h-20.2m-10.1 0h-20.22m-10.1 0h-20.2m-10.1 0h-20.2m-10.12 0h-10.1" stroke="#5e5e5e" stroke-width="2" fill="none"/><path d="M3480.83-1792.84h-1.03v-2h1.03z" fill="#5e5e5e"/><path d="M2526.26-1803.8l-17.2 10.2 17.2 10.17M2508.08-1750.14h485.75c.07 0 .12-.05.12-.12 0-.07.06-.12.13-.12h468.24" stroke="#5e5e5e" stroke-width="2" fill="none"/><path d="M2508.1-1749.14h-1.02v-2h1.03z" fill="#5e5e5e"/><path d="M3477.6-1750.38l-14.28 4.63v-9.27z" stroke="#5e5e5e" stroke-width="2" fill="#5e5e5e"/><use xlink:href="#v" transform="matrix(1,0,0,1,2769.6970664087003,-1775.470151239377) translate(0 14.222222222222223)"/><use xlink:href="#q" transform="matrix(1,0,0,1,2769.6970664087003,-1775.470151239377) translate(51.25925925925926 14.222222222222223)"/><path d="M3479.83-1719.82h-10.12m-10.1 0h-20.25m-10.12 0H3409m-10.13 0h-20.24m-10.12 0h-20.23m-10.12 0h-20.24m-10.1 0h-20.25m-10.12 0h-20.24m-10.13 0h-20.24m-10.12 0h-20.22m-10.12 0h-20.24m-10.12 0h-20.24m-10.12 0h-20.24m-10.12 0h-20.24m-10.12 0h-20.24m-10.12 0h-20.24m-10.12 0h-10.12l-.1.03-.03.1-.03.1-.1.03h-10.1m-10.1 0h-20.2m-10.1 0h-20.2m-10.12 0h-20.2m-10.1 0h-20.2m-10.1 0h-20.22m-10.1 0h-20.2m-10.1 0h-20.2m-10.12 0h-20.2m-10.1 0h-20.2m-10.1 0h-20.22m-10.1 0h-20.2m-10.1 0h-20.2m-10.1 0h-20.22m-10.1 0h-20.2m-10.1 0h-20.22m-10.1 0h-10.1" stroke="#5e5e5e" stroke-width="2" fill="none"/><path d="M3480.83-1718.82h-1.03v-2h1.03z" fill="#5e5e5e"/><path d="M2526.26-1729.75l-17.2 10.18 17.2 10.18M2471.2-1703.77h-10.36m-10.37 0h-20.74m-10.37 0h-20.75m-10.36 0h-20.74m-10.37 0h-20.74m-10.38 0h-20.74m-10.37 0h-20.7m-10.33 0h-20.65m-10.32 0h-20.66m-10.32 0h-20.65m-10.33 0h-20.65m-10.33 0h-20.65m-10.33 0h-10.33" stroke="#5e5e5e" stroke-width="2" fill="none"/><path d="M2472.2-1702.77h-1.02v-2h1.03z" fill="#5e5e5e"/><path d="M2116.03-1713.94l-17.22 10.18 17.23 10.2" stroke="#5e5e5e" stroke-width="2" fill="none"/><path d="M1844.65-2494c0-3.3 2.68-6 6-6H2519c3.3 0 6 2.7 6 6v8c0 3.3-1.9 7.9-4.24 10.24l-1.52 1.52c-2.34 2.34-6.93 4.24-10.24 4.24h-658.35c-3.32 0-6-2.7-6-6z" fill="#fff"/><path d="M2525-2500v20l-10 10h-670.35" stroke="#5e5e5e" stroke-width="3" fill="none"/><path d="M1844.65-2494c0-3.3 2.68-6 6-6H3634c3.3 0 6 2.7 6 6v1148c0 3.3-2.7 6-6 6H1850.65c-3.32 0-6-2.7-6-6z" stroke="#5e5e5e" stroke-width="3" fill="none"/><g><use xlink:href="#w" transform="matrix(1,0,0,1,1852.6452535264962,-2500) translate(0 19.444444444444443)"/><use xlink:href="#x" transform="matrix(1,0,0,1,1852.6452535264962,-2500) translate(102.46913580246914 19.444444444444443)"/><use xlink:href="#y" transform="matrix(1,0,0,1,1852.6452535264962,-2500) translate(188.7037037037037 19.444444444444443)"/><use xlink:href="#z" transform="matrix(1,0,0,1,1852.6452535264962,-2500) translate(276.7283950617284 19.444444444444443)"/><use xlink:href="#A" transform="matrix(1,0,0,1,1852.6452535264962,-2500) translate(402.5308641975309 19.444444444444443)"/><use xlink:href="#B" transform="matrix(1,0,0,1,1852.6452535264962,-2500) translate(491.2962962962963 19.444444444444443)"/></g><path d="M3120.86-2204.2h33c3.3 0 6 2.68 6 6v24.6c0 3.33-2.7 6-6 6h-15.5" stroke="#5e5e5e" stroke-width="2" fill="none"/><path d="M3120.9-2203.2h-1.04v-2h1.03z" fill="#5e5e5e"/><path d="M3123.1-2167.6l14.26-4.62v9.27z" stroke="#5e5e5e" stroke-width="2" fill="#5e5e5e"/><g><use xlink:href="#g" transform="matrix(1,0,0,1,3167.860274976744,-2196.5624441973214) translate(0 14.222222222222223)"/><use xlink:href="#h" transform="matrix(1,0,0,1,3167.860274976744,-2196.5624441973214) translate(77.97530864197532 14.222222222222223)"/><use xlink:href="#C" transform="matrix(1,0,0,1,3167.860274976744,-2196.5624441973214) translate(118.41975308641977 14.222222222222223)"/></g><defs><path fill="#333" d="M33-154v-36h34v36H33zM33 0v-36h34V0H33" id="D"/><path fill="#333" d="M194 0L95-120 63-95V0H30v-248h33v124l119-124h40L117-140 236 0h-42" id="E"/><path fill="#333" d="M24 0v-261h32V0H24" id="F"/><path fill="#333" d="M24-231v-30h32v30H24zM24 0v-190h32V0H24" id="G"/><path fill="#333" d="M100-194c63 0 86 42 84 106H49c0 40 14 67 53 68 26 1 43-12 49-29l28 8c-11 28-37 45-77 45C44 4 14-33 15-96c1-61 26-98 85-98zm52 81c6-60-76-77-97-28-3 7-6 17-6 28h103" id="H"/><path fill="#333" d="M117-194c89-4 53 116 60 194h-32v-121c0-31-8-49-39-48C34-167 62-67 57 0H25l-1-190h30c1 10-1 24 2 32 11-22 29-35 61-36" id="I"/><path fill="#333" d="M59-47c-2 24 18 29 38 22v24C64 9 27 4 27-40v-127H5v-23h24l9-43h21v43h35v23H59v120" id="J"/><g id="a"><use transform="matrix(0.06172839506172839,0,0,0.06172839506172839,0,0)" xlink:href="#D"/><use transform="matrix(0.06172839506172839,0,0,0.06172839506172839,6.172839506172839,0)" xlink:href="#E"/><use transform="matrix(0.06172839506172839,0,0,0.06172839506172839,20.98765432098765,0)" xlink:href="#F"/><use transform="matrix(0.06172839506172839,0,0,0.06172839506172839,25.864197530864196,0)" xlink:href="#G"/><use transform="matrix(0.06172839506172839,0,0,0.06172839506172839,30.74074074074074,0)" xlink:href="#H"/><use transform="matrix(0.06172839506172839,0,0,0.06172839506172839,43.08641975308642,0)" xlink:href="#I"/><use transform="matrix(0.06172839506172839,0,0,0.06172839506172839,55.432098765432094,0)" xlink:href="#J"/></g><path fill="#333" d="M30-248c87 1 191-15 191 75 0 78-77 80-158 76V0H30v-248zm33 125c57 0 124 11 124-50 0-59-68-47-124-48v98" id="K"/><path fill="#333" d="M24 0v-95L3-83v-28l21-12v-138h32v120l22-13v28l-22 12V0H24" id="L"/><path fill="#333" d="M141-36C126-15 110 5 73 4 37 3 15-17 15-53c-1-64 63-63 125-63 3-35-9-54-41-54-24 1-41 7-42 31l-33-3c5-37 33-52 76-52 45 0 72 20 72 64v82c-1 20 7 32 28 27v20c-31 9-61-2-59-35zM48-53c0 20 12 33 32 33 41-3 63-29 60-74-43 2-92-5-92 41" id="M"/><path fill="#333" d="M100-194c62-1 85 37 85 99 1 63-27 99-86 99S16-35 15-95c0-66 28-99 85-99zM99-20c44 1 53-31 53-75 0-43-8-75-51-75s-53 32-53 75 10 74 51 75" id="N"/><path fill="#333" d="M135-143c-3-34-86-38-87 0 15 53 115 12 119 90S17 21 10-45l28-5c4 36 97 45 98 0-10-56-113-15-118-90-4-57 82-63 122-42 12 7 21 19 24 35zm-67-68c8-23 27-35 38-54h36v5l-58 49H68" id="O"/><path fill="#333" d="M96-169c-40 0-48 33-48 73s9 75 48 75c24 0 41-14 43-38l32 2c-6 37-31 61-74 61-59 0-76-41-82-99-10-93 101-131 147-64 4 7 5 14 7 22l-32 3c-4-21-16-35-41-35zm-20-42c8-23 27-35 38-54h36v5l-58 49H76" id="P"/><g id="b"><use transform="matrix(0.06172839506172839,0,0,0.06172839506172839,0,0)" xlink:href="#D"/><use transform="matrix(0.06172839506172839,0,0,0.06172839506172839,6.172839506172839,0)" xlink:href="#K"/><use transform="matrix(0.06172839506172839,0,0,0.06172839506172839,20.98765432098765,0)" xlink:href="#L"/><use transform="matrix(0.06172839506172839,0,0,0.06172839506172839,25.864197530864196,0)" xlink:href="#M"/><use transform="matrix(0.06172839506172839,0,0,0.06172839506172839,38.20987654320987,0)" xlink:href="#J"/><use transform="matrix(0.06172839506172839,0,0,0.06172839506172839,44.382716049382715,0)" xlink:href="#I"/><use transform="matrix(0.06172839506172839,0,0,0.06172839506172839,56.72839506172839,0)" xlink:href="#N"/><use transform="matrix(0.06172839506172839,0,0,0.06172839506172839,69.07407407407408,0)" xlink:href="#O"/><use transform="matrix(0.06172839506172839,0,0,0.06172839506172839,80.18518518518519,0)" xlink:href="#P"/></g><path fill="#333" d="M233-177c-1 41-23 64-60 70L243 0h-38l-65-103H63V0H30v-248c88 3 205-21 203 71zM63-129c60-2 137 13 137-47 0-61-80-42-137-45v92" id="Q"/><path fill="#333" d="M206 0h-36l-40-164L89 0H53L-1-190h32L70-26l43-164h34l41 164 42-164h31" id="R"/><path fill="#333" d="M114-163C36-179 61-72 57 0H25l-1-190h30c1 12-1 29 2 39 6-27 23-49 58-41v29" id="S"/><g id="c"><use transform="matrix(0.06172839506172839,0,0,0.06172839506172839,0,0)" xlink:href="#D"/><use transform="matrix(0.06172839506172839,0,0,0.06172839506172839,6.172839506172839,0)" xlink:href="#Q"/><use transform="matrix(0.06172839506172839,0,0,0.06172839506172839,22.160493827160494,0)" xlink:href="#N"/><use transform="matrix(0.06172839506172839,0,0,0.06172839506172839,34.50617283950617,0)" xlink:href="#R"/><use transform="matrix(0.06172839506172839,0,0,0.06172839506172839,50.49382716049382,0)" xlink:href="#H"/><use transform="matrix(0.06172839506172839,0,0,0.06172839506172839,62.8395061728395,0)" xlink:href="#S"/></g><path fill="#333" d="M88-194c31-1 46 15 58 34l-1-101h50l1 261h-48c-2-10 0-23-3-31C134-8 116 4 84 4 32 4 16-41 15-95c0-56 19-97 73-99zm17 164c33 0 40-30 41-66 1-37-9-64-41-64s-38 30-39 65c0 43 13 65 39 65" id="T"/><path fill="#333" d="M110-194c64 0 96 36 96 99 0 64-35 99-97 99-61 0-95-36-95-99 0-62 34-99 96-99zm-1 164c35 0 45-28 45-65 0-40-10-65-43-65-34 0-45 26-45 65 0 36 10 65 43 65" id="U"/><path fill="#333" d="M133-34C117-15 103 5 69 4 32 3 11-16 11-54c-1-60 55-63 116-61 1-26-3-47-28-47-18 1-26 9-28 27l-52-2c7-38 36-58 82-57s74 22 75 68l1 82c-1 14 12 18 25 15v27c-30 8-71 5-69-32zm-48 3c29 0 43-24 42-57-32 0-66-3-65 30 0 17 8 27 23 27" id="V"/><path fill="#333" d="M25-224v-37h50v37H25zM75 22c2 45-34 59-81 51V38c22 5 31-5 31-27v-201h50V22" id="W"/><g id="d"><use transform="matrix(0.04938271604938272,0,0,0.04938271604938272,0,0)" xlink:href="#T"/><use transform="matrix(0.04938271604938272,0,0,0.04938271604938272,10.814814814814815,0)" xlink:href="#U"/><use transform="matrix(0.04938271604938272,0,0,0.04938271604938272,21.62962962962963,0)" xlink:href="#T"/><use transform="matrix(0.04938271604938272,0,0,0.04938271604938272,32.44444444444444,0)" xlink:href="#V"/><use transform="matrix(0.04938271604938272,0,0,0.04938271604938272,42.32098765432099,0)" xlink:href="#W"/></g><path fill="#333" d="M135-150c-39-12-60 13-60 57V0H25l-1-190h47c2 13-1 29 3 40 6-28 27-53 61-41v41" id="X"/><path fill="#333" d="M231 0h-52l-39-155L100 0H48L-1-190h46L77-45c9-52 24-97 36-145h53l37 145 32-145h46" id="Y"/><path fill="#333" d="M185-48c-13 30-37 53-82 52C43 2 14-33 14-96s30-98 90-98c62 0 83 45 84 108H66c0 31 8 55 39 56 18 0 30-7 34-22zm-45-69c5-46-57-63-70-21-2 6-4 13-4 21h74" id="Z"/><path fill="#333" d="M67-93c0 74 22 123 53 168H70C40 30 18-18 18-93s22-123 52-168h50c-32 44-53 94-53 168" id="aa"/><path fill="#333" d="M240-174c0 40-23 61-54 70L253 0h-59l-57-94H76V0H24v-248c93 4 217-23 216 74zM76-134c48-2 112 12 112-38 0-48-66-32-112-35v73" id="ab"/><path fill="#333" d="M102-93c0 74-22 123-52 168H0C30 29 54-18 53-93c0-74-22-123-53-168h50c30 45 52 94 52 168" id="ac"/><g id="e"><use transform="matrix(0.04938271604938272,0,0,0.04938271604938272,0,0)" xlink:href="#X"/><use transform="matrix(0.04938271604938272,0,0,0.04938271604938272,6.913580246913581,0)" xlink:href="#U"/><use transform="matrix(0.04938271604938272,0,0,0.04938271604938272,17.728395061728396,0)" xlink:href="#Y"/><use transform="matrix(0.04938271604938272,0,0,0.04938271604938272,31.555555555555557,0)" xlink:href="#Z"/><use transform="matrix(0.04938271604938272,0,0,0.04938271604938272,41.4320987654321,0)" xlink:href="#X"/><use transform="matrix(0.04938271604938272,0,0,0.04938271604938272,48.345679012345684,0)" xlink:href="#aa"/><use transform="matrix(0.04938271604938272,0,0,0.04938271604938272,54.22222222222223,0)" xlink:href="#ab"/><use transform="matrix(0.04938271604938272,0,0,0.04938271604938272,67.01234567901236,0)" xlink:href="#U"/><use transform="matrix(0.04938271604938272,0,0,0.04938271604938272,77.82716049382717,0)" xlink:href="#Y"/><use transform="matrix(0.04938271604938272,0,0,0.04938271604938272,91.65432098765433,0)" xlink:href="#Z"/><use transform="matrix(0.04938271604938272,0,0,0.04938271604938272,101.53086419753087,0)" xlink:href="#X"/><use transform="matrix(0.04938271604938272,0,0,0.04938271604938272,108.44444444444446,0)" xlink:href="#ac"/></g><path fill="#333" d="M209 0H11v-25l151-195H24v-28h176v25L50-27h159V0" id="ad"/><path fill="#333" d="M210-169c-67 3-38 105-44 169h-31v-121c0-29-5-50-35-48C34-165 62-65 56 0H25l-1-190h30c1 10-1 24 2 32 10-44 99-50 107 0 11-21 27-35 58-36 85-2 47 119 55 194h-31v-121c0-29-5-49-35-48" id="ae"/><path fill="#333" d="M100-194c62-1 85 37 85 99 1 63-27 99-86 99S16-35 15-95c0-66 28-99 85-99zM99-20c44 1 53-31 53-75 0-43-8-75-51-75s-53 32-53 75 10 74 51 75zM76-211c8-23 27-35 38-54h36v5l-58 49H76" id="af"/><g id="f"><use transform="matrix(0.06172839506172839,0,0,0.06172839506172839,0,0)" xlink:href="#D"/><use transform="matrix(0.06172839506172839,0,0,0.06172839506172839,6.172839506172839,0)" xlink:href="#ad"/><use transform="matrix(0.06172839506172839,0,0,0.06172839506172839,19.691358024691358,0)" xlink:href="#M"/><use transform="matrix(0.06172839506172839,0,0,0.06172839506172839,32.03703703703704,0)" xlink:href="#ae"/><use transform="matrix(0.06172839506172839,0,0,0.06172839506172839,50.49382716049382,0)" xlink:href="#af"/><use transform="matrix(0.06172839506172839,0,0,0.06172839506172839,62.8395061728395,0)" xlink:href="#R"/><use transform="matrix(0.06172839506172839,0,0,0.06172839506172839,78.82716049382715,0)" xlink:href="#G"/><use transform="matrix(0.06172839506172839,0,0,0.06172839506172839,83.7037037037037,0)" xlink:href="#H"/><use transform="matrix(0.06172839506172839,0,0,0.06172839506172839,96.04938271604938,0)" xlink:href="#I"/><use transform="matrix(0.06172839506172839,0,0,0.06172839506172839,108.39506172839506,0)" xlink:href="#G"/><use transform="matrix(0.06172839506172839,0,0,0.06172839506172839,113.27160493827161,0)" xlink:href="#H"/></g><path fill="#333" d="M123 10C108 53 80 86 19 72V37c35 8 53-11 59-39L3-190h52l48 148c12-52 28-100 44-148h51" id="ag"/><path fill="#333" d="M137-138c1-29-70-34-71-4 15 46 118 7 119 86 1 83-164 76-172 9l43-7c4 19 20 25 44 25 33 8 57-30 24-41C81-84 22-81 20-136c-2-80 154-74 161-7" id="ah"/><path fill="#333" d="M25-224v-37h50v37H25zM25 0v-190h50V0H25" id="ai"/><path fill="#333" d="M115-3C79 11 28 4 28-45v-112H4v-33h27l15-45h31v45h36v33H77v99c-1 23 16 31 38 25v30" id="aj"/><path fill="#333" d="M25 0v-261h50V0H25" id="ak"/><g id="g"><use transform="matrix(0.04938271604938272,0,0,0.04938271604938272,0,0)" xlink:href="#Y"/><use transform="matrix(0.04938271604938272,0,0,0.04938271604938272,13.827160493827162,0)" xlink:href="#ag"/><use transform="matrix(0.04938271604938272,0,0,0.04938271604938272,23.703703703703706,0)" xlink:href="#ah"/><use transform="matrix(0.04938271604938272,0,0,0.04938271604938272,33.580246913580254,0)" xlink:href="#Y"/><use transform="matrix(0.04938271604938272,0,0,0.04938271604938272,47.40740740740742,0)" xlink:href="#ai"/><use transform="matrix(0.04938271604938272,0,0,0.04938271604938272,52.34567901234569,0)" xlink:href="#Z"/><use transform="matrix(0.04938271604938272,0,0,0.04938271604938272,62.222222222222236,0)" xlink:href="#aj"/><use transform="matrix(0.04938271604938272,0,0,0.04938271604938272,68.09876543209877,0)" xlink:href="#ak"/></g><g id="h"><use transform="matrix(0.04938271604938272,0,0,0.04938271604938272,0,0)" xlink:href="#ak"/><use transform="matrix(0.04938271604938272,0,0,0.04938271604938272,4.938271604938272,0)" xlink:href="#ai"/><use transform="matrix(0.04938271604938272,0,0,0.04938271604938272,9.876543209876544,0)" xlink:href="#ah"/><use transform="matrix(0.04938271604938272,0,0,0.04938271604938272,19.75308641975309,0)" xlink:href="#aj"/><use transform="matrix(0.04938271604938272,0,0,0.04938271604938272,25.629629629629633,0)" xlink:href="#Z"/></g><path fill="#333" d="M110-194c64 0 96 36 96 99 0 64-35 99-97 99-61 0-95-36-95-99 0-62 34-99 96-99zm-1 164c35 0 45-28 45-65 0-40-10-65-43-65-34 0-45 26-45 65 0 36 10 65 43 65zM81-208v-5l45-51h45v8l-60 48H81" id="al"/><g id="i"><use transform="matrix(0.04938271604938272,0,0,0.04938271604938272,0,0)" xlink:href="#X"/><use transform="matrix(0.04938271604938272,0,0,0.04938271604938272,6.913580246913581,0)" xlink:href="#U"/><use transform="matrix(0.04938271604938272,0,0,0.04938271604938272,17.728395061728396,0)" xlink:href="#Y"/><use transform="matrix(0.04938271604938272,0,0,0.04938271604938272,31.555555555555557,0)" xlink:href="#Z"/><use transform="matrix(0.04938271604938272,0,0,0.04938271604938272,41.4320987654321,0)" xlink:href="#X"/><use transform="matrix(0.04938271604938272,0,0,0.04938271604938272,48.345679012345684,0)" xlink:href="#al"/><use transform="matrix(0.04938271604938272,0,0,0.04938271604938272,59.1604938271605,0)" xlink:href="#Y"/><use transform="matrix(0.04938271604938272,0,0,0.04938271604938272,72.98765432098766,0)" xlink:href="#aa"/><use transform="matrix(0.04938271604938272,0,0,0.04938271604938272,78.8641975308642,0)" xlink:href="#ac"/></g><path fill="#333" d="M12 0v-35l95-120H19v-35h142v35L67-36h103V0H12" id="am"/><path fill="#333" d="M135-194c53 0 70 44 70 98 0 56-19 98-73 100-31 1-45-17-59-34 3 33 2 69 2 105H25l-1-265h48c2 10 0 23 3 31 11-24 29-35 60-35zM114-30c33 0 39-31 40-66 0-38-9-64-40-64-56 0-55 130 0 130" id="an"/><path fill="#333" d="M190-63c-7 42-38 67-86 67-59 0-84-38-90-98-12-110 154-137 174-36l-49 2c-2-19-15-32-35-32-30 0-35 28-38 64-6 74 65 87 74 30" id="ao"/><path fill="#333" d="M135-194c87-1 58 113 63 194h-50c-7-57 23-157-34-157-59 0-34 97-39 157H25l-1-190h47c2 12-1 28 3 38 12-26 28-41 61-42" id="ap"/><g id="j"><use transform="matrix(0.04938271604938272,0,0,0.04938271604938272,0,0)" xlink:href="#X"/><use transform="matrix(0.04938271604938272,0,0,0.04938271604938272,6.913580246913581,0)" xlink:href="#U"/><use transform="matrix(0.04938271604938272,0,0,0.04938271604938272,17.728395061728396,0)" xlink:href="#am"/><use transform="matrix(0.04938271604938272,0,0,0.04938271604938272,26.617283950617285,0)" xlink:href="#an"/><use transform="matrix(0.04938271604938272,0,0,0.04938271604938272,37.4320987654321,0)" xlink:href="#U"/><use transform="matrix(0.04938271604938272,0,0,0.04938271604938272,48.24691358024692,0)" xlink:href="#ao"/><use transform="matrix(0.04938271604938272,0,0,0.04938271604938272,58.12345679012346,0)" xlink:href="#am"/><use transform="matrix(0.04938271604938272,0,0,0.04938271604938272,67.01234567901236,0)" xlink:href="#ap"/><use transform="matrix(0.04938271604938272,0,0,0.04938271604938272,77.82716049382717,0)" xlink:href="#ai"/><use transform="matrix(0.04938271604938272,0,0,0.04938271604938272,82.76543209876544,0)" xlink:href="#W"/></g><path fill="#333" d="M220-157c-53 9-28 100-34 157h-49v-107c1-27-5-49-29-50C55-147 81-57 75 0H25l-1-190h47c2 12-1 28 3 38 10-53 101-56 108 0 13-22 24-43 59-42 82 1 51 116 57 194h-49v-107c-1-25-5-48-29-50" id="aq"/><g id="k"><use transform="matrix(0.04938271604938272,0,0,0.04938271604938272,0,0)" xlink:href="#am"/><use transform="matrix(0.04938271604938272,0,0,0.04938271604938272,8.88888888888889,0)" xlink:href="#V"/><use transform="matrix(0.04938271604938272,0,0,0.04938271604938272,18.765432098765434,0)" xlink:href="#aq"/><use transform="matrix(0.04938271604938272,0,0,0.04938271604938272,34.567901234567906,0)" xlink:href="#al"/><use transform="matrix(0.04938271604938272,0,0,0.04938271604938272,45.38271604938272,0)" xlink:href="#Y"/><use transform="matrix(0.04938271604938272,0,0,0.04938271604938272,59.209876543209894,0)" xlink:href="#ai"/><use transform="matrix(0.04938271604938272,0,0,0.04938271604938272,64.14814814814815,0)" xlink:href="#Z"/><use transform="matrix(0.04938271604938272,0,0,0.04938271604938272,74.0246913580247,0)" xlink:href="#ap"/><use transform="matrix(0.04938271604938272,0,0,0.04938271604938272,84.8395061728395,0)" xlink:href="#ai"/><use transform="matrix(0.04938271604938272,0,0,0.04938271604938272,89.77777777777777,0)" xlink:href="#Z"/><use transform="matrix(0.04938271604938272,0,0,0.04938271604938272,99.65432098765432,0)" xlink:href="#aa"/><use transform="matrix(0.04938271604938272,0,0,0.04938271604938272,105.53086419753085,0)" xlink:href="#ac"/></g><path fill="#333" d="M30 0v-248h33v221h125V0H30" id="ar"/><path fill="#333" d="M115-194c55 1 70 41 70 98S169 2 115 4C84 4 66-9 55-30l1 105H24l-1-265h31l2 30c10-21 28-34 59-34zm-8 174c40 0 45-34 45-75s-6-73-45-74c-42 0-51 32-51 76 0 43 10 73 51 73" id="as"/><g id="l"><use transform="matrix(0.06172839506172839,0,0,0.06172839506172839,0,0)" xlink:href="#ar"/><use transform="matrix(0.06172839506172839,0,0,0.06172839506172839,12.345679012345679,0)" xlink:href="#N"/><use transform="matrix(0.06172839506172839,0,0,0.06172839506172839,24.691358024691358,0)" xlink:href="#N"/><use transform="matrix(0.06172839506172839,0,0,0.06172839506172839,37.03703703703704,0)" xlink:href="#as"/></g><path fill="#333" d="M26 75v-336h71v23H56V52h41v23H26" id="at"/><path fill="#333" d="M101-234c-31-9-42 10-38 44h38v23H63V0H32v-167H5v-23h27c-7-52 17-82 69-68v24" id="au"/><g id="m"><use transform="matrix(0.06172839506172839,0,0,0.06172839506172839,0,0)" xlink:href="#at"/><use transform="matrix(0.06172839506172839,0,0,0.06172839506172839,6.172839506172839,0)" xlink:href="#au"/><use transform="matrix(0.06172839506172839,0,0,0.06172839506172839,12.345679012345679,0)" xlink:href="#N"/><use transform="matrix(0.06172839506172839,0,0,0.06172839506172839,24.691358024691358,0)" xlink:href="#S"/></g><path fill="#333" d="M96-169c-40 0-48 33-48 73s9 75 48 75c24 0 41-14 43-38l32 2c-6 37-31 61-74 61-59 0-76-41-82-99-10-93 101-131 147-64 4 7 5 14 7 22l-32 3c-4-21-16-35-41-35" id="av"/><path fill="#333" d="M106-169C34-169 62-67 57 0H25v-261h32l-1 103c12-21 28-36 61-36 89 0 53 116 60 194h-32v-121c2-32-8-49-39-48" id="aw"/><g id="n"><use transform="matrix(0.06172839506172839,0,0,0.06172839506172839,0,0)" xlink:href="#H"/><use transform="matrix(0.06172839506172839,0,0,0.06172839506172839,12.345679012345679,0)" xlink:href="#M"/><use transform="matrix(0.06172839506172839,0,0,0.06172839506172839,24.691358024691358,0)" xlink:href="#av"/><use transform="matrix(0.06172839506172839,0,0,0.06172839506172839,35.80246913580247,0)" xlink:href="#aw"/></g><path fill="#333" d="M115-194c53 0 69 39 70 98 0 66-23 100-70 100C84 3 66-7 56-30L54 0H23l1-261h32v101c10-23 28-34 59-34zm-8 174c40 0 45-34 45-75 0-40-5-75-45-74-42 0-51 32-51 76 0 43 10 73 51 73" id="ax"/><path fill="#333" d="M143 0L79-87 56-68V0H24v-261h32v163l83-92h37l-77 82L181 0h-38" id="ay"/><path fill="#333" d="M3 75V52h41v-290H3v-23h71V75H3" id="az"/><g id="o"><use transform="matrix(0.06172839506172839,0,0,0.06172839506172839,0,0)" xlink:href="#ax"/><use transform="matrix(0.06172839506172839,0,0,0.06172839506172839,12.345679012345679,0)" xlink:href="#G"/><use transform="matrix(0.06172839506172839,0,0,0.06172839506172839,17.22222222222222,0)" xlink:href="#ay"/><use transform="matrix(0.06172839506172839,0,0,0.06172839506172839,28.333333333333332,0)" xlink:href="#H"/><use transform="matrix(0.06172839506172839,0,0,0.06172839506172839,40.67901234567901,0)" xlink:href="#az"/></g><path fill="#333" d="M147 0L96-86 75-71V0H25v-261h50v150l67-79h53l-66 74L201 0h-54" id="aA"/><path fill="#333" d="M12 0v-35l95-120H19v-35h142v35L67-36h103V0H12zm56-223v-36h50v36H68" id="aB"/><g id="p"><use transform="matrix(0.04938271604938272,0,0,0.04938271604938272,0,0)" xlink:href="#an"/><use transform="matrix(0.04938271604938272,0,0,0.04938271604938272,10.814814814814815,0)" xlink:href="#U"/><use transform="matrix(0.04938271604938272,0,0,0.04938271604938272,21.62962962962963,0)" xlink:href="#aA"/><use transform="matrix(0.04938271604938272,0,0,0.04938271604938272,31.506172839506174,0)" xlink:href="#V"/><use transform="matrix(0.04938271604938272,0,0,0.04938271604938272,41.38271604938272,0)" xlink:href="#aB"/></g><path fill="#333" d="M210 0H11v-37l134-170H24v-41h178v36L68-41h142V0" id="aC"/><g id="q"><use transform="matrix(0.04938271604938272,0,0,0.04938271604938272,0,0)" xlink:href="#am"/><use transform="matrix(0.04938271604938272,0,0,0.04938271604938272,8.88888888888889,0)" xlink:href="#V"/><use transform="matrix(0.04938271604938272,0,0,0.04938271604938272,18.765432098765434,0)" xlink:href="#aq"/><use transform="matrix(0.04938271604938272,0,0,0.04938271604938272,34.567901234567906,0)" xlink:href="#al"/><use transform="matrix(0.04938271604938272,0,0,0.04938271604938272,45.38271604938272,0)" xlink:href="#Y"/><use transform="matrix(0.04938271604938272,0,0,0.04938271604938272,59.209876543209894,0)" xlink:href="#ai"/><use transform="matrix(0.04938271604938272,0,0,0.04938271604938272,64.14814814814815,0)" xlink:href="#Z"/><use transform="matrix(0.04938271604938272,0,0,0.04938271604938272,74.0246913580247,0)" xlink:href="#ap"/><use transform="matrix(0.04938271604938272,0,0,0.04938271604938272,84.8395061728395,0)" xlink:href="#ai"/><use transform="matrix(0.04938271604938272,0,0,0.04938271604938272,89.77777777777777,0)" xlink:href="#Z"/><use transform="matrix(0.04938271604938272,0,0,0.04938271604938272,99.65432098765432,0)" xlink:href="#aa"/><use transform="matrix(0.04938271604938272,0,0,0.04938271604938272,105.53086419753085,0)" xlink:href="#aC"/><use transform="matrix(0.04938271604938272,0,0,0.04938271604938272,116.34567901234567,0)" xlink:href="#V"/><use transform="matrix(0.04938271604938272,0,0,0.04938271604938272,126.22222222222221,0)" xlink:href="#aq"/><use transform="matrix(0.04938271604938272,0,0,0.04938271604938272,142.02469135802468,0)" xlink:href="#al"/><use transform="matrix(0.04938271604938272,0,0,0.04938271604938272,152.8395061728395,0)" xlink:href="#Y"/><use transform="matrix(0.04938271604938272,0,0,0.04938271604938272,166.66666666666666,0)" xlink:href="#ai"/><use transform="matrix(0.04938271604938272,0,0,0.04938271604938272,171.60493827160494,0)" xlink:href="#Z"/><use transform="matrix(0.04938271604938272,0,0,0.04938271604938272,181.48148148148147,0)" xlink:href="#ap"/><use transform="matrix(0.04938271604938272,0,0,0.04938271604938272,192.29629629629628,0)" xlink:href="#ai"/><use transform="matrix(0.04938271604938272,0,0,0.04938271604938272,197.23456790123456,0)" xlink:href="#Z"/><use transform="matrix(0.04938271604938272,0,0,0.04938271604938272,207.1111111111111,0)" xlink:href="#ac"/></g><path fill="#333" d="M75-126V0H25v-99L3-86v-38l22-12v-125h50v97l22-13v38" id="aD"/><g id="r"><use transform="matrix(0.04938271604938272,0,0,0.04938271604938272,0,0)" xlink:href="#am"/><use transform="matrix(0.04938271604938272,0,0,0.04938271604938272,8.88888888888889,0)" xlink:href="#aD"/><use transform="matrix(0.04938271604938272,0,0,0.04938271604938272,13.827160493827162,0)" xlink:href="#al"/><use transform="matrix(0.04938271604938272,0,0,0.04938271604938272,24.641975308641975,0)" xlink:href="#aB"/></g><path fill="#333" d="M275 0h-61l-44-196L126 0H64L0-248h53L97-49l45-199h58l43 199 44-199h52" id="aE"/><path fill="#333" d="M135-194c52 0 70 43 70 98 0 56-19 99-73 100-30 1-46-15-58-35L72 0H24l1-261h50v104c11-23 29-37 60-37zM114-30c31 0 40-27 40-66 0-37-7-63-39-63s-41 28-41 65c0 36 8 64 40 64" id="aF"/><g id="s"><use transform="matrix(0.04938271604938272,0,0,0.04938271604938272,0,0)" xlink:href="#aE"/><use transform="matrix(0.04938271604938272,0,0,0.04938271604938272,16.39506172839506,0)" xlink:href="#ag"/><use transform="matrix(0.04938271604938272,0,0,0.04938271604938272,26.271604938271608,0)" xlink:href="#aF"/><use transform="matrix(0.04938271604938272,0,0,0.04938271604938272,37.08641975308642,0)" xlink:href="#ai"/><use transform="matrix(0.04938271604938272,0,0,0.04938271604938272,42.02469135802469,0)" xlink:href="#Z"/><use transform="matrix(0.04938271604938272,0,0,0.04938271604938272,51.90123456790124,0)" xlink:href="#X"/><use transform="matrix(0.04938271604938272,0,0,0.04938271604938272,58.81481481481482,0)" xlink:href="#am"/></g><g id="t"><use transform="matrix(0.04938271604938272,0,0,0.04938271604938272,0,0)" xlink:href="#ah"/><use transform="matrix(0.04938271604938272,0,0,0.04938271604938272,9.876543209876544,0)" xlink:href="#an"/><use transform="matrix(0.04938271604938272,0,0,0.04938271604938272,20.69135802469136,0)" xlink:href="#U"/><use transform="matrix(0.04938271604938272,0,0,0.04938271604938272,31.506172839506174,0)" xlink:href="#ah"/><use transform="matrix(0.04938271604938272,0,0,0.04938271604938272,41.38271604938272,0)" xlink:href="#al"/><use transform="matrix(0.04938271604938272,0,0,0.04938271604938272,52.19753086419754,0)" xlink:href="#aF"/></g><path fill="#333" d="M137-138c1-29-70-34-71-4 15 46 118 7 119 86 1 83-164 76-172 9l43-7c4 19 20 25 44 25 33 8 57-30 24-41C81-84 22-81 20-136c-2-80 154-74 161-7zm-67-70v-5l45-51h45v8l-60 48H70" id="aG"/><g id="u"><use transform="matrix(0.04938271604938272,0,0,0.04938271604938272,0,0)" xlink:href="#an"/><use transform="matrix(0.04938271604938272,0,0,0.04938271604938272,10.814814814814815,0)" xlink:href="#aD"/><use transform="matrix(0.04938271604938272,0,0,0.04938271604938272,15.753086419753087,0)" xlink:href="#V"/><use transform="matrix(0.04938271604938272,0,0,0.04938271604938272,25.629629629629633,0)" xlink:href="#aj"/><use transform="matrix(0.04938271604938272,0,0,0.04938271604938272,31.506172839506174,0)" xlink:href="#ap"/><use transform="matrix(0.04938271604938272,0,0,0.04938271604938272,42.320987654320994,0)" xlink:href="#U"/><use transform="matrix(0.04938271604938272,0,0,0.04938271604938272,53.135802469135804,0)" xlink:href="#aG"/><use transform="matrix(0.04938271604938272,0,0,0.04938271604938272,63.01234567901235,0)" xlink:href="#ao"/><use transform="matrix(0.04938271604938272,0,0,0.04938271604938272,72.8888888888889,0)" xlink:href="#ai"/><use transform="matrix(0.04938271604938272,0,0,0.04938271604938272,77.82716049382717,0)" xlink:href="#aa"/><use transform="matrix(0.04938271604938272,0,0,0.04938271604938272,83.70370370370371,0)" xlink:href="#ac"/></g><path fill="#333" d="M190-63c-7 42-38 67-86 67-59 0-84-38-90-98-12-110 154-137 174-36l-49 2c-2-19-15-32-35-32-30 0-35 28-38 64-6 74 65 87 74 30zM78-208v-5l45-51h45v8l-60 48H78" id="aH"/><g id="v"><use transform="matrix(0.04938271604938272,0,0,0.04938271604938272,0,0)" xlink:href="#U"/><use transform="matrix(0.04938271604938272,0,0,0.04938271604938272,10.814814814814815,0)" xlink:href="#an"/><use transform="matrix(0.04938271604938272,0,0,0.04938271604938272,21.62962962962963,0)" xlink:href="#aD"/><use transform="matrix(0.04938271604938272,0,0,0.04938271604938272,26.567901234567902,0)" xlink:href="#V"/><use transform="matrix(0.04938271604938272,0,0,0.04938271604938272,36.44444444444444,0)" xlink:href="#aH"/></g><path fill="#333" d="M135-143c-3-34-86-38-87 0 15 53 115 12 119 90S17 21 10-45l28-5c4 36 97 45 98 0-10-56-113-15-118-90-4-57 82-63 122-42 12 7 21 19 24 35" id="aI"/><path fill="#333" d="M145-31C134-9 116 4 85 4 32 4 16-35 15-94c0-59 17-99 70-100 32-1 48 14 60 33 0-11-1-24 2-32h30l-1 268h-32zM93-21c41 0 51-33 51-76s-8-73-50-73c-40 0-46 35-46 75s5 74 45 74" id="aJ"/><path fill="#333" d="M84 4C-5 8 30-112 23-190h32v120c0 31 7 50 39 49 72-2 45-101 50-169h31l1 190h-30c-1-10 1-25-2-33-11 22-28 36-60 37" id="aK"/><g id="w"><use transform="matrix(0.06172839506172839,0,0,0.06172839506172839,0,0)" xlink:href="#aI"/><use transform="matrix(0.06172839506172839,0,0,0.06172839506172839,11.11111111111111,0)" xlink:href="#H"/><use transform="matrix(0.06172839506172839,0,0,0.06172839506172839,23.45679012345679,0)" xlink:href="#aJ"/><use transform="matrix(0.06172839506172839,0,0,0.06172839506172839,35.80246913580247,0)" xlink:href="#aK"/><use transform="matrix(0.06172839506172839,0,0,0.06172839506172839,48.148148148148145,0)" xlink:href="#H"/><use transform="matrix(0.06172839506172839,0,0,0.06172839506172839,60.49382716049382,0)" xlink:href="#I"/><use transform="matrix(0.06172839506172839,0,0,0.06172839506172839,72.8395061728395,0)" xlink:href="#av"/><use transform="matrix(0.06172839506172839,0,0,0.06172839506172839,83.95061728395062,0)" xlink:href="#H"/></g><path fill="#333" d="M85-194c31 0 48 13 60 33l-1-100h32l1 261h-30c-2-10 0-23-3-31C134-8 116 4 85 4 32 4 16-35 15-94c0-66 23-100 70-100zm9 24c-40 0-46 34-46 75 0 40 6 74 45 74 42 0 51-32 51-76 0-42-9-74-50-73" id="aL"/><path fill="#333" d="M177-190C167-65 218 103 67 71c-23-6-38-20-44-43l32-5c15 47 100 32 89-28v-30C133-14 115 1 83 1 29 1 15-40 15-95c0-56 16-97 71-98 29-1 48 16 59 35 1-10 0-23 2-32h30zM94-22c36 0 50-32 50-73 0-42-14-75-50-75-39 0-46 34-46 75s6 73 46 73" id="aM"/><g id="x"><use transform="matrix(0.06172839506172839,0,0,0.06172839506172839,0,0)" xlink:href="#aL"/><use transform="matrix(0.06172839506172839,0,0,0.06172839506172839,12.345679012345679,0)" xlink:href="#G"/><use transform="matrix(0.06172839506172839,0,0,0.06172839506172839,17.22222222222222,0)" xlink:href="#M"/><use transform="matrix(0.06172839506172839,0,0,0.06172839506172839,29.5679012345679,0)" xlink:href="#aM"/><use transform="matrix(0.06172839506172839,0,0,0.06172839506172839,41.913580246913575,0)" xlink:href="#S"/><use transform="matrix(0.06172839506172839,0,0,0.06172839506172839,49.25925925925925,0)" xlink:href="#M"/><use transform="matrix(0.06172839506172839,0,0,0.06172839506172839,61.60493827160493,0)" xlink:href="#ae"/></g><path fill="#333" d="M109-170H84l-4-78h32zm-65 0H19l-4-78h33" id="aN"/><path fill="#333" d="M185-189c-5-48-123-54-124 2 14 75 158 14 163 119 3 78-121 87-175 55-17-10-28-26-33-46l33-7c5 56 141 63 141-1 0-78-155-14-162-118-5-82 145-84 179-34 5 7 8 16 11 25" id="aO"/><path fill="#333" d="M179-190L93 31C79 59 56 82 12 73V49c39 6 53-20 64-50L1-190h34L92-34l54-156h33" id="aP"/><g id="y"><use transform="matrix(0.06172839506172839,0,0,0.06172839506172839,0,0)" xlink:href="#aN"/><use transform="matrix(0.06172839506172839,0,0,0.06172839506172839,7.8395061728395055,0)" xlink:href="#aO"/><use transform="matrix(0.06172839506172839,0,0,0.06172839506172839,22.65432098765432,0)" xlink:href="#aP"/><use transform="matrix(0.06172839506172839,0,0,0.06172839506172839,33.76543209876543,0)" xlink:href="#aI"/><use transform="matrix(0.06172839506172839,0,0,0.06172839506172839,44.876543209876544,0)" xlink:href="#J"/><use transform="matrix(0.06172839506172839,0,0,0.06172839506172839,51.04938271604939,0)" xlink:href="#H"/><use transform="matrix(0.06172839506172839,0,0,0.06172839506172839,63.395061728395056,0)" xlink:href="#ae"/></g><path fill="#333" d="M9 0v-24l116-142H16v-24h144v24L44-24h123V0H9" id="aQ"/><path fill="#333" d="M141-36C126-15 110 5 73 4 37 3 15-17 15-53c-1-64 63-63 125-63 3-35-9-54-41-54-24 1-41 7-42 31l-33-3c5-37 33-52 76-52 45 0 72 20 72 64v82c-1 20 7 32 28 27v20c-31 9-61-2-59-35zM48-53c0 20 12 33 32 33 41-3 63-29 60-74-43 2-92-5-92 41zm116 93c-1 20 24 18 37 12v18c-24 11-66 4-62-28 3-27 17-46 51-42-13 8-25 19-26 40" id="aR"/><g id="z"><use transform="matrix(0.06172839506172839,0,0,0.06172839506172839,0,0)" xlink:href="#aQ"/><use transform="matrix(0.06172839506172839,0,0,0.06172839506172839,11.11111111111111,0)" xlink:href="#M"/><use transform="matrix(0.06172839506172839,0,0,0.06172839506172839,23.45679012345679,0)" xlink:href="#S"/><use transform="matrix(0.06172839506172839,0,0,0.06172839506172839,30.80246913580247,0)" xlink:href="#aQ"/><use transform="matrix(0.06172839506172839,0,0,0.06172839506172839,41.91358024691358,0)" xlink:href="#aR"/><use transform="matrix(0.06172839506172839,0,0,0.06172839506172839,54.25925925925926,0)" xlink:href="#aL"/><use transform="matrix(0.06172839506172839,0,0,0.06172839506172839,66.60493827160494,0)" xlink:href="#aQ"/><use transform="matrix(0.06172839506172839,0,0,0.06172839506172839,77.71604938271605,0)" xlink:href="#M"/><use transform="matrix(0.06172839506172839,0,0,0.06172839506172839,90.06172839506173,0)" xlink:href="#I"/><use transform="matrix(0.06172839506172839,0,0,0.06172839506172839,102.40740740740742,0)" xlink:href="#G"/><use transform="matrix(0.06172839506172839,0,0,0.06172839506172839,107.28395061728396,0)" xlink:href="#M"/></g><g id="A"><use transform="matrix(0.06172839506172839,0,0,0.06172839506172839,0,0)" xlink:href="#aI"/><use transform="matrix(0.06172839506172839,0,0,0.06172839506172839,11.11111111111111,0)" xlink:href="#ay"/><use transform="matrix(0.06172839506172839,0,0,0.06172839506172839,22.22222222222222,0)" xlink:href="#F"/><use transform="matrix(0.06172839506172839,0,0,0.06172839506172839,27.098765432098766,0)" xlink:href="#H"/><use transform="matrix(0.06172839506172839,0,0,0.06172839506172839,39.44444444444444,0)" xlink:href="#as"/><use transform="matrix(0.06172839506172839,0,0,0.06172839506172839,51.79012345679012,0)" xlink:href="#H"/><use transform="matrix(0.06172839506172839,0,0,0.06172839506172839,64.1358024691358,0)" xlink:href="#ae"/></g><g id="B"><use transform="matrix(0.06172839506172839,0,0,0.06172839506172839,0,0)" xlink:href="#S"/><use transform="matrix(0.06172839506172839,0,0,0.06172839506172839,7.345679012345679,0)" xlink:href="#N"/><use transform="matrix(0.06172839506172839,0,0,0.06172839506172839,19.691358024691358,0)" xlink:href="#R"/><use transform="matrix(0.06172839506172839,0,0,0.06172839506172839,35.67901234567901,0)" xlink:href="#H"/><use transform="matrix(0.06172839506172839,0,0,0.06172839506172839,48.02469135802469,0)" xlink:href="#S"/><use transform="matrix(0.06172839506172839,0,0,0.06172839506172839,55.37037037037037,0)" xlink:href="#N"/><use transform="matrix(0.06172839506172839,0,0,0.06172839506172839,67.71604938271605,0)" xlink:href="#R"/><use transform="matrix(0.06172839506172839,0,0,0.06172839506172839,83.70370370370371,0)" xlink:href="#aP"/><use transform="matrix(0.06172839506172839,0,0,0.06172839506172839,94.81481481481482,0)" xlink:href="#ae"/><use transform="matrix(0.06172839506172839,0,0,0.06172839506172839,113.27160493827161,0)" xlink:href="#aN"/></g><g id="C"><use transform="matrix(0.04938271604938272,0,0,0.04938271604938272,0,0)" xlink:href="#aq"/><use transform="matrix(0.04938271604938272,0,0,0.04938271604938272,15.80246913580247,0)" xlink:href="#U"/><use transform="matrix(0.04938271604938272,0,0,0.04938271604938272,26.617283950617285,0)" xlink:href="#T"/><use transform="matrix(0.04938271604938272,0,0,0.04938271604938272,37.4320987654321,0)" xlink:href="#Z"/><use transform="matrix(0.04938271604938272,0,0,0.04938271604938272,47.308641975308646,0)" xlink:href="#ak"/><use transform="matrix(0.04938271604938272,0,0,0.04938271604938272,52.24691358024692,0)" xlink:href="#ai"/><use transform="matrix(0.04938271604938272,0,0,0.04938271604938272,57.18518518518519,0)" xlink:href="#aa"/><use transform="matrix(0.04938271604938272,0,0,0.04938271604938272,63.061728395061735,0)" xlink:href="#ac"/></g></defs></g></svg>